<svg width="660" height="545" viewBox="0 0 660 545" fill="none" xmlns="http://www.w3.org/2000/svg">
<g clip-path="url(#clip0_155_476)">
<path d="M634.201 364.674C629.435 371.159 623.525 375.986 617.111 379.734H617.103C616.5 380.091 615.897 380.438 615.285 380.765H615.278L615.27 380.775L615.262 380.765H615.255C615.255 380.767 615.255 380.768 615.254 380.769C615.254 380.77 615.253 380.771 615.252 380.772C615.252 380.773 615.251 380.774 615.25 380.774C615.249 380.775 615.248 380.775 615.247 380.775H615.239L615.231 380.765C615.224 380.775 615.224 380.775 615.216 380.765L615.208 380.775L615.2 380.765H615.193C615.185 380.775 615.185 380.775 615.177 380.765H615.169C610.877 383.078 606.468 385.041 601.971 386.643C575.528 395.986 547.735 397.795 520.655 391.933C520.136 391.817 519.626 391.702 519.107 391.586V313.432C519.618 313.162 520.136 312.893 520.655 312.632C524.036 310.888 527.458 309.286 530.921 307.824C535.903 305.704 540.955 303.887 546.076 302.371C562.785 297.334 580.025 295.597 597.167 297.225C600.285 297.514 603.395 297.932 606.497 298.478C612.988 299.605 619.796 301.571 625.784 304.982H625.791C626.666 305.492 627.524 306.022 628.375 306.591C633.698 310.185 638.185 315.128 640.924 321.902C641.908 324.335 642.616 326.926 643.028 329.601V329.62C643.183 330.545 643.291 331.48 643.376 332.405C644.351 343.813 640.552 356.021 634.201 364.674Z" fill="#F2F2F2"/>
<path d="M643.376 332.404C643.3 332.428 643.222 332.441 643.144 332.443C629.892 333.166 616.658 334.238 603.441 335.661H603.418C603.364 335.671 603.318 335.671 603.264 335.681C589.694 337.145 576.153 338.979 562.64 341.182C562.068 341.279 561.502 341.375 560.938 341.462C551.592 343.013 542.265 344.735 532.955 346.627C528.847 347.465 524.747 348.338 520.655 349.247C520.136 349.363 519.626 349.469 519.107 349.594V346.675C519.626 346.549 520.144 346.443 520.655 346.328C534.286 343.322 547.964 340.698 561.688 338.456C565.139 337.878 568.594 337.331 572.055 336.818C582.05 335.314 592.061 334.017 602.087 332.925C602.822 332.848 603.549 332.771 604.285 332.694C617.119 331.335 629.972 330.304 642.842 329.601C642.905 329.597 642.967 329.603 643.028 329.62C644.266 329.755 644.529 332.067 643.376 332.404Z" fill="white"/>
<path d="M615.855 377.926C599.346 378.077 583.082 369.358 571.404 354.926C568.109 350.839 565.206 346.289 562.752 341.369C561.965 339.797 560.123 341.531 560.904 343.09C569.973 361.205 585.079 374.109 601.735 378.854C606.464 380.189 611.303 380.834 616.152 380.776C617.633 380.762 617.326 377.912 615.855 377.926V377.926Z" fill="white"/>
<path d="M546.076 302.371C546.005 302.641 545.879 302.885 545.709 303.076C545.54 303.267 545.333 303.399 545.109 303.459C541.326 304.694 537.67 306.473 534.217 308.759C529.173 312.077 524.593 316.388 520.655 321.526C520.446 321.786 520.245 322.046 520.051 322.316C519.726 322.74 519.417 323.174 519.107 323.617V319.416C519.603 318.761 520.121 318.115 520.655 317.498C523.765 313.79 527.21 310.543 530.921 307.824C535.903 305.704 540.955 303.887 546.076 302.371Z" fill="white"/>
<path d="M627.152 304.222C616.65 309.844 607.863 319.493 602.069 331.766C601.952 332.117 601.951 332.512 602.066 332.864C602.18 333.217 602.402 333.499 602.683 333.649C602.965 333.788 603.28 333.786 603.561 333.644C603.843 333.501 604.069 333.23 604.194 332.885C609.724 321.294 618.067 312.189 628.019 306.885C629.385 306.158 628.52 303.494 627.152 304.222L627.152 304.222Z" fill="white"/>
<path d="M658.81 222.386C657.015 230.885 653.573 238.583 649.295 245.608L649.287 245.617C648.892 246.273 648.482 246.937 648.057 247.573V247.583C645.086 252.141 641.879 256.45 638.456 260.485C626.15 275.091 612.25 287.46 597.167 297.225C573.44 312.661 546.92 321.786 520.655 322.307C520.454 322.316 520.252 322.316 520.051 322.316C519.734 322.326 519.417 322.326 519.107 322.326V278.532C519.61 277.337 520.128 276.143 520.655 274.958C527.48 259.661 535.804 245.478 545.434 232.735C545.666 232.417 545.906 232.099 546.146 231.79C549.766 227.03 553.562 222.498 557.534 218.195C572.812 201.464 590.468 188.44 609.591 179.797C615.757 177.041 622.519 174.835 629.095 174.401C630.062 174.334 631.021 174.305 631.988 174.314C638.046 174.42 643.856 176.203 648.815 180.616C650.591 182.205 652.184 184.088 653.55 186.214C654.029 186.956 654.47 187.717 654.895 188.498V188.507C660.017 198.047 661.208 211.045 658.81 222.386Z" fill="#F2F2F2"/>
<path d="M654.895 188.498V188.507C654.838 188.57 654.776 188.625 654.71 188.671C643.26 196.967 631.954 205.566 620.794 214.466C620.778 214.475 620.771 214.485 620.755 214.495C620.71 214.533 620.664 214.569 620.616 214.6C609.143 223.754 597.832 233.216 586.684 242.987C586.22 243.391 585.748 243.806 585.276 244.22C577.579 250.994 569.961 257.912 562.423 264.975C548.188 278.33 534.265 292.179 520.655 306.523C520.136 307.063 519.626 307.612 519.107 308.162V304.413C519.618 303.864 520.136 303.315 520.655 302.775C525.869 297.293 531.13 291.887 536.437 286.559C538.023 284.969 539.616 283.379 541.21 281.808C555.368 267.769 569.842 254.254 584.634 241.262H584.642C587.551 238.709 590.465 236.178 593.384 233.669C601.677 226.558 610.064 219.617 618.543 212.847C619.153 212.355 619.773 211.864 620.391 211.373C631.246 202.739 642.241 194.388 653.379 186.32C653.433 186.279 653.49 186.244 653.549 186.214C654.71 185.636 655.8 187.544 654.895 188.498Z" fill="white"/>
<path d="M647.507 244.734C632.943 254.42 615.288 256.108 599.564 250.084C595.122 248.371 590.854 246.022 586.846 243.085C585.562 242.148 584.578 244.749 585.851 245.677C600.638 256.473 618.829 259.16 635.348 253.726C640.034 252.172 644.559 249.943 648.832 247.086C650.138 246.218 648.804 243.872 647.507 244.734V244.734Z" fill="white"/>
<path d="M538.543 279.989C537.823 274.945 537.575 269.814 537.807 264.698C538.328 253.032 541.196 241.717 546.147 231.792C549.772 227.034 553.569 222.501 557.537 218.194C557.575 218.476 557.553 218.765 557.473 219.033C557.394 219.301 557.26 219.538 557.084 219.721C554.196 223.004 551.623 226.693 549.416 230.713C541.534 245.041 538.457 262.638 540.842 279.751C540.881 279.945 540.879 280.148 540.836 280.341C540.794 280.534 540.712 280.71 540.6 280.852C540.434 281.031 540.234 281.154 540.019 281.207C539.803 281.26 539.581 281.242 539.373 281.155C539.165 281.068 538.979 280.914 538.833 280.71C538.688 280.505 538.588 280.257 538.543 279.989Z" fill="white"/>
<path d="M630.022 172.929C622.818 183.983 618.635 197.612 618.082 211.833C618.109 212.211 618.255 212.562 618.488 212.807C618.721 213.053 619.023 213.174 619.327 213.145C619.629 213.105 619.907 212.921 620.103 212.632C620.3 212.343 620.399 211.972 620.381 211.594C620.955 198.13 624.947 185.241 631.782 174.785C632.721 173.352 630.962 171.493 630.022 172.929Z" fill="white"/>
<path d="M549.906 204.589V204.599C549.852 205.428 549.79 206.247 549.72 207.066V207.085C549.182 212.915 548.342 218.695 547.206 224.39C546.664 227.185 546.076 229.96 545.434 232.735C545.357 233.091 545.272 233.448 545.187 233.795V233.804C543.297 241.875 541.04 249.805 538.425 257.556C533.615 271.826 527.661 285.455 520.655 298.237C520.152 299.172 519.634 300.106 519.107 301.031V150.139C519.626 150.1 520.136 150.1 520.655 150.12C520.902 150.12 521.15 150.129 521.397 150.149C523.58 150.291 525.736 150.814 527.803 151.7C528.53 151.999 529.234 152.336 529.931 152.712C538.371 157.317 545.001 167.473 547.879 178.641C550.037 187.004 550.471 195.802 549.906 204.589Z" fill="#F2F2F2"/>
<path d="M529.931 152.711C529.913 152.806 529.884 152.897 529.845 152.981C526.712 160.564 523.649 168.186 520.655 175.846C520.136 177.166 519.618 178.496 519.107 179.816V173.264C519.618 171.953 520.134 170.643 520.655 169.333C522.968 163.493 525.32 157.68 527.71 151.892C527.737 151.825 527.768 151.76 527.803 151.7C528.515 150.428 530.279 151.295 529.931 152.711Z" fill="white"/>
<path d="M550.153 206.14C550.014 206.449 549.875 206.757 549.72 207.065C547.448 211.996 544.745 216.598 541.659 220.786C535.732 228.795 528.594 235.269 520.655 239.836C520.144 240.144 519.626 240.433 519.107 240.703V237.572C519.626 237.283 520.144 236.984 520.655 236.675C532.147 229.848 541.693 218.816 548.018 205.052C548.109 204.855 548.234 204.685 548.382 204.554C548.531 204.422 548.7 204.332 548.879 204.289C549.058 204.246 549.242 204.251 549.419 204.305C549.597 204.358 549.763 204.459 549.906 204.599C550.003 204.68 550.087 204.784 550.153 204.905C550.218 205.026 550.263 205.163 550.286 205.306C550.309 205.449 550.309 205.596 550.286 205.74C550.264 205.883 550.218 206.019 550.153 206.14Z" fill="white"/>
<path d="M520.655 32.142V105.372H519.108V104.592H1.54727V105.372H0V32.142C0.00664425 23.7114 2.69852 15.6284 7.48487 9.66707C12.2712 3.70571 18.761 0.353002 25.5299 0.344727H495.125C501.894 0.353002 508.384 3.70571 513.17 9.66707C517.957 15.6284 520.649 23.7114 520.655 32.142Z" fill="#6C63FF"/>
<path d="M495.125 0.344727H25.5299C18.761 0.353002 12.2712 3.70571 7.48487 9.66707C2.69852 15.6284 0.00664425 23.7114 0 32.142V450.324C0.00664425 458.755 2.69852 466.838 7.48487 472.799C12.2712 478.76 18.761 482.113 25.5299 482.122H495.125C501.894 482.113 508.384 478.76 513.17 472.799C517.957 466.838 520.649 458.755 520.655 450.324V32.142C520.649 23.7114 517.957 15.6284 513.17 9.66707C508.384 3.70571 501.894 0.353002 495.125 0.344727ZM519.108 450.324C519.1 458.243 516.57 465.835 512.075 471.435C507.579 477.034 501.483 480.184 495.125 480.194H25.5299C19.1718 480.184 13.0764 477.034 8.58057 471.435C4.08471 465.835 1.55538 458.243 1.54727 450.324V32.142C1.55538 24.223 4.08471 16.6313 8.58057 11.0318C13.0764 5.43221 19.1718 2.28194 25.5299 2.27183H495.125C501.483 2.28194 507.579 5.43221 512.075 11.0318C516.57 16.6313 519.1 24.223 519.108 32.142V450.324Z" fill="#3F3D56"/>
<path d="M105.215 72.1295C113.76 72.1295 120.688 63.5016 120.688 52.8585C120.688 42.2154 113.76 33.5874 105.215 33.5874C96.6695 33.5874 89.7422 42.2154 89.7422 52.8585C89.7422 63.5016 96.6695 72.1295 105.215 72.1295Z" fill="white"/>
<path d="M415.441 72.1295C423.987 72.1295 430.914 63.5016 430.914 52.8585C430.914 42.2154 423.987 33.5874 415.441 33.5874C406.896 33.5874 399.969 42.2154 399.969 52.8585C399.969 63.5016 406.896 72.1295 415.441 72.1295Z" fill="white"/>
<path d="M149.918 267.733H57.8739C53.9745 267.727 50.236 265.796 47.4787 262.361C44.7214 258.927 43.1704 254.271 43.166 249.414V195.231C43.1704 190.374 44.7214 185.718 47.4787 182.284C50.236 178.85 53.9745 176.918 57.8739 176.913H149.918C153.817 176.918 157.556 178.85 160.313 182.284C163.07 185.718 164.621 190.374 164.626 195.231V249.414C164.621 254.271 163.07 258.927 160.313 262.361C157.556 265.796 153.817 267.727 149.918 267.733Z" fill="#6C63FF"/>
<path d="M306.5 267.733H214.456C210.557 267.727 206.818 265.796 204.061 262.361C201.303 258.927 199.752 254.271 199.748 249.414V195.231C199.752 190.374 201.303 185.718 204.061 182.284C206.818 178.85 210.557 176.918 214.456 176.913H306.5C310.399 176.918 314.138 178.85 316.895 182.284C319.652 185.718 321.203 190.374 321.208 195.231V249.414C321.203 254.271 319.652 258.927 316.895 262.361C314.138 265.796 310.399 267.727 306.5 267.733Z" fill="#6C63FF"/>
<path d="M306.5 407.729H214.456C210.439 407.723 206.587 405.733 203.746 402.195C200.905 398.656 199.307 393.859 199.303 388.855V334.671C199.307 329.668 200.905 324.87 203.746 321.332C206.587 317.794 210.439 315.803 214.456 315.798H306.5C310.518 315.803 314.37 317.794 317.21 321.332C320.051 324.87 321.649 329.668 321.654 334.671V388.855C321.649 393.859 320.051 398.656 317.21 402.195C314.37 405.733 310.518 407.723 306.5 407.729Z" fill="#F2F2F2"/>
<path d="M149.615 407.729H57.5715C53.5539 407.723 49.7022 405.733 46.8613 402.195C44.0205 398.656 42.4225 393.859 42.418 388.855V334.671C42.4225 329.668 44.0205 324.87 46.8613 321.332C49.7022 317.794 53.5539 315.803 57.5715 315.798H149.615C153.633 315.803 157.485 317.794 160.326 321.332C163.167 324.87 164.765 329.668 164.769 334.671V388.855C164.765 393.859 163.167 398.656 160.326 402.195C157.485 405.733 153.633 407.723 149.615 407.729Z" fill="#F2F2F2"/>
<path d="M463.082 407.729H371.038C367.021 407.723 363.169 405.733 360.328 402.195C357.487 398.656 355.889 393.859 355.885 388.855V334.671C355.889 329.668 357.487 324.87 360.328 321.332C363.169 317.794 367.021 315.803 371.038 315.798H463.082C467.1 315.803 470.952 317.794 473.792 321.332C476.633 324.87 478.231 329.668 478.236 334.671V388.855C478.231 393.859 476.633 398.656 473.792 402.195C470.952 405.733 467.1 407.723 463.082 407.729Z" fill="#F2F2F2"/>
<path d="M463.082 267.842H371.038C367.021 267.836 363.169 265.846 360.328 262.307C357.487 258.769 355.889 253.972 355.885 248.968V194.784C355.889 189.78 357.487 184.983 360.328 181.445C363.169 177.907 367.021 175.916 371.038 175.911H463.082C467.1 175.916 470.952 177.907 473.792 181.445C476.633 184.983 478.231 189.78 478.236 194.784V248.968C478.231 253.972 476.633 258.769 473.792 262.307C470.952 265.846 467.1 267.836 463.082 267.842Z" fill="#F2F2F2"/>
<path d="M103.896 253.409C117.681 253.409 128.855 239.491 128.855 222.323C128.855 205.154 117.681 191.237 103.896 191.237C90.112 191.237 78.9375 205.154 78.9375 222.323C78.9375 239.491 90.112 253.409 103.896 253.409Z" fill="white"/>
<path d="M101.423 234.181C100.862 234.183 100.315 233.956 99.8656 233.537L99.8377 233.511L93.9723 227.918C93.7002 227.659 93.4719 227.335 93.3002 226.966C93.1286 226.597 93.017 226.19 92.9719 225.767C92.9268 225.344 92.9491 224.914 93.0374 224.502C93.1257 224.09 93.2783 223.704 93.4866 223.365C93.6949 223.027 93.9547 222.743 94.2511 222.529C94.5476 222.316 94.8749 222.177 95.2144 222.122C95.5539 222.066 95.8989 222.094 96.2297 222.204C96.5604 222.315 96.8705 222.505 97.1421 222.765L100.941 226.393L109.919 211.81C110.128 211.472 110.387 211.188 110.684 210.975C110.98 210.761 111.307 210.623 111.646 210.567C111.986 210.511 112.33 210.539 112.661 210.65C112.992 210.76 113.301 210.95 113.573 211.209L113.517 211.304L113.574 211.211C114.122 211.735 114.481 212.509 114.571 213.362C114.662 214.215 114.477 215.078 114.057 215.761L103.496 232.915C103.252 233.31 102.938 233.63 102.578 233.849C102.219 234.069 101.824 234.183 101.423 234.181Z" fill="#6C63FF"/>
<path d="M260.924 252.962C274.708 252.962 285.882 239.044 285.882 221.876C285.882 204.708 274.708 190.79 260.924 190.79C247.139 190.79 235.965 204.708 235.965 221.876C235.965 239.044 247.139 252.962 260.924 252.962Z" fill="white"/>
<path d="M258.45 233.735C257.889 233.736 257.342 233.51 256.893 233.09L256.865 233.064L251 227.471C250.451 226.948 250.092 226.174 250.001 225.321C249.91 224.467 250.096 223.604 250.516 222.921C250.936 222.237 251.557 221.79 252.242 221.677C252.928 221.564 253.621 221.795 254.169 222.318L257.969 225.947L266.947 211.364C267.155 211.025 267.415 210.741 267.711 210.528C268.007 210.315 268.334 210.176 268.674 210.121C269.013 210.065 269.358 210.093 269.688 210.203C270.019 210.313 270.329 210.503 270.6 210.763L270.544 210.857L270.602 210.764C271.15 211.289 271.508 212.062 271.598 212.915C271.689 213.768 271.504 214.631 271.084 215.315L260.524 232.468C260.279 232.863 259.965 233.183 259.606 233.403C259.246 233.623 258.851 233.736 258.45 233.735Z" fill="#6C63FF"/>
<path d="M429.608 368.566C430.428 367.45 431.041 366.123 431.405 364.679C431.768 363.235 431.874 361.709 431.713 360.209C431.552 358.709 431.128 357.272 430.473 355.997C429.818 354.723 428.946 353.643 427.919 352.834L413.985 260.167L397.039 267.993L416.064 356.621C415.087 358.86 414.803 361.467 415.266 363.948C415.729 366.43 416.907 368.614 418.576 370.086C420.246 371.559 422.291 372.217 424.324 371.937C426.357 371.657 428.237 370.458 429.608 368.566Z" fill="#A0616A"/>
<path d="M294.389 227.166C294.431 227.741 294.437 228.32 294.406 228.896L327.355 260.481L336.699 255.702L344.333 272.323L328.451 282.785C327.168 283.63 325.7 283.934 324.266 283.651C322.833 283.369 321.512 282.514 320.501 281.217L287.567 238.927C285.823 239.417 284.002 239.234 282.344 238.403C280.686 237.571 279.271 236.131 278.286 234.274C277.302 232.416 276.794 230.229 276.832 228.004C276.87 225.778 277.45 223.62 278.497 221.816C279.544 220.011 281.006 218.647 282.691 217.903C284.375 217.16 286.202 217.073 287.927 217.653C289.652 218.234 291.195 219.455 292.349 221.155C293.503 222.854 294.215 224.95 294.389 227.166H294.389Z" fill="#A0616A"/>
<path d="M371.366 533.044H361.882L357.369 497.115L371.368 497.116L371.366 533.044Z" fill="#A0616A"/>
<path d="M373.785 544.496L343.203 544.494V544.012C343.203 542.065 343.511 540.138 344.109 538.339C344.707 536.54 345.584 534.906 346.69 533.529C347.795 532.152 349.107 531.06 350.551 530.315C351.996 529.57 353.543 529.187 355.107 529.187H355.107L373.786 529.188L373.785 544.496Z" fill="#2F2E41"/>
<path d="M406.954 533.044H397.47L392.957 497.115L406.956 497.116L406.954 533.044Z" fill="#A0616A"/>
<path d="M409.371 544.496L378.789 544.494V544.012C378.789 542.065 379.097 540.138 379.695 538.339C380.293 536.54 381.17 534.906 382.275 533.529C383.381 532.152 384.693 531.06 386.137 530.315C387.581 529.57 389.129 529.187 390.693 529.187H390.693L409.372 529.188L409.371 544.496Z" fill="#2F2E41"/>
<path d="M359.913 525.943C359.047 525.944 358.212 525.542 357.571 524.817C356.931 524.091 356.531 523.093 356.451 522.019L348.186 383.567L348.576 383.527L405.454 377.705L405.47 378.208L409.991 521.634C410.009 522.216 409.932 522.797 409.765 523.342C409.598 523.887 409.344 524.384 409.019 524.804C408.695 525.224 408.305 525.558 407.874 525.786C407.444 526.014 406.98 526.131 406.512 526.131H395.36C394.527 526.136 393.721 525.767 393.089 525.092C392.457 524.417 392.042 523.481 391.919 522.455L376.774 406.592C376.759 406.473 376.709 406.364 376.633 406.289C376.557 406.214 376.461 406.177 376.364 406.185C376.267 406.194 376.176 406.248 376.11 406.336C376.043 406.425 376.006 406.541 376.005 406.662L375.318 521.059C375.311 522.163 374.966 523.223 374.353 524.022C373.74 524.821 372.906 525.299 372.02 525.358L360.099 525.937C360.037 525.941 359.974 525.943 359.913 525.943Z" fill="#2F2E41"/>
<path d="M369.62 208.593C380.114 208.593 388.621 197.998 388.621 184.927C388.621 171.857 380.114 161.261 369.62 161.261C359.126 161.261 350.619 171.857 350.619 184.927C350.619 197.998 359.126 208.593 369.62 208.593Z" fill="#A0616A"/>
<path d="M373.298 392.397C364.993 392.366 356.728 390.959 348.721 388.213C347.951 387.934 347.281 387.332 346.825 386.51C346.369 385.687 346.155 384.694 346.218 383.698C348.776 335.815 349.377 298.657 343.998 272.948C341.706 261.99 342.747 250.45 346.854 241.286C353.035 227.494 364.396 219.1 376.515 219.39C377.094 219.404 377.679 219.429 378.27 219.467C396.661 220.647 410.992 241.369 410.216 265.662L406.517 381.451C406.503 382.295 406.289 383.116 405.902 383.81C405.514 384.503 404.97 385.038 404.339 385.347C394.415 389.997 383.901 392.385 373.298 392.397Z" fill="#3F3D56"/>
<path d="M347.126 281.838L332.893 260.115C332.488 259.497 332.194 258.778 332.033 258.006C331.871 257.234 331.845 256.427 331.956 255.642C332.068 254.856 332.313 254.109 332.677 253.453C333.041 252.796 333.514 252.245 334.064 251.836L353.344 237.528C355.895 234.964 359.158 233.766 362.417 234.194C365.676 234.623 368.666 236.644 370.731 239.814C372.795 242.984 373.766 247.044 373.431 251.105C373.095 255.166 371.481 258.895 368.941 261.474L353.872 282.069C353.441 282.658 352.912 283.125 352.323 283.437C351.733 283.749 351.097 283.899 350.457 283.877C349.816 283.855 349.187 283.662 348.613 283.31C348.038 282.958 347.531 282.456 347.126 281.838Z" fill="#3F3D56"/>
<path d="M391.9 279.112C391.315 278.787 390.794 278.308 390.371 277.708C389.949 277.108 389.635 276.402 389.452 275.638L383.045 248.942C381.654 245.246 381.497 241.013 382.608 237.172C383.72 233.332 386.009 230.197 388.973 228.455C391.938 226.714 395.336 226.508 398.422 227.883C401.508 229.257 404.031 232.1 405.436 235.788L417.827 259.095C418.181 259.76 418.415 260.513 418.514 261.301C418.613 262.089 418.575 262.894 418.402 263.662C418.228 264.43 417.924 265.143 417.51 265.751C417.095 266.359 416.58 266.849 416 267.188L395.612 279.074C395.032 279.413 394.4 279.591 393.759 279.598C393.119 279.605 392.484 279.439 391.9 279.112Z" fill="#3F3D56"/>
<path d="M379.009 204.346L364.925 200.331C363.472 199.916 361.726 199.126 361.525 197.287C361.254 194.815 364.11 193.093 363.846 190.621C363.591 188.225 360.99 187.917 359.135 187.21C357.407 186.455 355.983 184.892 355.164 182.853C354.345 180.814 354.195 178.457 354.746 176.283C352.739 179.805 348.154 180.107 345.551 177.253C342.947 174.399 342.448 169.221 344.011 165.365C344.856 163.471 346.048 161.852 347.489 160.64C348.931 159.428 350.582 158.656 352.308 158.388C355.778 157.898 359.287 158.713 362.383 160.728C362.589 157.998 365.326 156.891 367.528 156.866C372.101 156.933 376.544 158.773 380.238 162.132C383.933 165.49 386.695 170.199 388.14 175.604C390.841 186.446 389.034 198.331 381.475 204.674L379.009 204.346Z" fill="#2F2E41"/>
<path d="M520.878 544.752H226.123C225.918 544.752 225.721 544.651 225.576 544.47C225.431 544.289 225.35 544.044 225.35 543.789C225.35 543.533 225.431 543.288 225.576 543.107C225.721 542.927 225.918 542.825 226.123 542.825H520.878C521.083 542.825 521.28 542.927 521.425 543.107C521.57 543.288 521.651 543.533 521.651 543.789C521.651 544.044 521.57 544.289 521.425 544.47C521.28 544.651 521.083 544.752 520.878 544.752Z" fill="#3F3D56"/>
</g>
<defs>
<clipPath id="clip0_155_476">
<rect width="660" height="544.408" fill="white" transform="translate(0 0.344727)"/>
</clipPath>
</defs>
</svg>
