<svg width="660" height="564" viewBox="0 0 660 564" fill="none" xmlns="http://www.w3.org/2000/svg">
<g clip-path="url(#clip0_156_193)">
<path d="M571.778 563.241C620.502 563.241 660 560.291 660 556.653C660 553.014 620.502 550.064 571.778 550.064C523.055 550.064 483.557 553.014 483.557 556.653C483.557 560.291 523.055 563.241 571.778 563.241Z" fill="#E6E6E6"/>
<path d="M605.962 368.037L597.431 391.339C596.784 393.104 596.781 395.035 597.421 396.803C598.062 398.571 599.307 400.068 600.945 401.04C602.138 401.748 603.493 402.15 604.887 402.21C606.28 402.27 607.666 401.986 608.918 401.383C610.169 400.78 611.245 399.879 612.048 398.762C612.85 397.645 613.352 396.348 613.507 394.991L616.215 371.384L636.72 305.018L619.063 296.652L605.962 368.037Z" fill="#A0616A"/>
<path d="M598.843 543.99H611.375V424.643L582.895 424.086L598.843 543.99Z" fill="#A0616A"/>
<path d="M543.022 543.99H555.553V424.643L527.074 424.086L543.022 543.99Z" fill="#A0616A"/>
<path d="M613.368 437.192L580.901 433.846L574.066 398.711L561.535 434.403L522.803 430.499L538.751 371.384C567.905 351.987 595.594 352.412 621.912 371.384L613.368 437.192Z" fill="#2F2E41"/>
<path d="M558.321 549.073C558.514 550.587 558.35 552.125 557.84 553.567C557.33 555.009 556.489 556.317 555.381 557.391C554.273 558.464 552.928 559.274 551.45 559.758C549.972 560.242 548.4 560.387 546.856 560.182L523.771 557.117C521.706 556.801 519.854 555.697 518.62 554.046C517.386 552.395 516.872 550.332 517.189 548.31C517.476 546.486 518.42 544.823 519.85 543.622C521.28 542.42 523.103 541.76 524.987 541.76H528.793L541.316 530.588C541.44 538.198 547.163 536.508 556.622 535.765L558.321 549.073Z" fill="#2F2E41"/>
<path d="M614.141 549.073C614.334 550.587 614.17 552.125 613.66 553.567C613.15 555.009 612.309 556.317 611.201 557.391C610.094 558.464 608.749 559.274 607.271 559.758C605.792 560.242 604.22 560.387 602.676 560.182L579.591 557.117C577.526 556.801 575.674 555.697 574.44 554.046C573.207 552.395 572.692 550.332 573.01 548.31C573.296 546.486 574.24 544.823 575.67 543.622C577.101 542.42 578.923 541.76 580.808 541.76H584.614L597.136 530.588C597.26 538.198 602.983 536.508 612.442 535.765L614.141 549.073Z" fill="#2F2E41"/>
<path d="M569.65 234.191C580.739 234.191 589.729 225.389 589.729 214.532C589.729 203.675 580.739 194.873 569.65 194.873C558.562 194.873 549.572 203.675 549.572 214.532C549.572 225.389 558.562 234.191 569.65 234.191Z" fill="#A0616A"/>
<path d="M595.14 247.575L570.078 249.807V228.056L583.179 220.249L595.14 247.575Z" fill="#A0616A"/>
<path d="M624.759 379.749C599.546 361.672 569.271 363.509 535.902 377.518C551.021 335.613 557.461 296.559 545.585 263.521C545.585 257.684 547.57 252.012 551.226 247.402C554.882 242.791 560.002 239.503 565.778 238.056L570.078 236.979L591.153 238.094L610.943 249.453C614.979 251.769 618.329 255.075 620.664 259.044C622.999 263.013 624.238 267.509 624.259 272.09L624.759 379.749Z" fill="#E6E6E6"/>
<path d="M527.359 363.576L518.827 386.877C518.181 388.643 518.177 390.573 518.818 392.341C519.458 394.109 520.703 395.606 522.342 396.579C523.535 397.286 524.89 397.689 526.283 397.749C527.676 397.809 529.063 397.524 530.314 396.922C531.566 396.319 532.642 395.418 533.444 394.301C534.246 393.184 534.748 391.887 534.904 390.53L537.611 366.922L558.117 300.556L540.459 292.191L527.359 363.576Z" fill="#A0616A"/>
<path d="M641.277 317.845H613.367V250.922C618.194 253.548 622.388 257.159 625.664 261.511C628.94 265.864 631.222 270.855 632.354 276.147L641.277 317.845Z" fill="#E6E6E6"/>
<path d="M554.343 203.888C553.117 204.455 551.765 204.715 550.41 204.643C549.055 204.571 547.74 204.171 546.583 203.477C545.451 202.745 544.596 201.668 544.15 200.414C543.704 199.159 543.692 197.796 544.115 196.533C544.962 194.402 547.104 193.068 549.183 192.025C553.768 189.726 558.682 188.119 563.758 187.258C566.178 186.848 568.74 186.623 571.028 187.498C572.159 187.932 573.174 188.618 574.297 189.072C576.363 189.906 578.667 189.91 580.853 190.362C583.091 190.841 585.198 191.785 587.032 193.13C588.865 194.474 590.382 196.189 591.48 198.158C592.199 199.497 592.752 200.917 593.125 202.385C594.178 206.403 594.164 210.618 593.085 214.629C591.365 220.983 586.99 226.822 587.384 233.384C584.148 231.539 582.633 227.784 579.931 225.246C577.923 223.371 575.324 222.219 572.56 221.977C571.805 222.006 571.057 221.82 570.408 221.441C569.937 220.99 569.611 220.414 569.472 219.784L566.429 210.45C565.809 208.55 565.061 206.486 563.31 205.467C562.231 204.932 561.039 204.649 559.829 204.639C556.934 204.433 554.026 204.459 551.136 204.719" fill="#2F2E41"/>
<path d="M560.965 305.576L528.498 293.307L543.242 254.409C544.959 249.879 547.975 245.931 551.926 243.037C555.878 240.143 560.599 238.427 565.522 238.095L560.965 305.576Z" fill="#E6E6E6"/>
<path d="M386.297 417.415H29.7225C28.0302 417.413 26.4079 416.754 25.2113 415.582C24.0147 414.411 23.3417 412.822 23.3398 411.165V30.3767C23.3417 28.7199 24.0147 27.1314 25.2113 25.9598C26.4079 24.7882 28.0302 24.1292 29.7225 24.1274H386.297C387.99 24.1292 389.612 24.7882 390.809 25.9598C392.005 27.1314 392.678 28.7199 392.68 30.3767V411.165C392.678 412.822 392.005 414.411 390.809 415.582C389.612 416.754 387.99 417.413 386.297 417.415ZM29.7225 26.6271C28.7071 26.6282 27.7337 27.0236 27.0158 27.7266C26.2978 28.4295 25.894 29.3826 25.8929 30.3767V411.165C25.894 412.159 26.2978 413.112 27.0158 413.815C27.7337 414.518 28.7071 414.914 29.7225 414.915H386.297C387.313 414.914 388.286 414.518 389.004 413.815C389.722 413.112 390.126 412.159 390.127 411.165V30.3767C390.126 29.3826 389.722 28.4295 389.004 27.7266C388.286 27.0236 387.313 26.6282 386.297 26.6271H29.7225Z" fill="#E6E6E6"/>
<path d="M103.302 166.066C107.929 166.066 111.679 162.394 111.679 157.864C111.679 153.335 107.929 149.663 103.302 149.663C98.6761 149.663 94.9258 153.335 94.9258 157.864C94.9258 162.394 98.6761 166.066 103.302 166.066Z" fill="#E6E6E6"/>
<path d="M138.205 166.066C142.831 166.066 146.581 162.394 146.581 157.864C146.581 153.335 142.831 149.663 138.205 149.663C133.578 149.663 129.828 153.335 129.828 157.864C129.828 162.394 133.578 166.066 138.205 166.066Z" fill="#E6E6E6"/>
<path d="M173.107 166.066C177.733 166.066 181.484 162.394 181.484 157.864C181.484 153.335 177.733 149.663 173.107 149.663C168.481 149.663 164.73 153.335 164.73 157.864C164.73 162.394 168.481 166.066 173.107 166.066Z" fill="#6C63FF"/>
<path d="M208.009 166.066C212.636 166.066 216.386 162.394 216.386 157.864C216.386 153.335 212.636 149.663 208.009 149.663C203.383 149.663 199.633 153.335 199.633 157.864C199.633 162.394 203.383 166.066 208.009 166.066Z" fill="#6C63FF"/>
<path d="M242.912 166.066C247.538 166.066 251.288 162.394 251.288 157.864C251.288 153.335 247.538 149.663 242.912 149.663C238.285 149.663 234.535 153.335 234.535 157.864C234.535 162.394 238.285 166.066 242.912 166.066Z" fill="#6C63FF"/>
<path d="M277.814 166.066C282.44 166.066 286.191 162.394 286.191 157.864C286.191 153.335 282.44 149.663 277.814 149.663C273.188 149.663 269.438 153.335 269.438 157.864C269.438 162.394 273.188 166.066 277.814 166.066Z" fill="#E6E6E6"/>
<path d="M312.716 166.066C317.343 166.066 321.093 162.394 321.093 157.864C321.093 153.335 317.343 149.663 312.716 149.663C308.09 149.663 304.34 153.335 304.34 157.864C304.34 162.394 308.09 166.066 312.716 166.066Z" fill="#E6E6E6"/>
<path d="M103.302 192.037C107.929 192.037 111.679 188.365 111.679 183.836C111.679 179.306 107.929 175.634 103.302 175.634C98.6761 175.634 94.9258 179.306 94.9258 183.836C94.9258 188.365 98.6761 192.037 103.302 192.037Z" fill="#E6E6E6"/>
<path d="M138.205 192.037C142.831 192.037 146.581 188.365 146.581 183.836C146.581 179.306 142.831 175.634 138.205 175.634C133.578 175.634 129.828 179.306 129.828 183.836C129.828 188.365 133.578 192.037 138.205 192.037Z" fill="#E6E6E6"/>
<path d="M173.107 192.037C177.733 192.037 181.484 188.365 181.484 183.836C181.484 179.306 177.733 175.634 173.107 175.634C168.481 175.634 164.73 179.306 164.73 183.836C164.73 188.365 168.481 192.037 173.107 192.037Z" fill="#E6E6E6"/>
<path d="M208.009 192.037C212.636 192.037 216.386 188.365 216.386 183.836C216.386 179.306 212.636 175.634 208.009 175.634C203.383 175.634 199.633 179.306 199.633 183.836C199.633 188.365 203.383 192.037 208.009 192.037Z" fill="#E6E6E6"/>
<path d="M242.912 192.037C247.538 192.037 251.288 188.365 251.288 183.836C251.288 179.306 247.538 175.634 242.912 175.634C238.285 175.634 234.535 179.306 234.535 183.836C234.535 188.365 238.285 192.037 242.912 192.037Z" fill="#E6E6E6"/>
<path d="M277.814 192.037C282.44 192.037 286.191 188.365 286.191 183.836C286.191 179.306 282.44 175.634 277.814 175.634C273.188 175.634 269.438 179.306 269.438 183.836C269.438 188.365 273.188 192.037 277.814 192.037Z" fill="#E6E6E6"/>
<path d="M312.716 192.037C317.343 192.037 321.093 188.365 321.093 183.836C321.093 179.306 317.343 175.634 312.716 175.634C308.09 175.634 304.34 179.306 304.34 183.836C304.34 188.365 308.09 192.037 312.716 192.037Z" fill="#E6E6E6"/>
<path d="M103.302 218.009C107.929 218.009 111.679 214.337 111.679 209.808C111.679 205.278 107.929 201.606 103.302 201.606C98.6761 201.606 94.9258 205.278 94.9258 209.808C94.9258 214.337 98.6761 218.009 103.302 218.009Z" fill="#6C63FF"/>
<path d="M138.205 218.009C142.831 218.009 146.581 214.337 146.581 209.808C146.581 205.278 142.831 201.606 138.205 201.606C133.578 201.606 129.828 205.278 129.828 209.808C129.828 214.337 133.578 218.009 138.205 218.009Z" fill="#6C63FF"/>
<path d="M173.107 218.009C177.733 218.009 181.484 214.337 181.484 209.808C181.484 205.278 177.733 201.606 173.107 201.606C168.481 201.606 164.73 205.278 164.73 209.808C164.73 214.337 168.481 218.009 173.107 218.009Z" fill="#6C63FF"/>
<path d="M208.009 218.009C212.636 218.009 216.386 214.337 216.386 209.808C216.386 205.278 212.636 201.606 208.009 201.606C203.383 201.606 199.633 205.278 199.633 209.808C199.633 214.337 203.383 218.009 208.009 218.009Z" fill="#E6E6E6"/>
<path d="M242.912 218.009C247.538 218.009 251.288 214.337 251.288 209.808C251.288 205.278 247.538 201.606 242.912 201.606C238.285 201.606 234.535 205.278 234.535 209.808C234.535 214.337 238.285 218.009 242.912 218.009Z" fill="#E6E6E6"/>
<path d="M277.814 218.009C282.44 218.009 286.191 214.337 286.191 209.808C286.191 205.278 282.44 201.606 277.814 201.606C273.188 201.606 269.438 205.278 269.438 209.808C269.438 214.337 273.188 218.009 277.814 218.009Z" fill="#E6E6E6"/>
<path d="M312.716 218.009C317.343 218.009 321.093 214.337 321.093 209.808C321.093 205.278 317.343 201.606 312.716 201.606C308.09 201.606 304.34 205.278 304.34 209.808C304.34 214.337 308.09 218.009 312.716 218.009Z" fill="#E6E6E6"/>
<path d="M103.302 243.98C107.929 243.98 111.679 240.308 111.679 235.779C111.679 231.249 107.929 227.577 103.302 227.577C98.6761 227.577 94.9258 231.249 94.9258 235.779C94.9258 240.308 98.6761 243.98 103.302 243.98Z" fill="#E6E6E6"/>
<path d="M138.205 243.98C142.831 243.98 146.581 240.308 146.581 235.779C146.581 231.249 142.831 227.577 138.205 227.577C133.578 227.577 129.828 231.249 129.828 235.779C129.828 240.308 133.578 243.98 138.205 243.98Z" fill="#E6E6E6"/>
<path d="M103.302 269.952C107.929 269.952 111.679 266.28 111.679 261.75C111.679 257.221 107.929 253.549 103.302 253.549C98.6761 253.549 94.9258 257.221 94.9258 261.75C94.9258 266.28 98.6761 269.952 103.302 269.952Z" fill="#E6E6E6"/>
<path d="M138.205 269.952C142.831 269.952 146.581 266.28 146.581 261.75C146.581 257.221 142.831 253.549 138.205 253.549C133.578 253.549 129.828 257.221 129.828 261.75C129.828 266.28 133.578 269.952 138.205 269.952Z" fill="#E6E6E6"/>
<path d="M173.107 269.952C177.733 269.952 181.484 266.28 181.484 261.75C181.484 257.221 177.733 253.549 173.107 253.549C168.481 253.549 164.73 257.221 164.73 261.75C164.73 266.28 168.481 269.952 173.107 269.952Z" fill="#E6E6E6"/>
<path d="M173.107 243.98C177.733 243.98 181.484 240.308 181.484 235.779C181.484 231.249 177.733 227.577 173.107 227.577C168.481 227.577 164.73 231.249 164.73 235.779C164.73 240.308 168.481 243.98 173.107 243.98Z" fill="#E6E6E6"/>
<path d="M208.009 243.98C212.636 243.98 216.386 240.308 216.386 235.779C216.386 231.249 212.636 227.577 208.009 227.577C203.383 227.577 199.633 231.249 199.633 235.779C199.633 240.308 203.383 243.98 208.009 243.98Z" fill="#6C63FF"/>
<path d="M242.912 243.98C247.538 243.98 251.288 240.308 251.288 235.779C251.288 231.249 247.538 227.577 242.912 227.577C238.285 227.577 234.535 231.249 234.535 235.779C234.535 240.308 238.285 243.98 242.912 243.98Z" fill="#6C63FF"/>
<path d="M277.814 243.98C282.44 243.98 286.191 240.308 286.191 235.779C286.191 231.249 282.44 227.577 277.814 227.577C273.188 227.577 269.438 231.249 269.438 235.779C269.438 240.308 273.188 243.98 277.814 243.98Z" fill="#6C63FF"/>
<path d="M312.716 243.98C317.343 243.98 321.093 240.308 321.093 235.779C321.093 231.249 317.343 227.577 312.716 227.577C308.09 227.577 304.34 231.249 304.34 235.779C304.34 240.308 308.09 243.98 312.716 243.98Z" fill="#E6E6E6"/>
<path d="M144.599 85.3689C143.271 85.3903 142.005 85.9216 141.074 86.8484C140.143 87.7753 139.621 89.0232 139.621 90.3233C139.621 91.6234 140.143 92.8713 141.074 93.7982C142.005 94.725 143.271 95.2563 144.599 95.2777H271.473C272.138 95.2891 272.798 95.1721 273.417 94.9333C274.036 94.6946 274.601 94.3387 275.079 93.8861C275.557 93.4336 275.939 92.8931 276.204 92.2958C276.469 91.6984 276.611 91.0558 276.622 90.4047C276.633 89.7537 276.512 89.1068 276.268 88.5013C276.023 87.8957 275.659 87.3433 275.196 86.8756C274.734 86.4079 274.181 86.0341 273.571 85.7756C272.96 85.517 272.304 85.3788 271.639 85.3689C271.584 85.3679 271.528 85.3679 271.473 85.3689H144.599Z" fill="#3F3D56"/>
<path d="M300.246 83.9896C300.154 84.0802 300.08 84.1877 300.03 84.3059C299.98 84.4242 299.954 84.551 299.954 84.679C299.954 84.8071 299.98 84.9338 300.03 85.0521C300.08 85.1704 300.154 85.2779 300.246 85.3684L304.521 89.5537H293.98C293.716 89.5537 293.463 89.6564 293.276 89.8392C293.089 90.022 292.984 90.27 292.984 90.5286C292.984 90.7872 293.089 91.0351 293.276 91.218C293.463 91.4008 293.716 91.5035 293.98 91.5035H304.521L300.246 95.6888C300.154 95.7793 300.08 95.8868 300.03 96.005C299.98 96.1233 299.954 96.2501 299.954 96.3781C299.954 96.5062 299.98 96.6329 300.03 96.7512C300.08 96.8695 300.154 96.977 300.246 97.0675C300.339 97.1581 300.448 97.2299 300.569 97.2789C300.69 97.3279 300.819 97.3531 300.95 97.3531C301.081 97.3531 301.21 97.3279 301.331 97.2789C301.452 97.2299 301.562 97.1581 301.654 97.0675L307.629 91.218C307.815 91.0351 307.92 90.7872 307.92 90.5286C307.92 90.27 307.815 90.0221 307.629 89.8392L301.654 83.9896C301.562 83.8991 301.452 83.8273 301.331 83.7783C301.21 83.7293 301.081 83.7041 300.95 83.7041C300.819 83.7041 300.69 83.7293 300.569 83.7783C300.448 83.8273 300.339 83.8991 300.246 83.9896Z" fill="#E6E6E6"/>
<path d="M115.774 83.9897C115.866 84.0802 115.94 84.1877 115.99 84.306C116.04 84.4242 116.065 84.551 116.065 84.679C116.065 84.8071 116.04 84.9339 115.99 85.0521C115.94 85.1704 115.866 85.2779 115.774 85.3684L111.499 89.5537H122.04C122.304 89.5537 122.557 89.6564 122.744 89.8392C122.931 90.0221 123.036 90.27 123.036 90.5286C123.036 90.7872 122.931 91.0352 122.744 91.218C122.557 91.4008 122.304 91.5035 122.04 91.5035H111.499L115.774 95.6888C115.961 95.8716 116.065 96.1196 116.065 96.3782C116.065 96.6367 115.961 96.8847 115.774 97.0675C115.587 97.2504 115.334 97.3531 115.07 97.3531C114.806 97.3531 114.552 97.2504 114.366 97.0675L108.391 91.218C108.205 91.0352 108.1 90.7872 108.1 90.5286C108.1 90.27 108.205 90.0221 108.391 89.8392L114.366 83.9897C114.458 83.8991 114.568 83.8273 114.689 83.7783C114.809 83.7293 114.939 83.7041 115.07 83.7041C115.2 83.7041 115.33 83.7293 115.451 83.7783C115.572 83.8273 115.681 83.8991 115.774 83.9897Z" fill="#E6E6E6"/>
<path d="M137.507 322.298C135.123 322.297 132.762 322.755 130.558 323.648C128.355 324.54 126.353 325.848 124.666 327.499C122.979 329.149 121.641 331.109 120.728 333.265C119.816 335.422 119.346 337.734 119.346 340.068C119.346 342.403 119.816 344.715 120.728 346.871C121.641 349.028 122.979 350.988 124.666 352.638C126.353 354.288 128.355 355.597 130.558 356.489C132.762 357.381 135.123 357.84 137.507 357.838H278.513C280.897 357.84 283.258 357.381 285.462 356.489C287.665 355.597 289.668 354.288 291.354 352.638C293.041 350.988 294.379 349.028 295.292 346.871C296.204 344.715 296.674 342.403 296.674 340.068C296.674 337.734 296.204 335.422 295.292 333.265C294.379 331.109 293.041 329.149 291.354 327.499C289.668 325.848 287.665 324.54 285.462 323.648C283.258 322.755 280.897 322.297 278.513 322.298H137.507Z" fill="#E6E6E6"/>
<path d="M29.1664 58.0941C23.3978 58.0941 17.7588 56.4192 12.9624 53.2813C8.16603 50.1435 4.42771 45.6834 2.22017 40.4653C0.0126379 35.2472 -0.564954 29.5053 0.560437 23.9658C1.68583 18.4263 4.46365 13.3379 8.54264 9.34416C12.6216 5.35038 17.8186 2.63059 23.4763 1.52871C29.134 0.426831 34.9984 0.99235 40.3279 3.15376C45.6573 5.31518 50.2125 8.97541 53.4173 13.6716C56.6222 18.3678 58.3328 23.889 58.3328 29.537C58.324 37.1082 55.2483 44.3668 49.7805 49.7205C44.3126 55.0741 36.8991 58.0855 29.1664 58.0941Z" fill="#6C63FF"/>
<path d="M40.675 26.7201H32.0438V18.2692C32.0438 17.522 31.7407 16.8055 31.2011 16.2772C30.6616 15.7489 29.9298 15.4521 29.1667 15.4521C28.4037 15.4521 27.6718 15.7489 27.1323 16.2772C26.5927 16.8055 26.2896 17.522 26.2896 18.2692V26.7201H17.6583C16.8953 26.7201 16.1635 27.0169 15.6239 27.5452C15.0844 28.0735 14.7812 28.79 14.7812 29.5371C14.7812 30.2842 15.0844 31.0007 15.6239 31.529C16.1635 32.0573 16.8953 32.3541 17.6583 32.3541H26.2896V40.805C26.2896 41.5521 26.5927 42.2686 27.1323 42.7969C27.6718 43.3252 28.4037 43.622 29.1667 43.622C29.9298 43.622 30.6616 43.3252 31.2011 42.7969C31.7407 42.2686 32.0438 41.5521 32.0438 40.805V32.3541H40.675C41.438 32.3541 42.1698 32.0573 42.7094 31.529C43.2489 31.0007 43.552 30.2842 43.552 29.5371C43.552 28.79 43.2489 28.0735 42.7094 27.5452C42.1698 27.0169 41.438 26.7201 40.675 26.7201Z" fill="white"/>
</g>
<defs>
<clipPath id="clip0_156_193">
<rect width="660" height="562.261" fill="white" transform="translate(0 0.97998)"/>
</clipPath>
</defs>
</svg>
