<svg width="660" height="543" viewBox="0 0 660 543" fill="none" xmlns="http://www.w3.org/2000/svg">
<g clip-path="url(#clip0_155_921)">
<path d="M541.734 325.049C542.17 324.89 542.616 324.773 543.068 324.699L561.09 279.833L555.588 269.727L566.952 257.56L581.236 278.976L552.143 330.852C552.859 332.814 553.07 334.996 552.749 337.109C552.428 339.222 551.589 341.164 550.345 342.679C549.1 344.193 547.509 345.208 545.782 345.587C544.056 345.967 542.276 345.693 540.68 344.803C539.083 343.913 537.745 342.449 536.845 340.605C535.944 338.761 535.523 336.624 535.638 334.48C535.752 332.336 536.397 330.285 537.486 328.6C538.575 326.915 540.057 325.677 541.734 325.049V325.049Z" fill="#A0616A"/>
<path d="M572.499 263.758C572.254 264.075 571.972 264.347 571.663 264.565L553.223 277.662C552.78 277.977 552.289 278.176 551.779 278.246C551.27 278.316 550.755 278.256 550.266 278.069C549.777 277.883 549.324 277.574 548.937 277.162C548.551 276.751 548.238 276.245 548.019 275.678L539.05 252.464C538.669 251.487 538.587 250.375 538.819 249.33C539.051 248.285 539.582 247.377 540.316 246.772L551.746 237.245C552.46 236.651 553.321 236.38 554.18 236.48C555.039 236.58 555.843 237.045 556.452 237.793L572.429 257.437C573.109 258.273 573.496 259.4 573.509 260.58C573.522 261.76 573.16 262.899 572.499 263.758H572.499Z" fill="#CCCCCC"/>
<path d="M598.39 520.848L588.654 524.094L573.803 479.63L588.172 474.84L598.39 520.848Z" fill="#A0616A"/>
<path d="M580.943 523.004L599.719 516.745L602.936 531.23L572.338 541.429C571.915 539.527 571.803 537.542 572.007 535.587C572.21 533.631 572.727 531.744 573.526 530.033C574.325 528.322 575.391 526.821 576.664 525.615C577.937 524.409 579.391 523.522 580.943 523.004Z" fill="#2F2E41"/>
<path d="M515.161 529.951L505.072 529.95L500.271 482.269L515.163 482.27L515.161 529.951Z" fill="#A0616A"/>
<path d="M497.863 526.418H517.322V541.429H485.611C485.611 539.457 485.928 537.505 486.544 535.684C487.16 533.863 488.062 532.208 489.2 530.815C490.337 529.421 491.688 528.315 493.175 527.561C494.661 526.806 496.254 526.418 497.863 526.418Z" fill="#2F2E41"/>
<path d="M525.792 221.417C536.955 221.417 546.005 210.329 546.005 196.652C546.005 182.974 536.955 171.887 525.792 171.887C514.628 171.887 505.578 182.974 505.578 196.652C505.578 210.329 514.628 221.417 525.792 221.417Z" fill="#A0616A"/>
<path d="M514.542 495.954H500.754C499.812 495.952 498.905 495.511 498.218 494.721C497.531 493.93 497.115 492.849 497.054 491.697C492.946 411.675 495.349 354.274 504.617 311.054C504.658 310.865 504.708 310.679 504.767 310.497L505.506 308.235C505.779 307.392 506.253 306.668 506.866 306.159C507.48 305.65 508.204 305.38 508.945 305.383H537.298C537.833 305.382 538.361 305.524 538.846 305.797C539.331 306.071 539.763 306.47 540.11 306.967L543.961 312.473C544.037 312.58 544.107 312.689 544.174 312.804C561.54 342.475 577.103 400.482 595.128 478.449C595.394 479.582 595.288 480.797 594.833 481.836C594.379 482.876 593.611 483.656 592.693 484.011L577.875 489.821C577.024 490.149 576.106 490.092 575.287 489.661C574.467 489.229 573.801 488.452 573.41 487.469L534.958 389.756C534.689 389.074 534.248 388.515 533.7 388.163C533.151 387.811 532.525 387.685 531.914 387.804C531.303 387.922 530.739 388.278 530.306 388.82C529.873 389.362 529.594 390.06 529.51 390.811L518.212 492.031C518.088 493.117 517.648 494.111 516.974 494.831C516.3 495.552 515.437 495.951 514.542 495.954Z" fill="#2F2E41"/>
<path d="M542.408 312.876C542.37 312.876 542.331 312.875 542.292 312.874L507.851 311.542C506.966 311.511 506.119 311.092 505.465 310.36C504.811 309.628 504.393 308.632 504.289 307.555C499.923 264.256 511.897 252.657 517.247 249.68C517.694 249.433 518.082 249.048 518.372 248.564C518.662 248.079 518.845 247.511 518.903 246.914L519.366 242.376C519.445 241.574 519.698 240.813 520.098 240.172C528.487 226.857 539.943 222.593 546.024 221.237C546.518 221.129 547.024 221.144 547.512 221.283C548 221.421 548.461 221.68 548.865 222.043C549.269 222.406 549.609 222.866 549.863 223.394C550.118 223.923 550.282 224.51 550.346 225.119L551.04 231.636C551.11 232.257 551.313 232.845 551.627 233.341C569.123 261.364 549.631 302.741 545.546 310.75C545.213 311.4 544.75 311.937 544.201 312.308C543.652 312.68 543.035 312.875 542.408 312.876Z" fill="#CCCCCC"/>
<path d="M566.573 199.44C562.063 191.661 556.656 184.725 550.52 178.85C545.419 173.968 539.741 169.798 533.476 167.803C527.211 165.807 520.293 166.147 514.578 169.869C508.862 173.59 502.952 180.985 502.916 188.915C502.905 191.463 503.434 194.91 505.482 194.469L506.074 194.565C511.014 193.343 515.954 192.12 520.893 190.898C522.998 199.843 525.102 208.789 527.205 217.735C527.649 219.62 528.244 221.729 529.704 222.533C531.08 223.29 532.671 222.576 534.063 221.864C534.292 221.747 536.259 216.337 536.259 216.337C536.308 216.168 536.393 216.018 536.506 215.903C536.618 215.788 536.754 215.711 536.898 215.682C537.043 215.652 537.191 215.67 537.328 215.734C537.465 215.799 537.585 215.906 537.677 216.046L538.845 217.836C539.069 218.178 539.377 218.421 539.723 218.53C540.069 218.638 540.435 218.606 540.765 218.437C548.82 214.317 556.876 210.197 564.932 206.076C566.045 205.507 567.29 204.763 567.613 203.339C567.922 201.975 567.241 200.595 566.573 199.44Z" fill="#2F2E41"/>
<path d="M659.176 542.337H411.456C411.238 542.337 411.028 542.231 410.874 542.042C410.72 541.852 410.633 541.596 410.633 541.329C410.633 541.061 410.72 540.805 410.874 540.616C411.028 540.427 411.238 540.32 411.456 540.32H659.176C659.394 540.32 659.604 540.427 659.758 540.616C659.912 540.805 659.999 541.061 659.999 541.329C659.999 541.596 659.912 541.852 659.758 542.042C659.604 542.231 659.394 542.337 659.176 542.337Z" fill="#3F3D56"/>
<path d="M524.878 385.205C524.318 385.203 523.774 384.982 523.323 384.575L519.577 381.24C519.266 380.962 518.891 380.812 518.507 380.812C518.122 380.812 517.747 380.962 517.436 381.24L513.69 384.575C513.238 384.977 512.694 385.193 512.135 385.193C511.577 385.193 511.033 384.977 510.581 384.575C510.129 384.173 509.793 383.606 509.62 382.955C509.447 382.304 509.447 381.603 509.62 380.952L511.051 375.557C511.171 375.109 511.171 374.626 511.052 374.177C510.933 373.729 510.701 373.338 510.389 373.062L506.643 369.727C506.191 369.324 505.855 368.757 505.682 368.106C505.51 367.456 505.51 366.755 505.682 366.104C505.855 365.453 506.191 364.886 506.643 364.484C507.095 364.082 507.639 363.865 508.197 363.865H512.828C513.213 363.866 513.588 363.717 513.899 363.44C514.211 363.163 514.442 362.772 514.56 362.323L515.991 356.928C516.164 356.277 516.5 355.71 516.952 355.307C517.404 354.905 517.948 354.688 518.506 354.688C519.065 354.688 519.609 354.905 520.061 355.307C520.513 355.71 520.849 356.277 521.022 356.928L522.453 362.323C522.571 362.772 522.802 363.163 523.114 363.44C523.425 363.717 523.8 363.866 524.185 363.865H528.816C529.374 363.865 529.918 364.082 530.37 364.484C530.822 364.886 531.158 365.453 531.331 366.104C531.503 366.755 531.503 367.456 531.331 368.106C531.158 368.757 530.822 369.324 530.37 369.727L526.624 373.061C526.312 373.338 526.08 373.728 525.961 374.177C525.842 374.625 525.842 375.109 525.962 375.557L527.393 380.952C527.572 381.603 527.575 382.306 527.402 382.958C527.229 383.611 526.889 384.178 526.432 384.575C525.982 384.982 525.438 385.202 524.878 385.205Z" fill="#6C63FF"/>
<path d="M539.194 374.419C540.253 373.509 541.135 372.327 541.78 370.954C542.425 369.582 542.816 368.053 542.927 366.475C543.037 364.897 542.864 363.309 542.419 361.822C541.974 360.336 541.269 358.986 540.352 357.87L546.749 263.218L527.702 266.428L527.34 358.391C525.911 360.402 525.133 362.985 525.155 365.651C525.176 368.317 525.995 370.88 527.457 372.856C528.918 374.832 530.92 376.082 533.083 376.37C535.247 376.658 537.421 375.964 539.194 374.419Z" fill="#A0616A"/>
<path d="M547.994 276.847C547.638 276.847 547.283 276.784 546.941 276.66L526.493 269.291C526.001 269.114 525.545 268.814 525.153 268.41C524.761 268.006 524.442 267.507 524.215 266.944C523.989 266.381 523.86 265.766 523.838 265.139C523.815 264.512 523.899 263.886 524.084 263.301L531.651 239.349C531.967 238.338 532.569 237.499 533.347 236.986C534.126 236.473 535.029 236.32 535.892 236.555L549.401 240.153C550.244 240.378 550.997 240.956 551.529 241.789C552.061 242.621 552.34 243.655 552.316 244.712L551.688 272.433C551.661 273.612 551.26 274.732 550.571 275.556C549.881 276.38 548.957 276.843 547.994 276.847H547.994Z" fill="#CCCCCC"/>
<path d="M355.532 395.124H5.76094C4.23357 395.121 2.76925 394.377 1.68923 393.054C0.609217 391.731 0.00171431 389.937 0 388.065V260.009C0.00171431 258.138 0.609217 256.344 1.68923 255.021C2.76925 253.698 4.23357 252.953 5.76094 252.951H355.532C357.06 252.953 358.524 253.698 359.604 255.021C360.684 256.344 361.292 258.138 361.293 260.009V388.065C361.292 389.937 360.684 391.731 359.604 393.054C358.524 394.377 357.06 395.121 355.532 395.124ZM5.76094 254.968C4.66997 254.969 3.62406 255.501 2.85263 256.446C2.0812 257.391 1.64725 258.673 1.64598 260.009V388.065C1.64725 389.402 2.0812 390.683 2.85263 391.629C3.62406 392.574 4.66997 393.105 5.76094 393.107H355.532C356.623 393.105 357.669 392.574 358.441 391.629C359.212 390.683 359.646 389.402 359.647 388.065V260.009C359.646 258.673 359.212 257.391 358.441 256.446C357.669 255.501 356.623 254.969 355.532 254.968H5.76094Z" fill="#3F3D56"/>
<path d="M158.817 449.043C158.131 449.039 157.464 448.769 156.913 448.27L152.323 444.185C151.942 443.844 151.483 443.661 151.012 443.661C150.54 443.661 150.081 443.844 149.7 444.185L145.111 448.27C144.557 448.763 143.891 449.028 143.206 449.028C142.522 449.028 141.856 448.763 141.302 448.27C140.749 447.778 140.337 447.083 140.125 446.286C139.914 445.489 139.914 444.63 140.125 443.833L141.878 437.223C142.025 436.674 142.025 436.082 141.879 435.533C141.734 434.983 141.449 434.504 141.067 434.166L136.478 430.081C135.925 429.588 135.513 428.893 135.301 428.096C135.09 427.299 135.09 426.44 135.301 425.643C135.513 424.846 135.925 424.151 136.478 423.658C137.032 423.166 137.698 422.9 138.382 422.9H144.055C144.527 422.901 144.986 422.719 145.368 422.379C145.749 422.04 146.033 421.561 146.177 421.011L147.93 414.401C148.142 413.604 148.554 412.909 149.107 412.416C149.661 411.924 150.327 411.658 151.012 411.658C151.696 411.658 152.362 411.924 152.916 412.416C153.47 412.909 153.882 413.604 154.093 414.401L155.846 421.011C155.991 421.561 156.274 422.04 156.656 422.379C157.037 422.719 157.497 422.901 157.968 422.9H163.641C164.325 422.9 164.992 423.166 165.545 423.658C166.098 424.151 166.51 424.846 166.722 425.643C166.933 426.44 166.933 427.299 166.722 428.096C166.51 428.893 166.098 429.588 165.545 430.081L160.956 434.166C160.574 434.504 160.289 434.983 160.144 435.533C159.998 436.082 159.999 436.674 160.145 437.223L161.898 443.833C162.117 444.629 162.121 445.491 161.909 446.29C161.697 447.09 161.28 447.784 160.721 448.27C160.169 448.769 159.502 449.039 158.817 449.043Z" fill="#6C63FF"/>
<path d="M205.323 449.043C204.637 449.039 203.97 448.769 203.418 448.27L198.829 444.185C198.448 443.844 197.989 443.661 197.517 443.661C197.046 443.661 196.586 443.844 196.206 444.185L191.616 448.27C191.063 448.763 190.396 449.028 189.712 449.028C189.028 449.028 188.361 448.763 187.808 448.27C187.254 447.778 186.842 447.083 186.631 446.286C186.419 445.489 186.419 444.63 186.631 443.833L188.384 437.223C188.53 436.674 188.531 436.082 188.385 435.533C188.239 434.983 187.955 434.504 187.573 434.166L182.984 430.081C182.43 429.588 182.018 428.893 181.807 428.096C181.596 427.299 181.596 426.44 181.807 425.643C182.018 424.846 182.43 424.151 182.984 423.658C183.537 423.166 184.204 422.9 184.888 422.9H190.561C191.032 422.901 191.492 422.719 191.873 422.379C192.255 422.04 192.538 421.561 192.683 421.011L194.436 414.401C194.647 413.604 195.059 412.909 195.613 412.416C196.166 411.924 196.833 411.658 197.517 411.658C198.201 411.658 198.868 411.924 199.422 412.416C199.975 412.909 200.387 413.604 200.598 414.401L202.351 421.011C202.496 421.561 202.78 422.04 203.161 422.379C203.543 422.719 204.002 422.901 204.474 422.9H210.146C210.831 422.9 211.497 423.166 212.051 423.658C212.604 424.151 213.016 424.846 213.228 425.643C213.439 426.44 213.439 427.299 213.228 428.096C213.016 428.893 212.604 429.588 212.051 430.081L207.461 434.166C207.079 434.504 206.795 434.983 206.649 435.532C206.504 436.082 206.504 436.674 206.651 437.223L208.404 443.833C208.623 444.629 208.627 445.491 208.415 446.29C208.203 447.09 207.786 447.784 207.227 448.27C206.675 448.769 206.008 449.039 205.323 449.043Z" fill="#6C63FF"/>
<path d="M251.828 449.043C251.143 449.039 250.476 448.769 249.924 448.27L245.335 444.185C244.954 443.845 244.495 443.662 244.023 443.662C243.552 443.662 243.093 443.845 242.711 444.185L238.122 448.27C237.569 448.763 236.902 449.028 236.218 449.028C235.534 449.028 234.867 448.763 234.314 448.27C233.76 447.778 233.348 447.083 233.137 446.286C232.925 445.489 232.925 444.63 233.137 443.833L234.889 437.223C235.036 436.674 235.037 436.082 234.891 435.533C234.745 434.983 234.461 434.504 234.079 434.166L229.49 430.081C228.936 429.588 228.524 428.893 228.313 428.096C228.101 427.299 228.101 426.44 228.313 425.643C228.524 424.846 228.936 424.151 229.49 423.658C230.043 423.166 230.71 422.9 231.394 422.9H237.067C237.538 422.901 237.998 422.719 238.379 422.379C238.76 422.04 239.044 421.561 239.189 421.011L240.942 414.401C241.153 413.604 241.565 412.909 242.119 412.416C242.672 411.924 243.339 411.658 244.023 411.658C244.707 411.658 245.374 411.924 245.928 412.416C246.481 412.909 246.893 413.604 247.104 414.401L248.857 421.011C249.002 421.561 249.286 422.04 249.667 422.379C250.049 422.719 250.508 422.901 250.98 422.9H256.652C257.336 422.9 258.003 423.166 258.557 423.658C259.11 424.151 259.522 424.846 259.733 425.643C259.945 426.44 259.945 427.299 259.733 428.096C259.522 428.893 259.11 429.588 258.557 430.081L253.967 434.166C253.585 434.504 253.301 434.983 253.155 435.533C253.01 436.082 253.01 436.674 253.157 437.223L254.91 443.833C255.129 444.629 255.133 445.491 254.921 446.29C254.709 447.089 254.292 447.784 253.733 448.27C253.181 448.769 252.514 449.039 251.828 449.043Z" fill="#6C63FF"/>
<path d="M298.334 449.043C297.649 449.039 296.982 448.769 296.43 448.27L291.841 444.185C291.46 443.844 291.001 443.661 290.529 443.661C290.058 443.661 289.598 443.844 289.218 444.185L284.628 448.27C284.075 448.763 283.408 449.028 282.724 449.028C282.04 449.028 281.373 448.763 280.82 448.27C280.266 447.778 279.854 447.083 279.643 446.286C279.431 445.489 279.431 444.63 279.643 443.833L281.396 437.223C281.542 436.674 281.543 436.082 281.397 435.533C281.251 434.983 280.967 434.505 280.585 434.166L275.995 430.081C275.442 429.588 275.03 428.893 274.819 428.096C274.607 427.299 274.607 426.44 274.819 425.643C275.03 424.846 275.442 424.151 275.996 423.658C276.549 423.166 277.216 422.9 277.9 422.9H283.572C284.044 422.901 284.504 422.719 284.885 422.379C285.266 422.04 285.55 421.561 285.695 421.011L287.448 414.401C287.659 413.604 288.071 412.909 288.625 412.416C289.178 411.924 289.845 411.658 290.529 411.658C291.213 411.658 291.88 411.924 292.433 412.416C292.987 412.909 293.399 413.604 293.61 414.401L295.363 421.011C295.508 421.561 295.792 422.04 296.173 422.379C296.554 422.719 297.014 422.901 297.485 422.9H303.158C303.842 422.9 304.509 423.166 305.062 423.658C305.616 424.151 306.028 424.846 306.239 425.643C306.451 426.44 306.451 427.299 306.239 428.096C306.028 428.893 305.616 429.588 305.062 430.081L300.473 434.166C300.091 434.504 299.807 434.983 299.661 435.533C299.516 436.082 299.516 436.674 299.663 437.223L301.416 443.833C301.635 444.629 301.639 445.491 301.427 446.29C301.215 447.089 300.798 447.784 300.239 448.27C299.687 448.769 299.02 449.039 298.334 449.043Z" fill="#6C63FF"/>
<path d="M329.23 449.434C328.477 449.431 327.745 449.134 327.139 448.587C326.524 448.052 326.067 447.289 325.834 446.411C325.601 445.533 325.605 444.586 325.846 443.711L327.599 437.102C327.724 436.631 327.725 436.124 327.6 435.653C327.475 435.182 327.231 434.772 326.904 434.482L322.315 430.397C321.707 429.855 321.254 429.092 321.022 428.216C320.79 427.341 320.79 426.397 321.022 425.522C321.254 424.646 321.707 423.883 322.315 423.342C322.923 422.801 323.655 422.509 324.407 422.509H330.079C330.483 422.51 330.877 422.354 331.204 422.063C331.531 421.772 331.774 421.361 331.898 420.89L333.651 414.28C333.884 413.405 334.336 412.641 334.944 412.1C335.552 411.559 336.284 411.268 337.036 411.268C337.787 411.268 338.52 411.559 339.127 412.1C339.735 412.641 340.188 413.405 340.42 414.28L342.173 420.89C342.297 421.361 342.54 421.772 342.867 422.063C343.194 422.354 343.588 422.51 343.992 422.509H349.665C350.416 422.509 351.149 422.801 351.757 423.342C352.364 423.883 352.817 424.646 353.049 425.522C353.281 426.398 353.282 427.341 353.049 428.216C352.817 429.092 352.365 429.855 351.757 430.397L347.167 434.482C346.84 434.772 346.596 435.182 346.471 435.653C346.346 436.124 346.347 436.631 346.472 437.102L348.225 443.711C348.458 444.587 348.458 445.53 348.225 446.406C347.993 447.282 347.54 448.045 346.932 448.586C346.324 449.127 345.592 449.419 344.841 449.419C344.089 449.419 343.357 449.127 342.749 448.586L338.16 444.501C337.833 444.209 337.44 444.052 337.036 444.052C336.631 444.052 336.238 444.209 335.911 444.501L331.322 448.586C330.716 449.134 329.983 449.431 329.23 449.434ZM337.036 442.035C337.787 442.035 338.52 442.327 339.127 442.87L343.716 446.955C344.043 447.246 344.437 447.402 344.841 447.402C345.245 447.403 345.638 447.246 345.965 446.955C346.292 446.664 346.535 446.254 346.66 445.783C346.785 445.312 346.785 444.805 346.66 444.335L344.907 437.725C344.673 436.85 344.673 435.906 344.905 435.03C345.137 434.153 345.591 433.39 346.2 432.85L350.789 428.765C351.116 428.474 351.359 428.064 351.484 427.593C351.609 427.123 351.609 426.616 351.484 426.145C351.359 425.674 351.116 425.264 350.789 424.973C350.462 424.683 350.069 424.526 349.665 424.526H343.992C343.24 424.528 342.507 424.237 341.899 423.695C341.291 423.154 340.839 422.39 340.608 421.513L338.855 414.904C338.73 414.433 338.487 414.023 338.16 413.732C337.833 413.441 337.439 413.284 337.036 413.284C336.632 413.284 336.238 413.441 335.911 413.732C335.584 414.023 335.341 414.433 335.216 414.904L333.463 421.513C333.232 422.39 332.78 423.154 332.172 423.695C331.564 424.237 330.831 424.528 330.079 424.526H324.406C324.003 424.526 323.609 424.683 323.282 424.973C322.955 425.264 322.712 425.674 322.587 426.145C322.462 426.616 322.462 427.123 322.587 427.593C322.712 428.064 322.955 428.474 323.282 428.765L327.872 432.85C328.481 433.391 328.934 434.154 329.166 435.03C329.399 435.906 329.398 436.85 329.164 437.725L327.411 444.335C327.286 444.805 327.286 445.312 327.411 445.783C327.536 446.254 327.779 446.664 328.106 446.955C328.433 447.246 328.826 447.402 329.23 447.402C329.634 447.402 330.028 447.245 330.354 446.955L334.944 442.87C335.552 442.327 336.284 442.035 337.036 442.035Z" fill="#3F3D56"/>
<path d="M45.2655 283.2C43.8467 283.2 42.486 283.891 41.4828 285.12C40.4796 286.349 39.916 288.016 39.916 289.754C39.916 291.492 40.4796 293.16 41.4828 294.389C42.486 295.618 43.8467 296.308 45.2655 296.308H316.03C317.448 296.308 318.809 295.618 319.812 294.389C320.815 293.16 321.379 291.492 321.379 289.754C321.379 288.016 320.815 286.349 319.812 285.12C318.809 283.891 317.448 283.2 316.03 283.2H45.2655Z" fill="#CCCCCC"/>
<path d="M45.2655 317.482C43.8467 317.482 42.486 318.173 41.4828 319.402C40.4796 320.631 39.916 322.298 39.916 324.036C39.916 325.775 40.4796 327.442 41.4828 328.671C42.486 329.9 43.8467 330.591 45.2655 330.591H316.03C317.448 330.591 318.809 329.9 319.812 328.671C320.815 327.442 321.379 325.775 321.379 324.036C321.379 322.298 320.815 320.631 319.812 319.402C318.809 318.173 317.448 317.482 316.03 317.482H45.2655Z" fill="#CCCCCC"/>
<path d="M45.2655 351.766C43.8467 351.766 42.486 352.456 41.4828 353.685C40.4796 354.914 39.916 356.581 39.916 358.32C39.916 360.058 40.4796 361.725 41.4828 362.954C42.486 364.183 43.8467 364.874 45.2655 364.874H316.03C317.448 364.874 318.809 364.183 319.812 362.954C320.815 361.725 321.379 360.058 321.379 358.32C321.379 356.581 320.815 354.914 319.812 353.685C318.809 352.456 317.448 351.766 316.03 351.766H45.2655Z" fill="#CCCCCC"/>
<path d="M45.2655 283.2C43.8467 283.2 42.486 283.891 41.4828 285.12C40.4796 286.349 39.916 288.016 39.916 289.754C39.916 291.492 40.4796 293.16 41.4828 294.389C42.486 295.618 43.8467 296.308 45.2655 296.308H316.03C317.448 296.308 318.809 295.618 319.812 294.389C320.815 293.16 321.379 291.492 321.379 289.754C321.379 288.016 320.815 286.349 319.812 285.12C318.809 283.891 317.448 283.2 316.03 283.2H45.2655Z" fill="#CCCCCC"/>
<path d="M45.2655 317.482C43.8467 317.482 42.486 318.173 41.4828 319.402C40.4796 320.631 39.916 322.298 39.916 324.036C39.916 325.775 40.4796 327.442 41.4828 328.671C42.486 329.9 43.8467 330.591 45.2655 330.591H316.03C317.448 330.591 318.809 329.9 319.812 328.671C320.815 327.442 321.379 325.775 321.379 324.036C321.379 322.298 320.815 320.631 319.812 319.402C318.809 318.173 317.448 317.482 316.03 317.482H45.2655Z" fill="#CCCCCC"/>
<path d="M45.2655 351.766C43.8467 351.766 42.486 352.456 41.4828 353.685C40.4796 354.914 39.916 356.581 39.916 358.32C39.916 360.058 40.4796 361.725 41.4828 362.954C42.486 364.183 43.8467 364.874 45.2655 364.874H316.03C317.448 364.874 318.809 364.183 319.812 362.954C320.815 361.725 321.379 360.058 321.379 358.32C321.379 356.581 320.815 354.914 319.812 353.685C318.809 352.456 317.448 351.766 316.03 351.766H45.2655Z" fill="#CCCCCC"/>
<path d="M355.532 143.044H5.76094C4.23357 143.042 2.76925 142.298 1.68923 140.975C0.609217 139.652 0.00171431 137.858 0 135.986V7.93027C0.00171431 6.05897 0.609217 4.2649 1.68923 2.94169C2.76925 1.61847 4.23357 0.874171 5.76094 0.87207H355.532C357.06 0.874168 358.524 1.61847 359.604 2.94169C360.684 4.2649 361.292 6.05896 361.293 7.93027V135.986C361.292 137.858 360.684 139.652 359.604 140.975C358.524 142.298 357.06 143.042 355.532 143.044ZM5.76094 2.8887C4.66997 2.89025 3.62406 3.4219 2.85263 4.36705C2.0812 5.31219 1.64725 6.59364 1.64598 7.93027V135.986C1.64725 137.323 2.0812 138.604 2.85263 139.549C3.62406 140.495 4.66997 141.026 5.76094 141.028H355.532C356.623 141.026 357.669 140.495 358.441 139.549C359.212 138.604 359.646 137.323 359.647 135.986V7.93027C359.646 6.59363 359.212 5.31218 358.441 4.36703C357.669 3.42188 356.623 2.89023 355.532 2.8887H5.76094Z" fill="#3F3D56"/>
<path d="M158.817 196.965C158.131 196.961 157.464 196.691 156.913 196.192L152.323 192.107C151.942 191.766 151.483 191.583 151.012 191.583C150.54 191.583 150.081 191.766 149.7 192.107L145.111 196.192C144.557 196.685 143.891 196.95 143.206 196.95C142.522 196.95 141.856 196.685 141.302 196.192C140.749 195.7 140.337 195.005 140.125 194.208C139.914 193.411 139.914 192.552 140.125 191.755L141.878 185.145C142.025 184.596 142.025 184.004 141.879 183.454C141.734 182.905 141.449 182.426 141.067 182.088L136.478 178.002C135.925 177.51 135.513 176.815 135.301 176.018C135.09 175.221 135.09 174.362 135.301 173.565C135.513 172.768 135.925 172.073 136.478 171.58C137.032 171.087 137.698 170.822 138.382 170.822H144.055C144.527 170.823 144.986 170.641 145.368 170.301C145.749 169.962 146.033 169.483 146.177 168.933L147.93 162.323C148.142 161.526 148.554 160.831 149.107 160.338C149.661 159.846 150.327 159.58 151.012 159.58C151.696 159.58 152.362 159.846 152.916 160.338C153.47 160.831 153.882 161.526 154.093 162.323L155.846 168.933C155.991 169.483 156.274 169.962 156.656 170.301C157.037 170.641 157.497 170.823 157.968 170.822H163.641C164.325 170.822 164.992 171.087 165.545 171.58C166.098 172.073 166.51 172.768 166.722 173.565C166.933 174.362 166.933 175.221 166.722 176.018C166.51 176.815 166.098 177.51 165.545 178.002L160.956 182.088C160.574 182.426 160.289 182.905 160.144 183.454C159.998 184.004 159.999 184.596 160.145 185.145L161.898 191.755C162.117 192.551 162.121 193.413 161.909 194.212C161.697 195.011 161.28 195.706 160.721 196.192C160.169 196.691 159.502 196.961 158.817 196.965Z" fill="#6C63FF"/>
<path d="M205.323 196.965C204.637 196.961 203.97 196.691 203.418 196.192L198.829 192.107C198.448 191.766 197.989 191.583 197.517 191.583C197.046 191.583 196.586 191.766 196.206 192.107L191.616 196.192C191.063 196.685 190.396 196.95 189.712 196.95C189.028 196.95 188.361 196.685 187.808 196.192C187.254 195.7 186.842 195.005 186.631 194.208C186.419 193.411 186.419 192.552 186.631 191.755L188.384 185.145C188.53 184.596 188.531 184.004 188.385 183.454C188.239 182.905 187.955 182.426 187.573 182.088L182.984 178.002C182.43 177.51 182.018 176.815 181.807 176.018C181.596 175.221 181.596 174.362 181.807 173.565C182.018 172.768 182.43 172.073 182.984 171.58C183.537 171.087 184.204 170.822 184.888 170.822H190.561C191.032 170.823 191.492 170.641 191.873 170.301C192.255 169.962 192.538 169.483 192.683 168.933L194.436 162.323C194.647 161.526 195.059 160.831 195.613 160.338C196.166 159.845 196.833 159.58 197.517 159.58C198.201 159.58 198.868 159.845 199.422 160.338C199.975 160.831 200.387 161.526 200.598 162.323L202.351 168.933C202.496 169.483 202.78 169.962 203.161 170.301C203.543 170.641 204.002 170.823 204.474 170.822H210.146C210.831 170.822 211.497 171.087 212.051 171.58C212.604 172.073 213.016 172.768 213.228 173.565C213.439 174.362 213.439 175.221 213.228 176.018C213.016 176.815 212.604 177.51 212.051 178.002L207.461 182.088C207.079 182.426 206.795 182.905 206.649 183.454C206.504 184.004 206.504 184.596 206.651 185.145L208.404 191.755C208.623 192.551 208.627 193.413 208.415 194.212C208.203 195.011 207.786 195.706 207.227 196.192C206.675 196.691 206.008 196.961 205.323 196.965Z" fill="#6C63FF"/>
<path d="M251.828 196.965C251.143 196.961 250.476 196.691 249.924 196.192L245.335 192.107C244.954 191.767 244.495 191.584 244.023 191.584C243.552 191.584 243.093 191.767 242.711 192.107L238.122 196.192C237.569 196.685 236.902 196.95 236.218 196.95C235.534 196.95 234.867 196.685 234.314 196.192C233.76 195.7 233.348 195.005 233.137 194.208C232.925 193.411 232.925 192.552 233.137 191.755L234.889 185.145C235.036 184.596 235.037 184.004 234.891 183.454C234.745 182.905 234.461 182.426 234.079 182.088L229.49 178.002C228.936 177.51 228.524 176.815 228.313 176.018C228.101 175.221 228.101 174.362 228.313 173.565C228.524 172.768 228.936 172.073 229.49 171.58C230.043 171.087 230.71 170.822 231.394 170.822H237.067C237.538 170.823 237.998 170.641 238.379 170.301C238.76 169.962 239.044 169.483 239.189 168.933L240.942 162.323C241.153 161.526 241.565 160.831 242.119 160.338C242.672 159.845 243.339 159.58 244.023 159.58C244.707 159.58 245.374 159.845 245.928 160.338C246.481 160.831 246.893 161.526 247.104 162.323L248.857 168.933C249.002 169.483 249.286 169.962 249.667 170.301C250.049 170.641 250.508 170.823 250.98 170.822H256.652C257.336 170.822 258.003 171.087 258.557 171.58C259.11 172.073 259.522 172.768 259.733 173.565C259.945 174.362 259.945 175.221 259.733 176.018C259.522 176.815 259.11 177.51 258.557 178.002L253.967 182.088C253.585 182.426 253.301 182.905 253.155 183.454C253.01 184.004 253.01 184.596 253.157 185.145L254.91 191.755C255.129 192.551 255.133 193.413 254.921 194.212C254.709 195.011 254.292 195.706 253.733 196.192C253.181 196.691 252.514 196.961 251.828 196.965Z" fill="#6C63FF"/>
<path d="M329.23 197.356C328.477 197.353 327.745 197.056 327.139 196.509C326.524 195.974 326.067 195.211 325.834 194.333C325.601 193.455 325.605 192.508 325.846 191.633L327.599 185.024C327.724 184.553 327.725 184.046 327.6 183.575C327.475 183.104 327.231 182.694 326.904 182.404L322.315 178.318C321.707 177.777 321.254 177.014 321.022 176.138C320.79 175.263 320.79 174.319 321.022 173.444C321.254 172.568 321.707 171.805 322.315 171.264C322.923 170.723 323.655 170.431 324.407 170.431H330.079C330.483 170.432 330.877 170.276 331.204 169.985C331.531 169.694 331.774 169.283 331.898 168.812L333.651 162.202C333.884 161.326 334.336 160.563 334.944 160.022C335.552 159.481 336.284 159.189 337.036 159.189C337.787 159.189 338.52 159.481 339.127 160.022C339.735 160.563 340.188 161.326 340.42 162.202L342.173 168.812C342.297 169.283 342.54 169.694 342.867 169.985C343.194 170.276 343.588 170.432 343.992 170.431H349.665C350.416 170.431 351.149 170.723 351.757 171.264C352.364 171.805 352.817 172.568 353.049 173.444C353.281 174.319 353.282 175.263 353.049 176.138C352.817 177.014 352.365 177.777 351.757 178.318L347.167 182.404C346.84 182.694 346.596 183.104 346.471 183.575C346.346 184.046 346.347 184.553 346.472 185.024L348.225 191.633C348.458 192.509 348.458 193.452 348.225 194.328C347.993 195.204 347.54 195.967 346.932 196.508C346.324 197.049 345.592 197.341 344.841 197.341C344.089 197.341 343.357 197.049 342.749 196.508L338.16 192.423C337.833 192.131 337.44 191.974 337.036 191.974C336.631 191.974 336.238 192.131 335.911 192.423L331.322 196.508C330.716 197.056 329.983 197.353 329.23 197.356ZM337.036 189.956C337.787 189.957 338.52 190.249 339.127 190.791L343.716 194.876C344.043 195.167 344.437 195.324 344.841 195.324C345.245 195.324 345.638 195.168 345.965 194.877C346.292 194.586 346.535 194.176 346.66 193.705C346.785 193.234 346.785 192.727 346.66 192.257L344.907 185.647C344.673 184.771 344.673 183.828 344.905 182.951C345.137 182.075 345.591 181.312 346.2 180.772L350.789 176.687C351.116 176.396 351.359 175.986 351.484 175.515C351.609 175.045 351.609 174.538 351.484 174.067C351.359 173.596 351.116 173.186 350.789 172.895C350.462 172.604 350.069 172.448 349.665 172.448H343.992C343.24 172.45 342.507 172.159 341.899 171.617C341.291 171.076 340.839 170.312 340.608 169.435L338.855 162.825C338.73 162.355 338.487 161.945 338.16 161.654C337.833 161.363 337.439 161.206 337.036 161.206C336.632 161.206 336.238 161.363 335.911 161.654C335.584 161.945 335.341 162.355 335.216 162.825L333.463 169.435C333.232 170.312 332.78 171.076 332.172 171.617C331.564 172.159 330.831 172.45 330.079 172.448H324.406C324.003 172.448 323.609 172.604 323.282 172.895C322.955 173.186 322.712 173.596 322.587 174.067C322.462 174.538 322.462 175.044 322.587 175.515C322.712 175.986 322.955 176.396 323.282 176.687L327.872 180.772C328.481 181.312 328.934 182.076 329.166 182.952C329.399 183.828 329.398 184.771 329.164 185.647L327.411 192.257C327.286 192.727 327.286 193.234 327.411 193.705C327.536 194.176 327.779 194.586 328.106 194.877C328.433 195.167 328.826 195.324 329.23 195.324C329.634 195.324 330.028 195.167 330.354 194.876L334.944 190.791C335.552 190.249 336.284 189.957 337.036 189.956Z" fill="#3F3D56"/>
<path d="M282.32 197.194C281.567 197.19 280.835 196.894 280.229 196.346C279.614 195.812 279.156 195.049 278.924 194.171C278.691 193.293 278.695 192.346 278.936 191.471L280.689 184.861C280.814 184.391 280.815 183.884 280.69 183.413C280.565 182.942 280.321 182.532 279.994 182.242L275.404 178.156C274.796 177.615 274.344 176.852 274.112 175.976C273.879 175.101 273.879 174.157 274.112 173.282C274.344 172.406 274.796 171.643 275.405 171.102C276.013 170.56 276.745 170.269 277.496 170.269H283.169C283.573 170.27 283.967 170.114 284.294 169.823C284.621 169.532 284.864 169.121 284.988 168.65L286.741 162.04C286.973 161.164 287.426 160.401 288.034 159.86C288.642 159.319 289.374 159.027 290.126 159.027C290.877 159.027 291.609 159.319 292.217 159.86C292.825 160.401 293.278 161.164 293.51 162.04L295.263 168.65C295.387 169.121 295.63 169.531 295.957 169.823C296.284 170.114 296.678 170.27 297.082 170.269H302.755C303.506 170.269 304.238 170.561 304.846 171.102C305.454 171.643 305.907 172.406 306.139 173.282C306.371 174.157 306.371 175.101 306.139 175.976C305.907 176.852 305.454 177.615 304.847 178.156L300.257 182.242C299.93 182.532 299.686 182.942 299.561 183.413C299.436 183.884 299.437 184.391 299.562 184.862L301.315 191.471C301.547 192.347 301.547 193.29 301.315 194.166C301.083 195.042 300.63 195.805 300.022 196.346C299.414 196.887 298.682 197.179 297.931 197.179C297.179 197.179 296.447 196.887 295.839 196.346L291.25 192.261C290.923 191.969 290.53 191.812 290.125 191.812C289.721 191.812 289.328 191.969 289.001 192.261L284.412 196.346C283.806 196.893 283.073 197.191 282.32 197.194ZM290.125 189.794C290.877 189.794 291.609 190.087 292.217 190.629L296.806 194.714C297.133 195.005 297.527 195.162 297.93 195.162C298.334 195.162 298.728 195.006 299.055 194.715C299.382 194.424 299.625 194.014 299.75 193.543C299.875 193.072 299.875 192.565 299.75 192.094L297.997 185.485C297.763 184.609 297.762 183.665 297.995 182.789C298.227 181.913 298.681 181.15 299.29 180.61L303.879 176.525C304.206 176.234 304.449 175.824 304.574 175.353C304.698 174.882 304.698 174.375 304.574 173.905C304.449 173.434 304.205 173.024 303.879 172.733C303.552 172.442 303.159 172.286 302.755 172.286H297.082C296.33 172.287 295.597 171.997 294.989 171.455C294.381 170.914 293.928 170.15 293.697 169.273L291.944 162.663C291.82 162.193 291.576 161.782 291.25 161.492C290.923 161.201 290.529 161.044 290.125 161.044C289.721 161.044 289.328 161.201 289.001 161.492C288.674 161.782 288.431 162.193 288.306 162.663L286.553 169.273C286.322 170.15 285.87 170.914 285.262 171.455C284.654 171.997 283.921 172.287 283.169 172.286H277.496C277.092 172.286 276.699 172.442 276.372 172.733C276.045 173.024 275.802 173.434 275.677 173.905C275.552 174.375 275.552 174.882 275.677 175.353C275.802 175.824 276.045 176.234 276.372 176.525L280.961 180.61C281.57 181.15 282.024 181.913 282.256 182.789C282.489 183.665 282.488 184.609 282.254 185.485L280.501 192.094C280.376 192.565 280.376 193.072 280.501 193.543C280.626 194.013 280.869 194.424 281.196 194.714C281.523 195.005 281.916 195.162 282.32 195.162C282.724 195.162 283.118 195.005 283.444 194.714L288.034 190.629C288.641 190.087 289.374 189.794 290.125 189.794Z" fill="#3F3D56"/>
<path d="M45.2655 31.1211C43.8467 31.1211 42.486 31.8116 41.4828 33.0407C40.4796 34.2699 39.916 35.9369 39.916 37.6751C39.916 39.4134 40.4796 41.0804 41.4828 42.3095C42.486 43.5387 43.8467 44.2292 45.2655 44.2292H316.03C317.448 44.2292 318.809 43.5387 319.812 42.3095C320.815 41.0804 321.379 39.4134 321.379 37.6751C321.379 35.9369 320.815 34.2699 319.812 33.0407C318.809 31.8116 317.448 31.1211 316.03 31.1211H45.2655Z" fill="#CCCCCC"/>
<path d="M45.2655 65.4043C43.8467 65.4043 42.486 66.0948 41.4828 67.3239C40.4796 68.5531 39.916 70.2201 39.916 71.9583C39.916 73.6966 40.4796 75.3636 41.4828 76.5927C42.486 77.8219 43.8467 78.5124 45.2655 78.5124H316.03C317.448 78.5124 318.809 77.8219 319.812 76.5927C320.815 75.3636 321.379 73.6966 321.379 71.9583C321.379 70.2201 320.815 68.5531 319.812 67.3239C318.809 66.0948 317.448 65.4043 316.03 65.4043H45.2655Z" fill="#CCCCCC"/>
<path d="M45.2655 99.6865C43.8467 99.6865 42.486 100.377 41.4828 101.606C40.4796 102.835 39.916 104.502 39.916 106.241C39.916 107.979 40.4796 109.646 41.4828 110.875C42.486 112.104 43.8467 112.795 45.2655 112.795H316.03C317.448 112.795 318.809 112.104 319.812 110.875C320.815 109.646 321.379 107.979 321.379 106.241C321.379 104.502 320.815 102.835 319.812 101.606C318.809 100.377 317.448 99.6865 316.03 99.6865H45.2655Z" fill="#CCCCCC"/>
<path d="M45.2655 31.1211C43.8467 31.1211 42.486 31.8116 41.4828 33.0407C40.4796 34.2699 39.916 35.9369 39.916 37.6751C39.916 39.4134 40.4796 41.0804 41.4828 42.3095C42.486 43.5387 43.8467 44.2292 45.2655 44.2292H316.03C317.448 44.2292 318.809 43.5387 319.812 42.3095C320.815 41.0804 321.379 39.4134 321.379 37.6751C321.379 35.9369 320.815 34.2699 319.812 33.0407C318.809 31.8116 317.448 31.1211 316.03 31.1211H45.2655Z" fill="#CCCCCC"/>
<path d="M45.2655 65.4043C43.8467 65.4043 42.486 66.0948 41.4828 67.3239C40.4796 68.5531 39.916 70.2201 39.916 71.9583C39.916 73.6966 40.4796 75.3636 41.4828 76.5927C42.486 77.8219 43.8467 78.5124 45.2655 78.5124H316.03C317.448 78.5124 318.809 77.8219 319.812 76.5927C320.815 75.3636 321.379 73.6966 321.379 71.9583C321.379 70.2201 320.815 68.5531 319.812 67.3239C318.809 66.0948 317.448 65.4043 316.03 65.4043H45.2655Z" fill="#CCCCCC"/>
<path d="M45.2655 99.6865C43.8467 99.6865 42.486 100.377 41.4828 101.606C40.4796 102.835 39.916 104.502 39.916 106.241C39.916 107.979 40.4796 109.646 41.4828 110.875C42.486 112.104 43.8467 112.795 45.2655 112.795H316.03C317.448 112.795 318.809 112.104 319.812 110.875C320.815 109.646 321.379 107.979 321.379 106.241C321.379 104.502 320.815 102.835 319.812 101.606C318.809 100.377 317.448 99.6865 316.03 99.6865H45.2655Z" fill="#CCCCCC"/>
</g>
<defs>
<clipPath id="clip0_155_921">
<rect width="660" height="541.465" fill="white" transform="translate(0 0.87207)"/>
</clipPath>
</defs>
</svg>
