<svg width="449" height="445" viewBox="0 0 449 445" fill="none" xmlns="http://www.w3.org/2000/svg">
<path d="M224.624 444.004C342.067 444.004 437.273 432.983 437.273 419.389C437.273 405.795 342.067 394.775 224.624 394.775C107.181 394.775 11.9746 405.795 11.9746 419.389C11.9746 432.983 107.181 444.004 224.624 444.004Z" fill="#EBEBEB"/>
<path d="M73.8655 188.612H60.3125V174.039H45.7715V160.529H60.3125V145.945H73.8226V160.529H88.3958V174.039H73.8655V188.612ZM62.2778 186.69H71.9432V172.116H86.5164V162.451H71.9432V147.867H62.2778V162.451H47.6938V172.116H62.2778V186.69Z" fill="#59C6CD"/>
<path d="M401.448 284.944H387.927V270.37H373.354V256.86H387.927V242.276H401.448V256.86H416.021V270.37H401.448V284.944ZM389.86 283.021H399.525V268.448H414.098V258.783H399.525V244.22H389.86V258.804H375.276V268.469H389.86V283.021Z" fill="#59C6CD"/>
<path d="M330.449 36.5111V50.0211H315.875V64.6051H302.365V50.0211H287.781V36.5111H302.365V21.9378H315.875V36.5111H330.449Z" fill="#59C6CD"/>
<path d="M200.041 39.2928C202.844 39.2068 214.582 35.9099 224.291 45.5001C233.484 54.5748 241.141 85.4396 243.836 92.0013C246.532 98.563 255.649 98.1657 258.989 105.683C261.889 112.202 257.336 115.499 257.615 120.568C257.84 124.509 262.673 129.696 260.053 135.99C257.679 141.714 251.848 141.52 248.69 143.7C245.533 145.88 244.674 154.118 238.692 157.264C232.71 160.411 226.213 155.535 222.862 156.104C219.512 156.673 217.181 167.595 206.098 168.444C195.015 169.292 190.376 160.54 185.565 159.433C180.753 158.327 169.917 163.3 163.839 158.478C157.761 153.656 155.666 146.267 152.885 143.872C150.103 141.477 145.303 142.691 141.383 136.731C137.463 130.77 142.769 125.744 142.726 120.042C142.726 116.068 138.677 113.05 140.148 106.736C142.178 98.0583 152.423 98.2086 154.893 89.2306C156.826 82.1963 158.426 52.7169 174.546 42.8904C185.715 36.1784 200.041 39.2928 200.041 39.2928Z" fill="#263238"/>
<path d="M243.246 90.4118C244.136 91.7565 245.342 92.8627 246.758 93.6336L250.807 96.1359C253.544 97.624 256.03 99.534 258.174 101.795C259.171 102.875 259.906 104.17 260.319 105.581C260.733 106.991 260.815 108.478 260.558 109.925C260.214 111.393 259.645 112.798 258.872 114.092C257.974 115.513 257.29 117.058 256.842 118.678C256.692 120.461 257.138 122.244 258.109 123.747C258.85 125.186 259.645 126.539 260.311 127.935C261.653 130.684 262.373 133.723 261.385 136.526C260.951 137.919 260.062 139.125 258.861 139.952C257.577 140.766 256.147 141.324 254.651 141.595C253.126 141.95 251.558 142.154 249.98 142.422C248.371 142.558 246.84 143.176 245.587 144.194C246.923 143.356 248.467 142.909 250.044 142.906C251.623 142.766 253.212 142.702 254.812 142.465C256.455 142.259 258.043 141.734 259.484 140.919C260.964 140.007 262.097 138.627 262.706 136.999C264.07 133.777 263.146 130.104 261.793 127.215C261.127 125.733 260.332 124.327 259.645 122.92C258.871 121.744 258.494 120.352 258.571 118.946C259.108 116.304 261.567 113.577 262.126 110.204C262.42 108.516 262.303 106.782 261.785 105.148C261.267 103.514 260.364 102.029 259.151 100.818C256.806 98.5782 254.12 96.7258 251.193 95.3304L246.897 93.1825C245.494 92.5345 244.248 91.5891 243.246 90.4118Z" fill="#263238"/>
<path d="M161.262 61.5769C159.05 66.8499 158.04 72.5095 156.515 77.9436C155.742 80.6607 155.065 83.4099 154.099 86.0303C153.665 87.3132 153.093 88.5448 152.391 89.7032C152.25 89.9715 152.064 90.2146 151.844 90.4227C151.648 90.6578 151.42 90.8639 151.167 91.0348C150.63 91.4429 150.093 91.8188 149.459 92.1839C147.003 93.6672 144.623 95.273 142.329 96.9952C139.902 98.788 138.093 101.291 137.152 104.158C136.714 105.627 136.655 107.182 136.98 108.68C137.374 110.116 138.037 111.464 138.935 112.653C140.642 114.941 142.275 117.239 142.812 120.085C142.704 117.185 141.115 114.565 139.676 112.17C138.926 111.036 138.394 109.772 138.108 108.443C137.904 107.139 138.037 105.805 138.495 104.566C139.477 102.047 141.166 99.8653 143.36 98.2839C145.643 96.6394 148.009 95.1124 150.447 93.7089C151.049 93.3116 151.65 92.9035 152.241 92.4417C152.855 91.9483 153.366 91.3389 153.744 90.6482C154.499 89.3669 155.108 88.0053 155.559 86.5888C156.468 83.8665 157.207 81.0904 157.772 78.2765L159.404 69.8999C159.86 67.0916 160.481 64.3125 161.262 61.5769V61.5769Z" fill="#263238"/>
<path d="M149.943 142.433C151.393 143.851 151.887 145.924 152.65 147.803C153.412 149.682 154.121 151.605 154.959 153.484C155.773 155.401 156.788 157.226 157.987 158.929C159.217 160.728 160.864 162.202 162.788 163.225C167.008 165.061 171.497 164.041 175.31 162.698C177.253 162.011 179.122 161.227 181.034 160.55C182.894 159.781 184.912 159.464 186.919 159.627C184.905 159.108 182.789 159.13 180.787 159.691C178.778 160.164 176.845 160.765 174.891 161.324C171.089 162.398 166.944 163.074 163.561 161.538C161.892 160.643 160.454 159.37 159.362 157.823C158.175 156.231 157.12 154.547 156.204 152.786C155.238 151.014 154.368 149.188 153.455 147.416C152.983 146.503 152.499 145.601 151.973 144.721C151.502 143.798 150.804 143.011 149.943 142.433V142.433Z" fill="#263238"/>
<path d="M255.393 388.224H162.369L156.838 273.163H239.96L255.393 388.224Z" fill="#37474F"/>
<path d="M213.928 273.163L204.102 351.087L204.091 351.205L203.876 352.827L203.479 356.017L203.028 359.571L202.867 360.839L202.738 361.859L199.419 388.224H162.369L156.838 273.163H213.928Z" fill="#263238"/>
<path d="M236.502 388.224H234.043C233.914 387.204 233.796 386.194 233.667 385.174C230.36 358.326 227.148 331.477 224.356 304.629C224.099 302.17 223.841 299.7 223.594 297.24C223.594 296.854 224.217 296.779 224.27 297.165C224.496 298.819 224.732 300.473 224.947 302.127C228.92 330.801 232.701 359.518 236.502 388.224Z" fill="#263238"/>
<path d="M231.519 273.077C231.522 273.105 231.522 273.134 231.519 273.163C231.272 274.312 228.555 286.92 224.968 302.159C224.774 302.986 224.581 303.824 224.377 304.661C222.788 311.309 221.059 318.343 219.308 325.066C215.528 339.661 211.651 352.741 209.009 357.048C208.721 357.581 208.322 358.046 207.839 358.411C206.979 358.916 205.154 359.818 202.888 360.882L201.384 361.58L200.096 362.17C194.941 364.533 188.744 367.239 185.877 368.431V368.657L184.878 388.245H97.2559L106.535 332.401L117.736 273.131L231.519 273.077Z" fill="#37474F"/>
<path d="M215.41 354.577C205.216 358.288 195.363 362.877 185.963 368.292C185.891 368.333 185.837 368.4 185.812 368.48C185.787 368.559 185.793 368.644 185.828 368.72C185.863 368.795 185.925 368.855 186.001 368.887C186.078 368.919 186.164 368.921 186.242 368.893C196.154 364.597 206.271 360.559 215.936 355.759C216.093 355.689 216.215 355.56 216.277 355.4C216.338 355.24 216.333 355.062 216.264 354.905C216.194 354.748 216.065 354.626 215.905 354.564C215.744 354.503 215.566 354.508 215.41 354.577V354.577Z" fill="#263238"/>
<path d="M218.395 286.662C218.395 286.318 217.773 286.243 217.773 286.662C217.848 298.475 217.096 308.785 216.108 319.793C215.646 324.894 211.544 353.085 202.684 351.066C201.202 350.722 200.439 349.262 200.214 347.028C199.935 344.332 200.944 341.046 201.384 338.372C202.372 332.465 203.156 326.559 203.661 320.566C204.698 309.454 204.579 298.265 203.307 287.178C203.294 287.112 203.258 287.052 203.206 287.009C203.155 286.967 203.089 286.943 203.022 286.943C202.955 286.943 202.89 286.967 202.838 287.009C202.786 287.052 202.75 287.112 202.738 287.178C202.738 302.599 202.34 317.989 200.042 333.271C198.968 340.606 195.231 351.656 202.909 352.795C210.588 353.933 215.797 335.429 216.742 330.36C219.405 316.174 219.512 300.967 218.395 286.662Z" fill="#263238"/>
<path d="M202.919 351.785C202.125 353.687 201.458 355.638 200.921 357.627C200.357 359.168 200.076 360.798 200.095 362.439C200.095 362.75 200.546 362.782 200.707 362.567C201.629 361.125 202.324 359.549 202.769 357.896C203.445 356.081 204.154 354.287 204.777 352.462C204.867 352.215 204.855 351.943 204.744 351.706C204.633 351.468 204.433 351.284 204.186 351.194C203.94 351.105 203.668 351.117 203.43 351.227C203.193 351.338 203.009 351.539 202.919 351.785V351.785Z" fill="#263238"/>
<path d="M137.378 357.649C136.497 367.851 135.456 378.054 134.36 388.224H133.404C134.478 378.021 135.703 367.819 137.023 357.638C137.056 357.413 137.399 357.413 137.378 357.649Z" fill="#263238"/>
<path d="M197.508 170.183C205.53 196.344 240.25 289.787 263.533 304.028C278.772 313.339 355.311 318.633 370.035 311.803C378.207 308.001 375.662 246.186 366.029 245.842C354.012 245.412 294.935 243.823 288.394 240.698C281.854 237.573 237.726 178.56 220.908 160.679C191.923 129.836 192.159 152.764 197.508 170.183Z" fill="#AD6359"/>
<path d="M347.719 241.203L336.807 316.807C336.807 316.807 274.648 318.633 257.702 304.769C233.549 285.03 198.915 185.154 194.984 169.528C185.673 132.478 206.421 138.664 222.745 156.641C233.345 168.347 275.046 228.23 290.489 239.259C294.87 242.427 347.719 241.203 347.719 241.203Z" fill="#EBEBEB"/>
<path d="M321.492 313.102C322.77 301.88 329.675 256.184 331.834 246.379C331.984 245.702 332.457 245.627 332.392 246.379C329.375 280.09 323.801 302.223 321.943 313.156C321.889 313.414 321.46 313.392 321.492 313.102Z" fill="#263238"/>
<path d="M239.991 245.09L250.376 316.507C250.376 316.507 133.983 318.225 105.084 316.195C105.084 316.195 128.657 182.673 159.726 148.93C175.265 132.059 193.511 133.326 205.142 145.118C208.085 148.103 243.192 194.519 246.886 212.228C250.108 227.864 239.991 245.09 239.991 245.09Z" fill="#59C6CD"/>
<path d="M194.641 237.122C200.846 236.562 207.085 236.458 213.305 236.81C216.388 237.036 219.448 237.39 222.509 237.82C224.034 238.035 225.57 238.196 227.095 238.346C228.7 238.545 230.323 238.545 231.927 238.346C232.067 238.346 232.099 238.539 231.927 238.571C230.441 238.911 228.935 239.155 227.417 239.302C225.944 239.404 224.465 239.404 222.992 239.302C219.856 239.108 216.731 238.776 213.595 238.55C207.281 238.099 200.966 237.637 194.63 237.648C194.361 237.648 194.351 237.154 194.641 237.122Z" fill="#263238"/>
<path d="M180.594 245.294C185.537 243.855 190.556 242.693 195.629 241.815C198.163 241.385 200.708 241.106 203.275 240.891C204.489 240.795 205.724 240.709 206.948 240.644C208.172 240.58 209.654 240.644 210.997 240.644C211.136 240.644 211.179 240.848 210.997 240.87C209.729 240.988 208.473 241.321 207.216 241.525L203.415 242.105C200.891 242.502 198.367 242.932 195.822 243.308C190.753 244.049 185.706 244.843 180.658 245.767C180.336 245.735 180.293 245.348 180.594 245.294Z" fill="#263238"/>
<path d="M179.928 388.224H88.0957C98.835 320.759 111.722 251.663 124.126 216.889C150.824 141.918 172.614 139.05 172.614 139.05V139.136C172.732 142.304 175.836 227.284 178.22 317.162C178.864 340.982 179.455 365.145 179.928 388.224Z" fill="#EBEBEB"/>
<path d="M164.762 347.962C164.762 345.342 164.182 332.927 163.946 330.425C163.946 330.135 163.839 329.555 163.602 329.555C160.176 329.555 148.288 330.769 136.314 330.769C127.751 330.608 119.206 329.941 110.722 328.771C110.325 328.889 110.325 342.528 110.11 349.122C109.68 362.879 110.314 378.44 113.246 381.34C118.723 386.71 133.317 386.248 137.946 386.205C142.575 386.162 158.888 386.151 162.722 377.732C164.354 373.962 164.805 354.76 164.762 347.962ZM162.614 361.923C162.421 368.711 162.206 374.81 159.596 378.387C157.363 381.404 151.059 384.444 136.55 384.433C126.068 384.433 117.219 382.511 114.803 379.718C111.903 376.378 111.581 366.777 111.581 361.043C111.581 353.128 111.581 346.802 111.581 338.898C131.846 343.602 154.141 341.282 162.593 339.575C162.625 339.908 162.808 356.607 162.646 361.923H162.614ZM162.668 338.297C136.346 341.68 120.054 338.855 111.613 337.223C111.613 334.688 111.613 332.712 111.613 330.167C115.232 331.08 127.411 332.53 136.539 332.53C145.034 332.53 157.513 331.348 162.808 330.715C162.657 332.798 162.765 337.33 162.7 338.286L162.668 338.297Z" fill="#DBDBDB"/>
<path d="M169.853 174.297C164.688 195.679 138.119 271.735 131.514 278.329C123.642 286.19 89.3193 310.364 77.3557 278.178C69.065 255.894 125.403 177.776 152.026 152.528C165.021 140.275 178.499 138.47 169.853 174.297Z" fill="#EBEBEB"/>
<path d="M160.767 213.259C159.156 216.234 157.384 219.123 155.645 222.022C156.053 220.948 156.45 219.874 156.837 218.8C158.512 214.172 160.058 209.489 161.766 204.839C161.83 204.689 161.594 204.635 161.53 204.775C159.736 208.802 157.835 212.797 156.085 216.857C154.334 220.916 152.863 224.825 151.274 228.852C148.149 236.961 144.98 245.058 142.081 253.252C140.365 257.78 138.895 262.398 137.678 267.084C137.678 267.213 137.839 267.31 137.903 267.181C139.826 263.304 141.34 259.223 142.886 255.185C144.433 251.147 145.979 247.152 147.483 243.114C148.986 239.076 150.586 234.899 152.176 230.807C152.971 228.745 153.797 226.705 154.603 224.653C157.069 221.073 159.167 217.251 160.864 213.248C160.885 213.248 160.789 213.205 160.767 213.259Z" fill="#263238"/>
<path d="M171.648 139.147C168.784 145.19 166.006 151.275 163.314 157.404C160.629 163.525 157.859 169.604 155.26 175.768L154.938 176.541L155.636 177.014L166.901 184.628L166.633 183.006C163.572 187.581 160.608 192.21 157.622 196.828L157.332 197.279L157.493 197.773C160.511 207.127 163.422 216.513 166.59 225.824C169.758 235.135 172.861 244.457 176.191 253.746C173.635 244.238 170.957 234.777 168.158 225.362C165.451 215.912 162.487 206.547 159.631 197.139L159.502 198.084C162.53 193.499 165.58 188.924 168.544 184.284L169.156 183.318L168.222 182.706L156.817 175.295L157.203 176.541C159.759 170.366 162.122 164.116 164.592 157.908C167.062 151.701 169.35 145.419 171.648 139.147Z" fill="#DBDBDB"/>
<path d="M261.599 388.224H228.436C226.471 364.995 224.452 340.713 222.454 316.839C219.608 282.721 216.795 249.429 214.174 221.184C211.832 194.9 207.695 168.807 201.792 143.088C201.641 142.433 201.545 142.014 201.523 141.961C201.502 141.907 201.523 141.961 201.523 141.961C202.85 142.787 204.035 143.82 205.035 145.021C205.068 145.06 205.104 145.096 205.142 145.129L205.497 145.526C205.592 145.621 205.682 145.721 205.765 145.827C211.468 152.088 221.004 164.889 229.488 178.045C237.672 190.717 244.889 203.701 246.671 211.412L246.768 211.841C246.822 212.088 246.865 212.325 246.908 212.561C247.258 214.605 247.456 216.673 247.498 218.747V218.747C247.578 227.22 245.386 235.56 241.151 242.899C241.123 242.962 241.091 243.023 241.055 243.082C240.775 243.554 240.604 243.801 240.604 243.801V243.92L251.472 318.322L261.599 388.224Z" fill="#EBEBEB"/>
<path d="M235.428 188.934C232.207 183.758 228.845 178.635 225.656 173.416C225.559 173.266 225.795 173.094 225.903 173.233C229.124 177.529 232.346 181.825 235.471 186.196C234.397 183.865 233.42 181.524 232.486 179.14C232.378 178.872 232.754 178.646 232.883 178.915C234.333 181.975 235.632 185.09 236.921 188.226C239.726 192.113 242.211 196.222 244.353 200.511C248.788 209.629 250.7 219.595 248.294 229.561C247.642 232.315 246.669 234.982 245.394 237.508C244.535 239.227 241.732 242.964 241.754 243.071C243.579 253.252 244.976 263.551 246.382 273.796C247.789 284.042 249.303 294.523 250.517 304.94C251.194 310.826 251.591 316.754 252.493 322.628C252.493 322.843 252.192 322.929 252.16 322.714C251.419 317.602 250.313 312.544 249.4 307.453C248.487 302.363 247.639 297.273 246.812 292.161C245.158 281.851 243.676 271.498 242.183 261.156C241.346 255.314 240.422 249.461 239.756 243.587C239.681 242.942 242.323 238.775 243.107 237.143C244.151 234.98 245.006 232.731 245.663 230.42C247.007 225.724 247.423 220.81 246.887 215.954C245.76 206.053 240.626 197.236 235.428 188.934Z" fill="#263238"/>
<path d="M201.793 143.088C205.215 148.286 208.698 153.437 212.242 158.542C215.808 163.633 219.287 168.787 222.917 173.824L222.992 172.621L214.272 181.76L213.553 182.512L214.315 183.253C217.988 186.808 221.725 190.298 225.452 193.799L225.14 192.897C223.787 202.369 222.337 211.82 221.134 221.313C219.932 230.807 218.654 240.29 217.612 249.805C219.416 240.397 221.059 230.979 222.638 221.539C224.217 212.099 225.688 202.648 227.191 193.209L227.277 192.672L226.88 192.296C223.196 188.752 219.513 185.197 215.776 181.718V183.21L224.367 173.91L224.904 173.33L224.442 172.707C220.78 167.692 216.925 162.784 213.23 157.812C209.536 152.839 205.67 147.964 201.793 143.088Z" fill="#DBDBDB"/>
<path d="M159.866 155.159C158.996 142.455 174.385 137.407 183.9 136.097C195.166 134.551 202.673 135.485 208.096 146.417C213.809 157.941 216.806 171.311 219.05 183.93C219.469 186.282 223.142 185.691 222.723 183.328C220.135 168.798 216.419 141.681 201.942 133.799C188.615 126.528 154.689 134.228 156.193 155.75C156.354 158.145 160.027 157.533 159.866 155.159V155.159Z" fill="#455A64"/>
<path d="M230.445 189.203C230.727 190.883 230.504 192.609 229.802 194.161C229.101 195.714 227.954 197.023 226.507 197.922C225.06 198.822 223.379 199.271 221.676 199.212C219.974 199.153 218.327 198.59 216.945 197.593C215.564 196.596 214.51 195.211 213.917 193.614C213.325 192.017 213.22 190.279 213.618 188.623C214.015 186.966 214.895 185.465 216.148 184.31C217.4 183.155 218.968 182.398 220.651 182.136C221.758 181.957 222.89 181.997 223.981 182.255C225.073 182.513 226.103 182.984 227.012 183.64C227.922 184.297 228.693 185.126 229.282 186.08C229.871 187.034 230.266 188.096 230.445 189.203V189.203Z" fill="#263238"/>
<path d="M227.084 189.75C227.239 190.755 227.092 191.782 226.664 192.704C226.235 193.625 225.543 194.399 224.675 194.928C223.808 195.456 222.803 195.716 221.787 195.674C220.772 195.632 219.792 195.29 218.97 194.692C218.149 194.094 217.523 193.265 217.172 192.312C216.821 191.358 216.76 190.322 216.998 189.334C217.235 188.346 217.759 187.45 218.505 186.759C219.251 186.069 220.184 185.615 221.188 185.455C221.857 185.346 222.542 185.372 223.202 185.529C223.861 185.687 224.483 185.974 225.031 186.373C225.58 186.773 226.043 187.277 226.396 187.856C226.748 188.436 226.982 189.08 227.084 189.75V189.75Z" fill="#EBEBEB"/>
<path d="M172.786 194.959C182.183 230.646 180.733 239.366 177.769 243.469C175.535 246.339 172.668 248.654 169.392 250.234L168.318 247.882L168.855 249.053L168.318 247.882C171.18 246.477 173.693 244.452 175.675 241.954C177.823 238.99 179.584 230.957 170.305 195.614L172.786 194.959Z" fill="#C7C7C7"/>
<path d="M163.733 250.047L165.253 252.791C165.571 253.367 166.297 253.575 166.873 253.256L172.641 250.061C173.217 249.742 173.425 249.017 173.106 248.441L171.587 245.697C171.268 245.122 170.543 244.913 169.967 245.232L164.198 248.427C163.622 248.746 163.414 249.471 163.733 250.047Z" fill="#263238"/>
<path d="M149.449 195.893C142.372 222.742 140.664 237.519 144.08 242.234C146.061 244.729 148.574 246.75 151.436 248.151L150.362 250.514C147.086 248.933 144.22 246.618 141.985 243.748C137.926 238.142 139.365 224.084 146.958 195.238L149.449 195.893Z" fill="#C7C7C7"/>
<path d="M148.19 245.969L146.673 248.713C146.354 249.289 146.563 250.014 147.139 250.333L152.909 253.524C153.486 253.842 154.211 253.633 154.529 253.057L156.047 250.313C156.365 249.737 156.157 249.012 155.581 248.693L149.81 245.502C149.234 245.184 148.509 245.392 148.19 245.969Z" fill="#263238"/>
<path d="M146.087 194.068C147.268 188.115 148.814 182.24 150.716 176.477C151.841 173.933 153.629 171.737 155.892 170.119C156.407 170.065 156.182 165.533 155.892 161.839C155.656 158.617 155.312 154.773 156.096 153.72C156.548 153.234 157.173 152.943 157.836 152.908C158.5 152.874 159.151 153.1 159.651 153.538C160.542 154.493 160.596 158.317 160.725 161.592C160.853 165.297 161.111 169.818 161.627 169.818C163.916 171.303 165.813 173.318 167.157 175.693C169.661 181.381 171.729 187.251 173.343 193.252C174.17 197.075 172.914 197.547 171.818 197.934C170.272 198.46 169.284 197.397 168.07 193.166C166.137 186.464 163.699 175.177 159.028 175.21C154.399 175.682 152.52 187.635 151.038 194.304C150.103 198.482 149.223 198.879 147.623 198.514C146.506 198.245 145.357 197.773 146.087 194.068Z" fill="#263238"/>
<path d="M202.554 139.823C202.554 139.823 203.628 160.518 199.804 160.862C188.217 161.936 175.33 145.999 174.621 143.475C174.438 142.831 175.373 126.764 176.135 114.275C176.618 106.242 177.037 99.6907 177.037 99.6907L206.645 116.659L202.833 138.277L202.554 139.823Z" fill="#AD6359"/>
<path d="M206.647 116.659L202.835 138.277C196.948 136.376 191.528 133.256 186.928 129.12C182.328 124.985 178.651 119.926 176.137 114.275C176.62 106.242 177.039 99.6907 177.039 99.6907L180.765 101.667L206.647 116.659Z" fill="#263238"/>
<path d="M237.125 82.2286C243.3 120.267 221.209 128.257 213.004 129.578C205.562 130.781 180.056 133.928 169.982 96.7267C159.909 59.5257 175.642 44.641 192.535 40.9897C209.428 37.3383 230.95 44.19 237.125 82.2286Z" fill="#AD6359"/>
<path d="M227.846 77.5354C226.957 77.48 226.071 77.376 225.193 77.224C224.249 77.245 223.324 76.9544 222.562 76.3971C222.358 76.1747 222.232 75.8911 222.205 75.5902C222.178 75.2893 222.25 74.9879 222.412 74.7325C222.806 74.2853 223.312 73.9505 223.878 73.7619C224.444 73.5733 225.049 73.5377 225.633 73.6585C226.875 73.717 228.049 74.2426 228.92 75.1298C229.098 75.3397 229.213 75.5958 229.252 75.8685C229.291 76.1411 229.253 76.4193 229.14 76.6708C229.028 76.9223 228.847 77.137 228.618 77.2899C228.389 77.4429 228.121 77.528 227.846 77.5354V77.5354Z" fill="#263238"/>
<path d="M202.072 80.8433C202.963 80.65 203.747 80.3278 204.606 80.0593C205.544 79.9086 206.405 79.4517 207.055 78.7599C207.217 78.5039 207.289 78.2013 207.26 77.9C207.23 77.5986 207.102 77.3155 206.894 77.0953C206.422 76.7167 205.857 76.4721 205.258 76.3871C204.659 76.3021 204.048 76.3798 203.49 76.612C202.282 76.9002 201.226 77.6276 200.525 78.6525C200.382 78.8964 200.312 79.1766 200.324 79.4595C200.335 79.7423 200.428 80.0158 200.592 80.247C200.755 80.4783 200.981 80.6576 201.244 80.7633C201.506 80.8691 201.794 80.8968 202.072 80.8433Z" fill="#263238"/>
<path d="M209.299 89.5098C209.299 89.4131 209.116 89.6494 209.127 89.7568C209.513 92.3557 209.513 95.3949 207.247 96.5333C207.183 96.5333 207.247 96.6944 207.247 96.6729C210.115 95.9426 210.083 91.9047 209.299 89.5098Z" fill="#263238"/>
<path d="M206.657 87.0507C202.436 87.2117 203.07 95.6421 206.99 95.5132C210.909 95.3844 210.201 86.911 206.657 87.0507Z" fill="#263238"/>
<path d="M205.035 87.6197C204.337 88.1567 203.671 89.0588 202.79 89.2091C201.91 89.3595 200.922 88.5648 200.191 87.7593C200.116 87.6841 200.041 87.7593 200.052 87.8774C200.148 89.4883 200.9 91.0992 202.651 91.2174C204.401 91.3355 205.282 89.7998 205.561 88.1352C205.615 87.8345 205.293 87.4264 205.035 87.6197Z" fill="#263238"/>
<path d="M223.678 87.5659C223.678 87.4585 223.893 87.6733 223.893 87.7807C223.99 90.4011 224.538 93.3866 226.965 94.0954C227.04 94.0954 227.04 94.2565 226.965 94.2458C224.033 94.0417 223.345 90.0574 223.678 87.5659Z" fill="#263238"/>
<path d="M225.827 84.6665C230.015 84.0651 230.917 92.4847 227.04 93.0431C223.164 93.6016 222.315 85.182 225.827 84.6665Z" fill="#263238"/>
<path d="M227.642 85.0315C228.362 85.4074 229.103 86.1054 229.908 86.1054C230.714 86.1054 231.412 85.0315 231.906 84.1509C231.959 84.0542 232.035 84.1509 232.045 84.2261C232.271 85.837 231.916 87.566 230.402 88.0385C228.888 88.511 227.835 87.2008 227.277 85.6436C227.18 85.3644 227.352 84.8812 227.642 85.0315Z" fill="#263238"/>
<path d="M211.479 109.979C212.124 110.57 212.779 111.397 213.735 111.45C214.711 111.402 215.665 111.15 216.538 110.709C216.555 110.7 216.575 110.698 216.594 110.701C216.613 110.705 216.631 110.716 216.643 110.731C216.656 110.746 216.663 110.765 216.663 110.784C216.663 110.804 216.657 110.823 216.645 110.838C216.292 111.356 215.808 111.77 215.241 112.038C214.675 112.306 214.047 112.419 213.423 112.363C212.882 112.243 212.388 111.965 212.006 111.563C211.623 111.161 211.369 110.655 211.275 110.108C211.189 109.979 211.383 109.979 211.479 109.979Z" fill="#263238"/>
<path d="M221.585 99.6047C221.585 99.6047 222.466 103.46 222.659 105.307C222.659 105.479 222.23 105.597 221.585 105.694C221.585 105.694 221.585 105.694 221.521 105.694C219.966 106.122 218.323 106.113 216.774 105.668C215.224 105.223 213.827 104.358 212.736 103.17C212.586 102.998 212.801 102.794 212.983 102.891C215.472 104.289 218.346 104.846 221.177 104.48C221.263 103.965 219.448 97.9294 219.738 97.8864C221.19 97.8795 222.636 98.0747 224.034 98.4664C222.434 90.3797 219.545 82.6151 218.074 74.5392C218.069 74.4822 218.084 74.4253 218.115 74.3776C218.147 74.3298 218.193 74.2939 218.247 74.2754C218.302 74.257 218.36 74.2571 218.414 74.2756C218.468 74.2942 218.515 74.3303 218.546 74.3781C222.144 82.3037 224.195 91.561 226.064 99.8732C226.257 100.904 222.348 99.8517 221.585 99.6047Z" fill="#263238"/>
<path d="M219.49 105.329C218.626 106.571 217.453 107.567 216.086 108.218C215.332 108.557 214.489 108.648 213.68 108.476C211.919 108.1 211.812 106.499 212.07 105.114C212.211 104.373 212.442 103.652 212.757 102.966C214.688 104.459 217.05 105.287 219.49 105.329V105.329Z" fill="#263238"/>
<path d="M216.086 108.218C215.332 108.557 214.489 108.648 213.68 108.475C211.919 108.1 211.812 106.499 212.07 105.114C213.938 105.232 215.85 106.414 216.086 108.218Z" fill="#FF99BA"/>
<path d="M169.982 98.1657C172.462 96.9767 174.59 95.1637 176.158 92.9046C177.727 90.6454 178.681 88.0175 178.928 85.2785C185.674 82.3605 191.52 77.697 195.864 71.7685C195.606 72.5632 193.716 78.2872 192.642 81.1654C217.085 76.7193 224.731 58.0651 224.731 58.0651C232.624 66.0015 234.182 71.0704 235.309 73.5941C235.309 73.5941 235.567 58.5591 227.899 48.5393C225.321 45.0617 221.781 42.4158 217.715 40.929C213.65 39.4421 209.238 39.1794 205.024 40.1734C199.271 38.1864 193.059 37.9417 187.168 39.47C181.276 40.9984 175.966 44.2317 171.904 48.7648C155.956 65.9478 169.982 98.1657 169.982 98.1657Z" fill="#263238"/>
<path d="M211.243 77.267C207.31 79.3946 203.083 80.9256 198.7 81.8097C198.7 81.8097 198.646 81.8097 198.7 81.8097C205.572 79.9655 211.796 76.2473 216.677 71.0704C218.75 68.8569 220.533 66.3885 221.982 63.7247C223.683 60.8721 224.804 57.7115 225.279 54.4245C225.29 54.3823 225.314 54.3447 225.348 54.3179C225.382 54.291 225.424 54.2764 225.467 54.2764C225.511 54.2764 225.553 54.291 225.587 54.3179C225.621 54.3447 225.645 54.3823 225.655 54.4245C225.542 57.7352 224.87 61.0029 223.669 64.0899C222.338 67.0603 220.479 69.764 218.181 72.0692C216.121 74.1208 213.782 75.8707 211.232 77.267" fill="#263238"/>
<path d="M204.531 103.535C202.28 103.587 200.06 103.006 198.123 101.858C196.186 100.711 194.61 99.0424 193.575 97.0435C192.539 95.0445 192.085 92.795 192.265 90.5508C192.445 88.3067 193.25 86.158 194.591 84.3492C195.931 82.5404 197.752 81.1441 199.847 80.3191C201.942 79.4941 204.226 79.2735 206.44 79.6825C208.654 80.0915 210.708 81.1136 212.37 82.6326C214.032 84.1515 215.234 86.1064 215.839 88.2747V88.2747C216.694 91.3479 216.294 94.6348 214.728 97.4135C213.161 100.192 210.556 102.236 207.484 103.095C206.521 103.361 205.529 103.509 204.531 103.535ZM204.015 81.0901C203.147 81.1089 202.284 81.2388 201.449 81.4767C198.9 82.1944 196.721 83.8564 195.355 86.1242C193.99 88.392 193.539 91.0952 194.096 93.6833C194.654 96.2714 196.176 98.5499 198.354 100.055C200.532 101.56 203.202 102.178 205.82 101.784C208.438 101.389 210.807 100.012 212.445 97.9324C214.083 95.8526 214.867 93.2267 214.637 90.5893C214.407 87.9519 213.18 85.5014 211.207 83.7365C209.234 81.9717 206.662 81.0253 204.015 81.0901V81.0901Z" fill="#59C6CD"/>
<path d="M231.841 99.5619C227.245 99.6692 222.96 95.0513 222.079 88.8225C221.612 85.8598 222.086 82.8251 223.432 80.1452C223.944 78.9651 224.751 77.9362 225.774 77.1568C226.797 76.3775 228.004 75.8737 229.277 75.6937C230.551 75.5138 231.849 75.6637 233.049 76.129C234.248 76.5944 235.307 77.3597 236.126 78.3517C238.163 80.5593 239.455 83.3502 239.821 86.331C240.744 92.8927 237.522 98.7994 232.625 99.4867C232.367 99.5335 232.104 99.5587 231.841 99.5619V99.5619ZM230.112 77.2241C229.908 77.2134 229.704 77.2134 229.5 77.2241C228.491 77.4163 227.542 77.847 226.733 78.4803C225.925 79.1136 225.279 79.9311 224.85 80.8647C223.666 83.2464 223.257 85.9388 223.679 88.5648C224.474 94.2566 228.383 98.4342 232.4 97.865C236.416 97.2959 239.026 92.2054 238.231 86.5243C237.914 83.886 236.788 81.4103 235.009 79.4364C234.394 78.745 233.64 78.1908 232.796 77.8097C231.952 77.4286 231.038 77.229 230.112 77.2241V77.2241Z" fill="#59C6CD"/>
<path d="M215.634 89.7246L214.432 88.6507C216.032 86.8787 219.919 84.2583 223.259 86.9538L222.25 88.2103C219.254 85.7833 215.774 89.5742 215.634 89.7246Z" fill="#59C6CD"/>
<path d="M162.991 100.314L161.477 99.7765C161.724 99.0677 164 92.8282 167.469 91.7543C170.691 90.7555 192.352 89.746 193.243 89.7138L193.319 91.314C187.122 91.5932 170.433 92.5168 167.931 93.29C165.654 93.9558 163.592 98.5523 162.991 100.314Z" fill="#59C6CD"/>
<path d="M176.501 98.6705C176.501 98.6705 167.222 87.2976 161.992 90.7019C156.762 94.1063 164.376 111.053 170.927 112.911C171.751 113.213 172.629 113.345 173.506 113.3C174.383 113.254 175.241 113.031 176.03 112.645C176.819 112.259 177.521 111.717 178.095 111.052C178.668 110.387 179.101 109.613 179.368 108.776L176.501 98.6705Z" fill="#AD6359"/>
<path d="M164.301 95.4917C164.278 95.4917 164.256 95.5008 164.24 95.5169C164.224 95.533 164.215 95.5548 164.215 95.5776C164.215 95.6004 164.224 95.6223 164.24 95.6384C164.256 95.6545 164.278 95.6635 164.301 95.6635C168.908 97.1456 171.582 101.13 173.558 105.329C172.097 103.772 170.218 102.998 168.113 104.749C168.006 104.846 168.113 105.017 168.253 104.985C169.022 104.675 169.868 104.612 170.674 104.805C171.48 104.997 172.207 105.436 172.753 106.059C173.664 107.106 174.459 108.247 175.126 109.464C175.362 109.85 176.071 109.582 175.888 109.131V109.023C175.513 103.278 170.476 95.6098 164.301 95.4917Z" fill="#263238"/>
<path d="M174.428 110.945C174.451 111.13 174.436 111.318 174.383 111.496C174.33 111.675 174.241 111.841 174.121 111.983C174.001 112.126 173.852 112.242 173.685 112.324C173.518 112.407 173.336 112.454 173.15 112.463C172.964 112.472 172.778 112.442 172.604 112.376C172.43 112.31 172.272 112.208 172.139 112.078C172.005 111.948 171.901 111.791 171.831 111.618C171.761 111.446 171.728 111.26 171.733 111.074C171.742 110.733 171.88 110.408 172.119 110.164C172.358 109.921 172.68 109.776 173.021 109.76C173.362 109.744 173.696 109.857 173.957 110.077C174.218 110.296 174.387 110.607 174.428 110.945V110.945Z" fill="white"/>
<path d="M170.542 108.798C170.547 108.909 170.531 109.02 170.494 109.126C170.456 109.231 170.398 109.327 170.324 109.41C170.249 109.493 170.158 109.56 170.058 109.608C169.957 109.656 169.848 109.683 169.736 109.689C169.625 109.695 169.513 109.678 169.408 109.641C169.303 109.603 169.206 109.546 169.124 109.471C169.041 109.396 168.974 109.306 168.926 109.205C168.878 109.104 168.85 108.995 168.845 108.884C168.833 108.659 168.912 108.438 169.063 108.271C169.214 108.104 169.425 108.004 169.65 107.992C169.875 107.981 170.096 108.059 170.263 108.21C170.43 108.361 170.53 108.573 170.542 108.798Z" fill="white"/>
<path d="M202.566 140.865L196.123 157.747L174.902 136.945L169.135 143.861C169.135 143.861 190.141 177.153 190.238 175.628L196.864 161.055L207.023 170.914L205.734 145.709L202.566 140.865Z" fill="#59C6CD"/>
<path d="M207.118 158.413C206.775 154.257 206.528 150.069 206.044 145.934C206.044 145.784 205.787 145.719 205.754 145.934C205.003 149.962 206.431 165.845 206.485 169.657C206.066 169.228 197.077 160.991 196.991 161.13C195.541 163.45 190.676 174.018 190.343 175.027C187.025 169.743 172.956 148.909 169.047 143.883C169.027 143.85 168.995 143.827 168.958 143.818C168.921 143.809 168.881 143.815 168.849 143.835C168.816 143.855 168.792 143.887 168.783 143.924C168.774 143.961 168.78 144.001 168.8 144.033C171.754 149.629 189.946 177.121 190.193 177.035C192.765 172.024 195.077 166.884 197.12 161.635C198.645 163.439 207.73 172.75 207.752 172.138C207.784 167.555 207.572 162.974 207.118 158.413V158.413Z" fill="#263238"/>
<path d="M204.069 195.464C204.069 195.464 195.768 184.51 203.693 179.452C211.619 174.393 218.052 186.539 218.052 186.539L204.069 195.464Z" fill="#455A64"/>
<path d="M269.729 267.546L270.879 280.938L271.287 285.363L267.41 283.161L255.768 276.438L203.801 194.991L217.762 186.067L269.729 267.546Z" fill="#455A64"/>
<path d="M270.911 280.96L271.298 285.374L267.432 283.172L270.911 280.96Z" fill="#37474F"/>
<path d="M218.657 184.9L202.334 195.315L204.402 198.556L220.725 188.141L218.657 184.9Z" fill="#263238"/>
<path d="M220.933 188.494L204.609 198.909L206.677 202.15L223.001 191.735L220.933 188.494Z" fill="#263238"/>
<path d="M206.678 202.133L211.94 198.772L227.845 230.098L225.837 231.215L206.678 202.133Z" fill="#263238"/>
<path d="M174.149 224.213C182.128 222.634 206.367 290.85 194.715 293.739C142.994 306.626 100.649 298.508 90.6184 293.739C77.4628 287.435 76.3674 270.542 81.8659 262.746C91.4561 249.225 161.777 226.672 174.149 224.213Z" fill="#AD6359"/>
<path d="M273.477 220.594C273.349 228.466 253.964 226.511 253.964 226.511C256.762 228.437 258.796 231.283 259.71 234.555C261.052 240.386 252.504 245.047 252.504 245.047C254.982 247.651 256.621 250.94 257.207 254.487C257.927 260.2 249.969 266.128 249.969 266.128C250.934 269.776 250.553 273.65 248.895 277.04C244.095 285.91 190.527 294.48 183.858 295.694L170.971 225.888C170.971 225.888 213.058 202.09 224.667 202.885C234.429 203.475 273.671 208.534 273.477 220.594Z" fill="#AD6359"/>
<path d="M253.813 226.253C243.589 223.032 232.613 222.291 222.024 221.678C221.976 221.678 221.93 221.698 221.895 221.732C221.861 221.766 221.842 221.813 221.842 221.861C221.842 221.909 221.861 221.956 221.895 221.99C221.93 222.024 221.976 222.044 222.024 222.044C232.57 222.527 243.234 225.845 253.738 226.758C253.8 226.758 253.86 226.736 253.907 226.696C253.954 226.656 253.985 226.6 253.994 226.538C254.003 226.477 253.99 226.414 253.957 226.362C253.923 226.31 253.872 226.271 253.813 226.253V226.253Z" fill="#263238"/>
<path d="M252.235 244.22C249.842 243.718 247.395 243.53 244.954 243.662C242.362 243.662 239.774 243.684 237.189 243.726C232.005 243.855 226.829 244.117 221.66 244.51C221.434 244.51 221.402 244.876 221.66 244.876C226.815 244.757 231.98 244.714 237.146 244.811C239.734 244.811 242.312 244.929 244.9 245.015C247.33 245.255 249.779 245.226 252.203 244.929C252.277 244.907 252.343 244.862 252.391 244.8C252.439 244.739 252.467 244.664 252.47 244.586C252.474 244.508 252.453 244.431 252.411 244.366C252.369 244.3 252.307 244.25 252.235 244.22V244.22Z" fill="#263238"/>
<path d="M249.742 266.096C247.745 265.452 245.243 265.849 243.17 265.946L236.082 266.236C231.367 266.397 226.653 266.558 221.928 266.558C221.691 266.558 221.67 266.923 221.928 266.923C226.728 266.923 231.528 267.042 236.318 267.02C238.681 267.02 241.033 267.02 243.395 266.956C245.393 266.956 247.906 267.117 249.839 266.333C249.866 266.317 249.886 266.292 249.896 266.263C249.906 266.233 249.905 266.201 249.893 266.173C249.882 266.144 249.86 266.12 249.832 266.106C249.804 266.092 249.772 266.089 249.742 266.096V266.096Z" fill="#263238"/>
<path d="M166.287 225.115L189.452 301.976C189.452 301.976 105.084 306.09 86.9881 292.934C74.4124 283.784 75.4541 266.569 81.1352 260.641C93.5391 247.7 166.287 225.115 166.287 225.115Z" fill="#EBEBEB"/>
<path d="M167.222 298.991C163.581 288.251 150.275 244.005 148.042 234.243C147.891 233.567 148.278 233.309 148.536 233.986C160.22 265.763 164.644 288.166 167.641 298.83C167.705 299.12 167.319 299.281 167.222 298.991Z" fill="#263238"/>
<path d="M166.31 224.32C165.848 224.224 157.718 226.329 155.119 227.091C150.043 228.602 145.003 230.241 139.998 232.01C130.032 235.521 120.254 239.543 110.702 244.059L109.273 244.746C105.783 245.584 102.379 246.787 98.9849 247.904C98.8883 247.904 98.9849 248.086 98.9849 248.054C101.702 247.152 104.462 246.443 107.222 245.713C105.697 246.454 104.161 247.206 102.658 247.99C99.9837 249.375 97.374 250.868 94.7214 252.285C94.7116 252.29 94.7028 252.296 94.6956 252.304C94.6884 252.312 94.6829 252.321 94.6796 252.331C94.6762 252.341 94.6751 252.352 94.6762 252.362C94.6773 252.373 94.6807 252.383 94.686 252.392C94.6914 252.402 94.6987 252.41 94.7073 252.416C94.716 252.422 94.7259 252.426 94.7364 252.428C94.7468 252.43 94.7576 252.43 94.768 252.428C94.7784 252.425 94.7881 252.421 94.7966 252.414C99.2534 250.105 103.882 248.054 108.457 245.971C113.032 243.887 117.8 241.858 122.525 239.946C131.836 236.176 141.33 232.804 150.942 229.84C153.648 229.013 156.311 228.219 159.082 227.445C160.414 227.07 165.955 225.19 166.192 225.169C166.321 225.367 166.418 225.585 166.482 225.813C166.546 226.039 166.804 226.039 166.75 225.813C166.662 225.3 166.514 224.799 166.31 224.32V224.32Z" fill="#263238"/>
<path d="M177.736 302.32C175.287 302.148 166.255 302.588 163.839 302.588C158.963 302.588 154.098 302.588 149.223 302.502C139.428 302.245 129.677 301.536 119.926 300.602C117.23 300.344 114.556 300.054 111.828 299.764C109.101 299.474 106.169 299.259 103.398 298.754C103.291 298.754 103.248 298.905 103.398 298.926C105.825 299.281 108.209 299.85 110.626 300.269C113.042 300.688 115.469 301.053 117.907 301.396C122.783 302.084 127.68 302.567 132.588 302.975C142.382 303.78 152.241 304.049 162.067 303.866C164.838 303.813 175.18 303.383 177.865 302.792C178.133 302.782 178.015 302.341 177.736 302.32Z" fill="#263238"/>
<path d="M339.931 317.43L251.332 323.852L284.452 207.202L373.051 200.78L339.931 317.43Z" fill="white"/>
<path d="M345.989 316.99L257.4 323.412L290.52 206.762L379.109 200.34L345.989 316.99Z" fill="#37474F"/>
<path d="M299.928 206.096C299.704 207.1 299.283 208.05 298.689 208.89C298.096 209.731 297.341 210.446 296.47 210.993C295.664 211.508 295.396 210.424 296.158 209.919C297.275 209.182 298.109 208.088 298.521 206.815C298.575 206.611 298.639 206.375 298.672 206.171C298.862 205.468 298.862 204.726 298.672 204.023C298.58 203.72 298.386 203.459 298.124 203.282C298.099 203.269 298.077 203.251 298.059 203.228C298.059 203.228 297.963 203.228 297.952 203.228C297.895 203.236 297.837 203.236 297.78 203.228C297.568 203.203 297.352 203.236 297.157 203.325C296.781 203.488 296.45 203.738 296.191 204.055C295.872 204.433 295.604 204.852 295.396 205.301C295.269 205.52 295.154 205.746 295.052 205.978V206.139C295.013 206.213 294.984 206.293 294.966 206.375C294.966 206.375 294.902 206.472 294.913 206.525L293.656 206.622C293.912 205.819 294.273 205.053 294.73 204.345C295.063 203.735 295.523 203.204 296.079 202.787C296.634 202.37 297.273 202.078 297.952 201.929C298.458 201.874 298.965 202.018 299.366 202.331C299.767 202.644 300.03 203.1 300.1 203.604C300.252 204.436 300.193 205.293 299.928 206.096V206.096Z" fill="#59C6CD"/>
<path d="M306.866 205.559C306.404 207.583 305.161 209.344 303.407 210.456C302.591 210.971 302.334 209.887 303.096 209.382C304.213 208.648 305.044 207.552 305.448 206.278C305.517 206.068 305.571 205.852 305.609 205.634C305.799 204.931 305.799 204.19 305.609 203.486C305.514 203.182 305.316 202.921 305.051 202.745C305.033 202.748 305.015 202.748 304.997 202.745C304.997 202.745 304.9 202.745 304.879 202.745H304.718C304.505 202.72 304.29 202.753 304.095 202.842C303.719 203.005 303.388 203.255 303.128 203.572C302.802 203.945 302.534 204.365 302.334 204.818C302.206 205.04 302.091 205.27 301.99 205.505V205.656C301.944 205.728 301.911 205.808 301.893 205.892C301.893 205.945 301.84 205.999 301.893 206.042L300.637 206.139C300.888 205.334 301.25 204.568 301.711 203.862C302.042 203.251 302.502 202.719 303.058 202.302C303.614 201.885 304.253 201.593 304.932 201.446C305.438 201.393 305.943 201.539 306.344 201.851C306.744 202.163 307.008 202.618 307.08 203.121C307.204 203.939 307.131 204.775 306.866 205.559V205.559Z" fill="#59C6CD"/>
<path d="M313.761 205.086C313.297 207.116 312.05 208.88 310.292 209.994C309.487 210.499 309.218 209.414 309.981 208.92C311.101 208.187 311.935 207.091 312.343 205.817C312.343 205.613 312.472 205.387 312.505 205.183C312.686 204.479 312.686 203.74 312.505 203.035C312.417 202.73 312.222 202.467 311.957 202.294H311.892C311.892 202.294 311.806 202.294 311.785 202.294H311.613C311.405 202.262 311.192 202.292 311.001 202.38C310.622 202.542 310.287 202.793 310.024 203.11C309.705 203.488 309.437 203.907 309.229 204.356C309.1 204.571 309.004 204.807 308.885 205.043V205.194C308.848 205.269 308.819 205.348 308.799 205.43C308.799 205.484 308.746 205.537 308.799 205.58L307.543 205.677C307.794 204.872 308.155 204.106 308.617 203.4C308.949 202.791 309.409 202.261 309.965 201.846C310.521 201.43 311.16 201.14 311.839 200.995C312.343 200.937 312.85 201.078 313.252 201.389C313.653 201.7 313.917 202.156 313.987 202.659C314.106 203.475 314.028 204.307 313.761 205.086V205.086Z" fill="#59C6CD"/>
<path d="M320.731 204.582C320.505 205.587 320.084 206.538 319.49 207.38C318.897 208.222 318.143 208.939 317.273 209.489C316.467 210.005 316.199 208.91 316.961 208.416C318.076 207.677 318.908 206.583 319.324 205.312C319.378 205.097 319.442 204.872 319.474 204.668C319.663 203.964 319.663 203.223 319.474 202.52C319.38 202.218 319.187 201.957 318.927 201.779H318.862C318.862 201.779 318.765 201.779 318.755 201.779H318.583C318.37 201.743 318.152 201.777 317.96 201.875C317.582 202.03 317.25 202.278 316.993 202.595C316.674 202.973 316.407 203.392 316.199 203.841C316.071 204.063 315.957 204.293 315.855 204.528V204.678C315.819 204.754 315.79 204.833 315.769 204.915C315.769 204.968 315.705 205.022 315.715 205.076L314.459 205.162C314.715 204.359 315.076 203.593 315.533 202.885C315.866 202.276 316.326 201.746 316.882 201.331C317.438 200.916 318.076 200.625 318.755 200.479C319.259 200.421 319.766 200.563 320.168 200.874C320.569 201.185 320.833 201.641 320.903 202.144C321.045 202.958 320.986 203.795 320.731 204.582Z" fill="#59C6CD"/>
<path d="M327.721 204.077C327.258 206.103 326.015 207.866 324.263 208.985C323.447 209.5 323.189 208.405 323.951 207.911C325.066 207.174 325.896 206.079 326.303 204.807C326.372 204.596 326.426 204.381 326.464 204.163C326.655 203.46 326.655 202.718 326.464 202.015C326.369 201.708 326.172 201.443 325.906 201.263C325.888 201.266 325.87 201.266 325.852 201.263C325.852 201.263 325.756 201.263 325.734 201.263H325.573C325.36 201.232 325.144 201.266 324.95 201.36C324.575 201.518 324.243 201.765 323.984 202.079C323.659 202.457 323.392 202.881 323.189 203.336C323.06 203.553 322.945 203.78 322.845 204.012V204.163C322.801 204.236 322.769 204.316 322.749 204.399C322.749 204.453 322.695 204.506 322.749 204.56L321.492 204.646C321.744 203.841 322.105 203.075 322.566 202.369C322.9 201.761 323.36 201.231 323.916 200.816C324.471 200.401 325.11 200.111 325.788 199.964C326.292 199.908 326.798 200.051 327.198 200.362C327.599 200.672 327.864 201.126 327.936 201.628C328.061 202.45 327.988 203.29 327.721 204.077Z" fill="#59C6CD"/>
<path d="M334.605 203.583C334.137 205.608 332.891 207.367 331.136 208.48C330.331 208.996 330.062 207.9 330.825 207.406C331.942 206.67 332.775 205.575 333.187 204.302C333.241 204.098 333.316 203.862 333.348 203.658C333.534 202.954 333.534 202.214 333.348 201.51C333.258 201.204 333.064 200.938 332.801 200.758H332.736C332.736 200.758 332.65 200.758 332.629 200.758C332.572 200.766 332.514 200.766 332.457 200.758C332.248 200.73 332.035 200.763 331.845 200.855C331.464 201.014 331.128 201.265 330.867 201.585C330.548 201.963 330.281 202.382 330.073 202.831C329.944 203.035 329.847 203.271 329.729 203.508V203.669C329.691 203.74 329.662 203.816 329.643 203.894C329.629 203.947 329.629 204.003 329.643 204.055L328.387 204.141C328.64 203.341 329.001 202.578 329.461 201.875C329.794 201.266 330.254 200.735 330.81 200.318C331.366 199.901 332.004 199.608 332.682 199.459C333.187 199.401 333.694 199.543 334.096 199.854C334.497 200.165 334.761 200.621 334.83 201.124C334.953 201.95 334.876 202.793 334.605 203.583V203.583Z" fill="#59C6CD"/>
<path d="M341.532 203.078C341.307 204.082 340.886 205.032 340.293 205.873C339.699 206.714 338.945 207.428 338.073 207.975C337.268 208.491 337 207.406 337.762 206.901C338.879 206.165 339.712 205.07 340.125 203.798C340.178 203.594 340.243 203.357 340.275 203.153C340.465 202.45 340.465 201.709 340.275 201.006C340.183 200.703 339.99 200.441 339.727 200.265C339.702 200.252 339.68 200.233 339.663 200.211C339.663 200.211 339.566 200.211 339.555 200.211C339.498 200.218 339.441 200.218 339.384 200.211C339.171 200.185 338.956 200.219 338.761 200.307C338.385 200.47 338.054 200.721 337.794 201.038C337.471 201.413 337.204 201.833 337 202.283C336.872 202.502 336.757 202.728 336.656 202.96V203.121C336.617 203.197 336.585 203.276 336.559 203.357C336.559 203.357 336.506 203.454 336.559 203.508L335.303 203.604C335.559 202.801 335.92 202.036 336.377 201.328C336.709 200.718 337.169 200.187 337.725 199.77C338.281 199.353 338.92 199.06 339.598 198.911C340.104 198.856 340.611 199 341.012 199.313C341.413 199.626 341.677 200.083 341.746 200.587C341.884 201.422 341.811 202.279 341.532 203.078Z" fill="#59C6CD"/>
<path d="M348.469 202.573C348.007 204.598 346.764 206.358 345.011 207.47C344.195 207.986 343.937 206.901 344.7 206.396C345.815 205.665 346.645 204.573 347.051 203.304C347.12 203.093 347.174 202.878 347.213 202.659C347.398 201.955 347.398 201.215 347.213 200.511C347.117 200.207 346.92 199.946 346.654 199.77C346.636 199.774 346.618 199.774 346.6 199.77C346.6 199.77 346.504 199.77 346.482 199.77H346.321C346.109 199.745 345.893 199.778 345.698 199.867C345.322 200.03 344.991 200.28 344.732 200.597C344.405 200.97 344.137 201.39 343.937 201.843C343.81 202.065 343.695 202.295 343.593 202.53V202.681C343.548 202.753 343.515 202.833 343.497 202.917C343.497 202.971 343.443 203.024 343.497 203.067L342.24 203.164C342.492 202.359 342.853 201.593 343.314 200.887C343.646 200.276 344.105 199.744 344.661 199.327C345.217 198.91 345.857 198.618 346.536 198.471C347.041 198.419 347.547 198.564 347.947 198.876C348.348 199.188 348.612 199.644 348.684 200.146C348.806 200.961 348.732 201.793 348.469 202.573V202.573Z" fill="#59C6CD"/>
<path d="M355.408 202.068C354.944 204.098 353.697 205.862 351.939 206.976C351.133 207.481 350.865 206.396 351.627 205.902C352.747 205.169 353.581 204.073 353.99 202.799C354.044 202.595 354.119 202.369 354.151 202.165C354.333 201.461 354.333 200.722 354.151 200.017C354.063 199.713 353.869 199.45 353.603 199.276H353.539C353.539 199.276 353.453 199.276 353.431 199.276H353.26C353.052 199.244 352.839 199.274 352.648 199.362C352.268 199.525 351.933 199.775 351.67 200.092C351.351 200.47 351.084 200.889 350.876 201.338C350.747 201.553 350.65 201.789 350.532 202.026V202.176C350.496 202.252 350.467 202.331 350.446 202.412C350.446 202.466 350.446 202.52 350.446 202.563L349.189 202.659C349.44 201.854 349.802 201.088 350.263 200.382C350.596 199.773 351.056 199.243 351.612 198.828C352.168 198.413 352.807 198.122 353.485 197.977C353.99 197.919 354.497 198.06 354.898 198.371C355.3 198.683 355.563 199.138 355.633 199.641C355.752 200.457 355.675 201.289 355.408 202.068V202.068Z" fill="#59C6CD"/>
<path d="M362.334 201.564C362.109 202.569 361.687 203.52 361.094 204.362C360.5 205.204 359.747 205.921 358.876 206.472C358.071 206.987 357.802 205.892 358.565 205.398C359.677 204.656 360.509 203.564 360.927 202.294C360.981 202.079 361.046 201.854 361.078 201.65C361.266 200.946 361.266 200.205 361.078 199.502C360.984 199.2 360.791 198.939 360.53 198.761H360.466C360.466 198.761 360.369 198.761 360.358 198.761H360.186C359.974 198.725 359.755 198.759 359.564 198.857C359.186 199.012 358.854 199.26 358.597 199.577C358.274 199.952 358.007 200.372 357.802 200.823C357.675 201.045 357.56 201.275 357.459 201.51V201.66C357.419 201.736 357.387 201.815 357.362 201.897C357.362 201.95 357.308 202.004 357.362 202.058L356.105 202.144C356.362 201.341 356.723 200.575 357.179 199.867C357.512 199.258 357.972 198.728 358.528 198.313C359.084 197.898 359.723 197.608 360.401 197.461C360.906 197.403 361.413 197.545 361.814 197.856C362.216 198.167 362.479 198.623 362.549 199.126C362.678 199.944 362.604 200.781 362.334 201.564V201.564Z" fill="#59C6CD"/>
<path d="M369.272 201.059C368.808 203.086 367.566 204.849 365.814 205.967C364.998 206.482 364.74 205.387 365.502 204.893C366.617 204.157 367.447 203.062 367.854 201.789C367.923 201.579 367.977 201.363 368.015 201.145C368.2 200.441 368.2 199.701 368.015 198.997C367.92 198.69 367.723 198.425 367.457 198.245C367.439 198.249 367.421 198.249 367.403 198.245C367.403 198.245 367.306 198.245 367.285 198.245H367.124C366.911 198.215 366.694 198.248 366.501 198.342C366.126 198.501 365.794 198.747 365.534 199.062C365.21 199.442 364.939 199.865 364.729 200.318C364.603 200.536 364.492 200.762 364.396 200.995V201.145C364.352 201.218 364.32 201.298 364.299 201.381C364.299 201.435 364.246 201.489 364.299 201.542L363.043 201.628C363.294 200.824 363.656 200.057 364.117 199.351C364.45 198.743 364.911 198.214 365.466 197.799C366.022 197.384 366.661 197.093 367.339 196.946C367.843 196.891 368.348 197.033 368.749 197.344C369.15 197.654 369.414 198.109 369.487 198.61C369.612 199.432 369.538 200.272 369.272 201.059Z" fill="#59C6CD"/>
<path d="M376.21 200.565C375.743 202.59 374.497 204.349 372.741 205.462C371.936 205.978 371.668 204.882 372.43 204.388C373.547 203.652 374.381 202.558 374.793 201.285C374.846 201.081 374.911 200.844 374.954 200.64C375.139 199.936 375.139 199.196 374.954 198.492C374.863 198.186 374.67 197.921 374.406 197.741H374.342C374.342 197.741 374.256 197.741 374.234 197.741C374.177 197.748 374.119 197.748 374.062 197.741C373.853 197.712 373.64 197.746 373.45 197.837C373.069 197.996 372.733 198.247 372.473 198.568C372.154 198.946 371.886 199.365 371.678 199.813C371.549 200.017 371.453 200.254 371.335 200.49V200.651C371.297 200.722 371.268 200.798 371.249 200.877C371.234 200.929 371.234 200.985 371.249 201.038L369.992 201.124C370.247 200.32 370.608 199.555 371.066 198.847C371.402 198.24 371.863 197.712 372.418 197.297C372.974 196.882 373.611 196.591 374.288 196.441C374.792 196.383 375.3 196.525 375.701 196.836C376.102 197.147 376.366 197.603 376.436 198.106C376.558 198.932 376.481 199.775 376.21 200.565V200.565Z" fill="#59C6CD"/>
<path d="M374.75 226.565C379.443 236.155 391.106 248.043 392.147 255.872C392.471 257.802 392.164 259.784 391.272 261.525C390.381 263.266 388.951 264.673 387.196 265.538C387.196 265.538 395.111 269.372 394.875 276.664C394.746 280.422 388.646 283.515 388.646 283.515C388.646 283.515 394.843 286.866 394.241 293.342C393.747 298.497 387.712 300.859 387.712 300.859C387.712 300.859 392.158 306.82 390.01 311.878C385.596 322.209 341.125 322.725 334.069 306.422C330.772 298.83 341.64 299.291 341.64 299.291C341.64 299.291 326.176 294.856 325.832 285.685C325.488 276.513 339.578 277.974 339.578 277.974C339.578 277.974 324.629 273.539 325.231 264.013C325.864 254.09 339.707 257.956 339.707 257.956C339.707 257.956 329.741 251.362 331.878 244.167C335.401 232.289 354.291 246.959 364.096 244.532L369.305 228.348L374.75 226.565Z" fill="#AD6359"/>
<path d="M383.823 240.472C380.183 231 391.824 219.123 389.633 209.575C386.68 196.688 372.236 209.511 369.229 228.369L369.443 243.404L383.823 240.472Z" fill="#AD6359"/>
<path d="M386.788 301.343C386.928 301.343 386.981 301.536 386.788 301.568C372.204 305.306 355.032 304.94 340.953 299.42C340.491 299.238 340.588 298.411 341.135 298.518C356.815 301.418 370.905 302.803 386.788 301.343Z" fill="#263238"/>
<path d="M388.861 283.612C389.033 283.612 389.065 283.881 388.861 283.924C373.826 287.693 354.495 286.748 339.009 278.414C338.472 278.135 338.29 277.34 338.923 277.63C349.652 282.377 374.556 285.03 388.861 283.612Z" fill="#263238"/>
<path d="M338.729 257.011C353.882 264.421 369.873 266.236 386.594 265.731C386.809 265.731 386.798 266.032 386.594 266.086C378.486 268.556 367.811 267.772 359.552 266.451C351.865 265.375 344.593 262.306 338.46 257.548C338.224 257.355 338.46 256.861 338.729 257.011Z" fill="#263238"/>
<path d="M8.07617 388.224L62.2131 387.966L116.35 387.869L224.624 387.687L332.898 387.869L387.034 387.966L441.171 388.224L387.034 388.492L332.898 388.578L224.624 388.761L116.35 388.578L62.2131 388.481L8.07617 388.224Z" fill="#263238"/>
<path d="M74.497 342.635H26.793V414.202H74.497V342.635Z" fill="#59C6CD"/>
<path d="M80.2644 323.412H21.0371V342.625H80.2644V323.412Z" fill="#455A64"/>
<path d="M66.5296 363.223H34.7734V394.979H66.5296V363.223Z" fill="white"/>
<path opacity="0.1" d="M26.793 342.635V348.209L53.652 358.358V414.191H66.5284V342.635H26.793Z" fill="black"/>
<path d="M11.9844 412.559C11.9844 411.771 12.1397 410.991 12.4416 410.263C12.7434 409.535 13.1857 408.874 13.7433 408.318C14.3009 407.761 14.9628 407.32 15.6911 407.019C16.4194 406.719 17.1998 406.565 17.9877 406.566H29.9298C30.7181 406.565 31.499 406.719 32.2279 407.019C32.9568 407.32 33.6194 407.761 34.1779 408.317C34.7363 408.874 35.1797 409.535 35.4827 410.262C35.7857 410.99 35.9424 411.771 35.9438 412.559V412.559C35.9409 414.152 35.3061 415.679 34.1785 416.805C33.051 417.93 31.5229 418.562 29.9298 418.562H18.0306C17.239 418.566 16.4544 418.414 15.7217 418.115C14.9891 417.815 14.3227 417.374 13.761 416.816C13.1993 416.258 12.7532 415.595 12.4483 414.865C12.1434 414.134 11.9858 413.351 11.9844 412.559V412.559Z" fill="#455A64"/>
<path d="M11.9844 412.559C11.9844 411.771 12.1397 410.991 12.4416 410.263C12.7434 409.535 13.1858 408.874 13.7434 408.318C14.301 407.761 14.9628 407.32 15.6911 407.019C16.4194 406.719 17.1998 406.565 17.9877 406.566H23.948V418.584H18.0306C17.2372 418.588 16.4509 418.435 15.7168 418.134C14.9827 417.833 14.3154 417.39 13.7534 416.83C13.1914 416.27 12.7458 415.604 12.4421 414.871C12.1385 414.138 11.983 413.352 11.9844 412.559Z" fill="#59C6CD"/>
<path d="M93.604 412.559C93.6026 413.347 93.4459 414.128 93.1429 414.855C92.8399 415.583 92.3965 416.244 91.8381 416.801C91.2796 417.357 90.617 417.798 89.8881 418.099C89.1592 418.399 88.3783 418.553 87.59 418.551H75.7445C74.9561 418.553 74.1752 418.399 73.4463 418.099C72.7174 417.798 72.0548 417.357 71.4964 416.801C70.9379 416.244 70.4946 415.583 70.1916 414.855C69.8886 414.128 69.7319 413.347 69.7305 412.559V412.559C69.7305 410.964 70.3641 409.434 71.4919 408.306C72.6198 407.179 74.1495 406.545 75.7445 406.545H87.6329C89.2205 406.556 90.7391 407.195 91.8577 408.322C92.9763 409.448 93.604 410.971 93.604 412.559V412.559Z" fill="#455A64"/>
<path d="M93.6023 412.559C93.6009 413.347 93.4442 414.128 93.1412 414.855C92.8382 415.583 92.3948 416.244 91.8364 416.801C91.2779 417.357 90.6153 417.798 89.8864 418.099C89.1575 418.399 88.3766 418.553 87.5883 418.551H81.6816V406.545H87.6312C89.2188 406.556 90.7375 407.195 91.856 408.322C92.9746 409.448 93.6023 410.971 93.6023 412.559V412.559Z" fill="#59C6CD"/>
<path d="M107.145 414.975C106.589 415.533 105.928 415.976 105.2 416.278C104.472 416.58 103.691 416.735 102.903 416.735C102.115 416.735 101.335 416.58 100.607 416.278C99.8792 415.976 99.218 415.533 98.6614 414.975L90.2417 406.567C89.1177 405.441 88.4863 403.915 88.4863 402.325C88.4863 400.734 89.1177 399.208 90.2417 398.082V398.082C91.371 396.957 92.9002 396.325 94.4945 396.325C96.0887 396.325 97.618 396.957 98.7473 398.082L107.156 406.491C108.276 407.62 108.904 409.146 108.902 410.736C108.9 412.325 108.268 413.85 107.145 414.975V414.975Z" fill="#455A64"/>
<path d="M107.145 414.975C106.588 415.533 105.927 415.976 105.199 416.278C104.471 416.58 103.691 416.735 102.903 416.735C102.115 416.735 101.335 416.58 100.607 416.278C99.8788 415.976 99.2176 415.533 98.661 414.975L94.4512 410.765L102.946 402.271L107.156 406.48C108.279 407.609 108.909 409.138 108.907 410.73C108.905 412.323 108.271 413.849 107.145 414.975V414.975Z" fill="#59C6CD"/>
<path d="M52.7285 424.576C52.7299 423.788 52.8866 423.008 53.1896 422.28C53.4926 421.552 53.936 420.891 54.4944 420.335C55.0529 419.778 55.7155 419.337 56.4444 419.037C57.1732 418.736 57.9542 418.583 58.7425 418.584H70.631C71.4193 418.583 72.2002 418.736 72.9291 419.037C73.658 419.337 74.3206 419.778 74.8791 420.335C75.4375 420.891 75.8809 421.552 76.1839 422.28C76.4869 423.008 76.6436 423.788 76.645 424.576V424.576C76.6421 426.17 76.0073 427.697 74.8797 428.822C73.7522 429.948 72.2241 430.58 70.631 430.58H58.7425C57.1494 430.58 55.6213 429.948 54.4938 428.822C53.3662 427.697 52.7314 426.17 52.7285 424.576Z" fill="#455A64"/>
<path d="M52.7285 424.576C52.7299 423.788 52.8866 423.008 53.1896 422.28C53.4926 421.552 53.936 420.891 54.4944 420.335C55.0529 419.778 55.7155 419.337 56.4444 419.037C57.1733 418.736 57.9542 418.583 58.7425 418.584H64.6921V430.601H58.7425C57.9519 430.601 57.1689 430.445 56.4386 430.142C55.7082 429.84 55.0448 429.396 54.4862 428.836C53.9276 428.276 53.4848 427.612 53.1832 426.881C52.8816 426.15 52.7271 425.367 52.7285 424.576Z" fill="#59C6CD"/>
<path d="M298.895 411.42L298.595 415.63C298.595 415.695 298.595 415.77 298.595 415.845C298.369 417.177 296.855 418.283 294.589 418.97C292.176 419.642 289.667 419.903 287.168 419.743L286.094 419.668C285.729 419.668 285.353 419.604 285.02 419.55C279.285 418.809 275.054 416.446 275.226 413.987L275.516 409.788C275.344 412.247 279.575 414.61 285.31 415.351L286.384 415.458C286.749 415.458 287.125 415.523 287.458 415.534C289.957 415.699 292.467 415.437 294.879 414.76C297.145 414.084 298.648 412.988 298.884 411.646C298.884 411.56 298.884 411.506 298.895 411.42Z" fill="#DBDBDB"/>
<path d="M279.501 406.448C281.906 405.777 284.408 405.515 286.9 405.675L285.257 415.34C285.611 415.34 285.987 415.426 286.331 415.448C286.674 415.469 287.061 415.512 287.405 415.534L289.048 405.868C294.954 406.62 299.261 409.09 298.821 411.635C298.606 412.978 297.092 414.073 294.826 414.771C292.413 415.443 289.904 415.704 287.405 415.544C287.04 415.544 286.664 415.544 286.331 415.459C285.998 415.373 285.59 415.394 285.257 415.351C279.35 414.599 275.044 412.129 275.484 409.584C275.71 408.242 277.245 407.136 279.501 406.448Z" fill="white"/>
<path d="M286.911 405.675L287.985 405.75L289.059 405.868L287.415 415.534C287.05 415.534 286.674 415.534 286.342 415.448C286.009 415.362 285.6 415.383 285.268 415.34L286.911 405.675Z" fill="#DBDBDB"/>
<path d="M298.229 419.174V423.384C298.224 423.456 298.224 423.528 298.229 423.599C298.347 424.941 299.775 426.176 301.966 427.036C304.317 427.899 306.797 428.36 309.301 428.4H310.375C310.74 428.4 311.116 428.4 311.449 428.4C317.227 428.12 321.641 426.101 321.662 423.631V419.421C321.662 421.881 317.227 423.9 311.449 424.19H310.375C310.018 424.21 309.659 424.21 309.301 424.19C306.798 424.153 304.318 423.695 301.966 422.837C299.754 421.977 298.347 420.753 298.229 419.4C298.223 419.325 298.223 419.249 298.229 419.174Z" fill="#DBDBDB"/>
<path d="M317.967 415.759C315.619 414.896 313.143 414.435 310.642 414.396L311.512 424.168C311.147 424.168 310.771 424.168 310.438 424.168H309.364L308.494 414.396C302.545 414.675 298.056 416.801 298.292 419.357C298.41 420.721 299.828 421.935 302.029 422.804C304.381 423.667 306.86 424.129 309.364 424.168H310.438C310.803 424.168 311.179 424.168 311.512 424.168C317.451 423.889 321.951 421.763 321.715 419.207C321.596 417.843 320.2 416.629 317.967 415.759Z" fill="white"/>
<path d="M310.644 414.396H309.57C309.205 414.396 308.847 414.396 308.496 414.396L309.366 424.168H310.44C310.805 424.168 311.181 424.168 311.514 424.168L310.644 414.396Z" fill="#DBDBDB"/>
<path d="M266.859 417.821C264.293 419.272 261.417 420.09 258.471 420.205C255.952 420.378 253.426 419.993 251.072 419.078C250.814 418.97 250.546 418.831 250.288 418.702C250.03 418.573 249.794 418.423 249.569 418.272C248.927 417.91 248.378 417.404 247.962 416.795C247.547 416.186 247.277 415.49 247.174 414.761L246.787 410.927C246.898 411.665 247.179 412.367 247.608 412.979C248.036 413.59 248.601 414.093 249.257 414.449C249.472 414.585 249.708 414.725 249.966 414.868C250.216 415.008 250.474 415.134 250.739 415.244C253.093 416.159 255.619 416.544 258.139 416.372C261.082 416.258 263.956 415.448 266.526 414.009C269.136 412.441 270.36 410.454 270.167 408.639L270.553 412.473C270.693 414.277 269.469 416.264 266.859 417.821Z" fill="#DBDBDB"/>
<path d="M250.698 415.244L250.913 417.478L266.506 408.124L266.13 404.29L249.184 414.449C249.388 414.589 249.635 414.728 249.892 414.868C250.15 415.008 250.397 415.126 250.698 415.244Z" fill="#59C6CD"/>
<path d="M266.15 404.29C266.418 404.408 266.687 404.526 266.944 404.666C267.202 404.805 267.428 404.934 267.653 405.084L250.696 415.244C250.417 415.126 250.17 415.008 249.912 414.868C249.654 414.728 249.407 414.589 249.203 414.449L266.15 404.29Z" fill="#DBDBDB"/>
<path d="M267.655 405.085L268.041 408.908L251.073 419.067L250.697 415.244L267.655 405.085Z" fill="#DBDBDB"/>
<path d="M258.751 403.162C261.271 402.993 263.796 403.378 266.151 404.29L249.204 414.449C249.408 414.589 249.655 414.728 249.913 414.868C250.171 415.008 250.418 415.126 250.697 415.244L267.654 405.085C271.349 407.469 270.876 411.346 266.473 413.998C263.907 415.44 261.037 416.253 258.096 416.372C255.577 416.541 253.051 416.156 250.697 415.244C250.418 415.126 250.171 415.008 249.913 414.868C249.655 414.728 249.408 414.589 249.204 414.449C245.51 412.054 245.982 408.188 250.385 405.536C252.948 404.096 255.815 403.282 258.751 403.162V403.162Z" fill="white"/>
<path d="M328.847 414.728C331.41 416.178 334.281 416.995 337.224 417.112C339.746 417.286 342.277 416.901 344.634 415.985C344.891 415.877 345.16 415.738 345.418 415.609C345.675 415.48 345.912 415.33 346.126 415.179C346.779 414.823 347.341 414.321 347.768 413.712C348.194 413.103 348.474 412.403 348.586 411.668L348.972 407.834C348.86 408.571 348.578 409.273 348.15 409.884C347.721 410.495 347.158 410.999 346.502 411.356C346.288 411.492 346.051 411.632 345.794 411.775C345.543 411.915 345.285 412.041 345.02 412.151C342.663 413.067 340.133 413.452 337.61 413.278C334.67 413.168 331.798 412.358 329.234 410.916C326.624 409.348 325.4 407.361 325.582 405.546L325.196 409.38C325.013 411.195 326.237 413.171 328.847 414.728Z" fill="#DBDBDB"/>
<path d="M345.01 412.151L344.785 414.385L329.17 405.031L329.557 401.208L346.503 411.356C346.275 411.509 346.038 411.649 345.794 411.775C345.537 411.915 345.279 412.033 345.01 412.151Z" fill="#59C6CD"/>
<path d="M329.557 401.208C329.289 401.315 329.02 401.444 328.763 401.573C328.505 401.702 328.279 401.841 328.043 401.992L345.011 412.151C345.28 412.033 345.537 411.915 345.795 411.775C346.039 411.649 346.276 411.509 346.504 411.356L329.557 401.208Z" fill="#DBDBDB"/>
<path d="M328.053 401.992L327.666 405.815L344.634 415.974L345.01 412.151L328.053 401.992Z" fill="#DBDBDB"/>
<path d="M336.945 400.08C334.429 399.9 331.905 400.286 329.557 401.207L346.503 411.356C346.275 411.509 346.039 411.649 345.795 411.775C345.537 411.915 345.279 412.033 345.011 412.151L328.042 401.991C324.359 404.386 324.821 408.252 329.235 410.905C331.8 412.347 334.671 413.16 337.611 413.278C340.131 413.459 342.659 413.074 345.011 412.151C345.279 412.033 345.537 411.915 345.795 411.775C346.039 411.649 346.275 411.509 346.503 411.356C350.198 408.961 349.725 405.095 345.322 402.442C342.758 401 339.886 400.19 336.945 400.08V400.08Z" fill="white"/>
<path d="M257.42 400.37L257.367 404.827C257.353 405.118 257.23 405.394 257.023 405.6C256.25 406.481 254.274 407.179 251.707 407.576C249.116 407.953 246.493 408.072 243.878 407.93L242.804 407.855L241.73 407.748C236.941 407.222 233.815 405.911 233.826 404.526L233.891 400.091C233.891 401.465 237.016 402.776 241.795 403.312C242.128 403.366 242.504 403.398 242.869 403.42L243.943 403.506C246.558 403.657 249.181 403.538 251.772 403.151C254.328 402.743 256.314 402.077 257.141 401.165C257.333 400.946 257.434 400.661 257.42 400.37V400.37Z" fill="#DBDBDB"/>
<path d="M242.879 403.409L242.814 407.855L241.74 407.748L241.794 403.302L242.879 403.409Z" fill="#DBDBDB"/>
<path d="M247.401 396.966L248.475 397.041C248.84 397.041 249.198 397.073 249.549 397.138L243.964 403.474L242.89 403.409L241.816 403.302L247.401 396.966Z" fill="#DBDBDB"/>
<path d="M249.538 397.137L249.473 401.583L243.889 407.93L243.953 403.474L249.538 397.137Z" fill="#DBDBDB"/>
<path d="M239.592 397.309C242.175 396.926 244.792 396.811 247.399 396.966L241.804 403.302L242.878 403.409L243.952 403.474L249.536 397.137C255.196 397.76 258.546 399.5 257.054 401.154C256.28 402.034 254.304 402.722 251.684 403.13C249.1 403.513 246.484 403.628 243.876 403.474L242.803 403.409L241.729 403.302C236.058 402.679 232.718 400.95 234.211 399.285C235.038 398.405 237.014 397.717 239.592 397.309Z" fill="white"/>
<path d="M286.449 400.714L286.514 405.16C286.516 405.305 286.547 405.449 286.606 405.582C286.665 405.715 286.751 405.834 286.857 405.933C287.631 406.814 289.607 407.512 292.173 407.92C294.761 408.296 297.38 408.415 299.991 408.274L301.065 408.188C301.409 408.188 301.774 408.135 302.139 408.081C306.929 407.555 310.054 406.244 310.033 404.859V400.413C310.033 401.798 306.908 403.109 302.129 403.635L301.055 403.742L299.981 403.817C297.37 403.98 294.748 403.861 292.163 403.463C289.596 403.066 287.62 402.389 286.847 401.487C286.73 401.393 286.635 401.275 286.566 401.142C286.498 401.009 286.458 400.863 286.449 400.714Z" fill="#DBDBDB"/>
<path d="M301.012 403.742L301.065 408.188C301.42 408.188 301.785 408.124 302.139 408.092L302.075 403.646L301.012 403.742Z" fill="#DBDBDB"/>
<path d="M296.48 397.298L295.406 397.374L294.332 397.47L299.916 403.817L300.99 403.742L302.064 403.645L296.48 397.298Z" fill="#DBDBDB"/>
<path d="M294.342 397.47L294.395 401.927L299.991 408.263L299.926 403.817L294.342 397.47Z" fill="#DBDBDB"/>
<path d="M304.277 397.642C301.696 397.264 299.084 397.149 296.48 397.299L302.064 403.645L300.991 403.742L299.917 403.817L294.332 397.47C288.662 398.104 285.322 399.833 286.815 401.487C287.588 402.367 289.564 403.066 292.131 403.463C294.717 403.85 297.337 403.969 299.949 403.817L301.023 403.742L302.097 403.645C307.778 403.023 311.118 401.283 309.614 399.629C308.841 398.748 306.854 398.05 304.277 397.642Z" fill="white"/>
<path d="M259.375 422.643L259.429 427.1C259.431 427.246 259.462 427.389 259.521 427.522C259.58 427.655 259.666 427.774 259.772 427.873C260.546 428.754 262.522 429.441 265.088 429.849C267.676 430.226 270.295 430.345 272.907 430.204L273.98 430.129L275.054 430.021C279.844 429.495 282.969 428.174 282.959 426.799L282.894 422.364C282.894 423.739 279.769 425.049 274.99 425.586L273.916 425.693L272.842 425.768C270.227 425.931 267.603 425.812 265.013 425.414C262.446 425.017 260.47 424.34 259.697 423.438C259.489 423.226 259.374 422.94 259.375 422.643V422.643Z" fill="#DBDBDB"/>
<path d="M273.928 425.715L273.992 430.172L275.066 430.064L275.002 425.618L273.928 425.715Z" fill="#DBDBDB"/>
<path d="M269.394 419.271L268.32 419.346L267.246 419.454L272.831 425.79L273.904 425.715L274.978 425.618L269.394 419.271Z" fill="#DBDBDB"/>
<path d="M267.258 419.411L267.311 423.857L272.907 430.193L272.842 425.747L267.258 419.411Z" fill="#DBDBDB"/>
<path d="M277.246 419.583C274.662 419.196 272.046 419.077 269.438 419.228L275.023 425.575L273.949 425.672L272.875 425.747L267.29 419.411C261.631 420.034 258.28 421.763 259.773 423.427C260.546 424.297 262.522 424.995 265.089 425.403C267.677 425.781 270.296 425.896 272.907 425.747L273.981 425.672L275.055 425.575C280.736 424.952 284.076 423.213 282.572 421.559C281.756 420.678 279.77 419.991 277.246 419.583Z" fill="white"/>
<path d="M372.032 325.624H409.244C411.659 325.624 413.975 326.584 415.683 328.292C417.391 329.999 418.35 332.316 418.35 334.731V416.629C418.35 417.532 417.992 418.398 417.353 419.036C416.715 419.675 415.849 420.033 414.946 420.033H366.383C365.48 420.033 364.614 419.675 363.976 419.036C363.337 418.398 362.979 417.532 362.979 416.629V334.72C362.981 332.316 363.935 330.011 365.631 328.307C367.327 326.603 369.628 325.638 372.032 325.624V325.624Z" fill="#59C6CD"/>
<path d="M406.687 313.639H374.598V328.341H406.687V313.639Z" fill="#59C6CD"/>
<path d="M418.35 356.371H362.936V393.733H418.35V356.371Z" fill="#EBEBEB"/>
<path d="M418.35 386.097H362.936V389.48H418.35V386.097Z" fill="#455A64"/>
<path d="M418.35 360.634H362.936V364.017H418.35V360.634Z" fill="#455A64"/>
<path d="M408.922 303.351H372.365V316.968H408.922V303.351Z" fill="#455A64"/>
<path d="M410.832 316.957H370.441V320.985H410.832V316.957Z" fill="#37474F"/>
<path d="M375.285 305.252H374.812C374.48 305.252 374.211 305.521 374.211 305.853V314.466C374.211 314.798 374.48 315.067 374.812 315.067H375.285C375.617 315.067 375.886 314.798 375.886 314.466V305.853C375.886 305.521 375.617 305.252 375.285 305.252Z" fill="#37474F"/>
<path d="M378.4 305.252H377.928C377.595 305.252 377.326 305.521 377.326 305.853V314.466C377.326 314.798 377.595 315.067 377.928 315.067H378.4C378.732 315.067 379.002 314.798 379.002 314.466V305.853C379.002 305.521 378.732 305.252 378.4 305.252Z" fill="#37474F"/>
<path d="M381.042 305.252H381.525C381.682 305.252 381.832 305.314 381.943 305.425C382.054 305.535 382.116 305.686 382.116 305.842V314.434C382.116 314.593 382.052 314.746 381.94 314.859C381.827 314.972 381.674 315.035 381.514 315.035H381.031C380.872 315.035 380.719 314.972 380.606 314.859C380.493 314.746 380.43 314.593 380.43 314.434V305.842C380.431 305.763 380.448 305.685 380.48 305.613C380.511 305.54 380.557 305.475 380.613 305.42C380.67 305.365 380.737 305.322 380.811 305.293C380.884 305.264 380.963 305.25 381.042 305.252V305.252Z" fill="#37474F"/>
<path d="M384.64 305.252H384.168C383.836 305.252 383.566 305.521 383.566 305.853V314.466C383.566 314.798 383.836 315.067 384.168 315.067H384.64C384.972 315.067 385.242 314.798 385.242 314.466V305.853C385.242 305.521 384.972 305.252 384.64 305.252Z" fill="#37474F"/>
<path d="M387.765 305.252H387.293C386.961 305.252 386.691 305.521 386.691 305.853V314.466C386.691 314.798 386.961 315.067 387.293 315.067H387.765C388.097 315.067 388.367 314.798 388.367 314.466V305.853C388.367 305.521 388.097 305.252 387.765 305.252Z" fill="#37474F"/>
<path d="M390.395 305.252H390.879C391.038 305.252 391.191 305.315 391.304 305.428C391.417 305.541 391.48 305.694 391.48 305.853V314.445C391.48 314.604 391.417 314.757 391.304 314.87C391.191 314.983 391.038 315.046 390.879 315.046H390.395C390.239 315.046 390.089 314.984 389.978 314.873C389.867 314.762 389.805 314.612 389.805 314.455V305.864C389.803 305.785 389.818 305.706 389.846 305.633C389.875 305.559 389.918 305.492 389.973 305.435C390.028 305.379 390.094 305.333 390.166 305.302C390.239 305.27 390.316 305.253 390.395 305.252V305.252Z" fill="#37474F"/>
<path d="M393.994 305.252H393.521C393.189 305.252 392.92 305.521 392.92 305.853V314.466C392.92 314.798 393.189 315.067 393.521 315.067H393.994C394.326 315.067 394.595 314.798 394.595 314.466V305.853C394.595 305.521 394.326 305.252 393.994 305.252Z" fill="#37474F"/>
<path d="M397.119 305.252H396.646C396.314 305.252 396.045 305.521 396.045 305.853V314.466C396.045 314.798 396.314 315.067 396.646 315.067H397.119C397.451 315.067 397.72 314.798 397.72 314.466V305.853C397.72 305.521 397.451 305.252 397.119 305.252Z" fill="#37474F"/>
<path d="M399.761 305.252H400.244C400.403 305.252 400.556 305.315 400.669 305.428C400.782 305.541 400.845 305.694 400.845 305.853V314.445C400.845 314.604 400.782 314.757 400.669 314.87C400.556 314.983 400.403 315.046 400.244 315.046H399.761C399.604 315.046 399.454 314.984 399.343 314.873C399.232 314.762 399.17 314.612 399.17 314.455V305.864C399.169 305.785 399.183 305.706 399.212 305.633C399.241 305.559 399.284 305.492 399.339 305.435C399.393 305.379 399.459 305.333 399.531 305.302C399.604 305.27 399.682 305.253 399.761 305.252V305.252Z" fill="#37474F"/>
<path d="M403.347 305.252H402.875C402.543 305.252 402.273 305.521 402.273 305.853V314.466C402.273 314.798 402.543 315.067 402.875 315.067H403.347C403.68 315.067 403.949 314.798 403.949 314.466V305.853C403.949 305.521 403.68 305.252 403.347 305.252Z" fill="#37474F"/>
<path d="M406.472 305.252H406C405.668 305.252 405.398 305.521 405.398 305.853V314.466C405.398 314.798 405.668 315.067 406 315.067H406.472C406.805 315.067 407.074 314.798 407.074 314.466V305.853C407.074 305.521 406.805 305.252 406.472 305.252Z" fill="#37474F"/>
<path d="M141.264 442.513L141.574 411.381L137.461 411.34L137.152 442.472L141.264 442.513Z" fill="#59C6CD"/>
<path opacity="0.1" d="M141.264 442.513L141.574 411.381L137.461 411.34L137.152 442.472L141.264 442.513Z" fill="black"/>
<path d="M113.381 436.734L113.57 417.673L109.457 417.632L109.268 436.693L113.381 436.734Z" fill="#59C6CD"/>
<path opacity="0.1" d="M113.381 436.734L113.57 417.673L109.457 417.632L109.268 436.693L113.381 436.734Z" fill="black"/>
<path d="M137.267 432.481L137.367 422.365L113.527 422.128L113.426 432.244L137.267 432.481Z" fill="#59C6CD"/>
<path opacity="0.2" d="M133.404 432.438L134.811 422.332L137.356 422.364L137.249 432.47L133.404 432.438Z" fill="black"/>
<path d="M228.834 427.863C232.969 427.766 237.103 427.744 241.249 427.723H253.653L266.056 427.927L272.253 428.088C274.326 428.163 276.388 428.217 278.46 428.324C276.388 428.378 274.326 428.389 272.253 428.432H266.046H253.642L241.238 428.228C237.103 428.11 232.969 428.002 228.834 427.863Z" fill="#263238"/>
<path d="M225.878 438.944L226.1 416.661L141.532 415.819L141.31 438.102L225.878 438.944Z" fill="#59C6CD"/>
<path opacity="0.6" d="M225.878 438.944L226.1 416.661L141.532 415.819L141.31 438.102L225.878 438.944Z" fill="white"/>
<path d="M225.909 436.013L226.072 419.594L145.51 418.792L145.347 435.212L225.909 436.013Z" fill="#59C6CD"/>
<path d="M217.316 421.57L217.357 417.425L216.863 417.42L216.822 421.565L217.316 421.57Z" fill="#263238"/>
<path d="M215.668 421.581L215.709 417.436L215.215 417.431L215.174 421.576L215.668 421.581Z" fill="#263238"/>
<path d="M213.998 421.56L214.039 417.415L213.545 417.41L213.504 421.555L213.998 421.56Z" fill="#263238"/>
<path d="M212.34 421.549L212.381 417.404L211.887 417.399L211.846 421.544L212.34 421.549Z" fill="#263238"/>
<path d="M210.643 424.552L210.715 417.368L210.221 417.363L210.149 424.547L210.643 424.552Z" fill="#263238"/>
<path d="M209.095 421.518L209.137 417.372L208.643 417.368L208.602 421.513L209.095 421.518Z" fill="#263238"/>
<path d="M207.426 421.496L207.467 417.351L206.973 417.346L206.932 421.491L207.426 421.496Z" fill="#263238"/>
<path d="M205.767 421.464L205.809 417.319L205.315 417.314L205.273 421.46L205.767 421.464Z" fill="#263238"/>
<path d="M204.072 421.442L204.113 417.297L203.619 417.292L203.578 421.437L204.072 421.442Z" fill="#263238"/>
<path d="M202.403 424.478L202.475 417.294L201.981 417.289L201.909 424.473L202.403 424.478Z" fill="#263238"/>
<path d="M200.865 421.433L200.906 417.288L200.412 417.283L200.371 421.428L200.865 421.433Z" fill="#263238"/>
<path d="M199.185 421.39L199.227 417.245L198.733 417.24L198.691 421.385L199.185 421.39Z" fill="#263238"/>
<path d="M197.527 421.38L197.568 417.235L197.074 417.23L197.033 421.375L197.527 421.38Z" fill="#263238"/>
<path d="M195.867 421.391L195.908 417.245L195.414 417.24L195.373 421.386L195.867 421.391Z" fill="#263238"/>
<path d="M194.173 424.404L194.244 417.22L193.75 417.215L193.679 424.399L194.173 424.404Z" fill="#263238"/>
<path d="M192.625 421.348L192.666 417.203L192.172 417.198L192.131 421.343L192.625 421.348Z" fill="#263238"/>
<path d="M190.955 421.316L190.996 417.171L190.502 417.166L190.461 421.311L190.955 421.316Z" fill="#263238"/>
<path d="M189.297 421.316L189.338 417.171L188.844 417.166L188.803 421.311L189.297 421.316Z" fill="#263238"/>
<path d="M187.627 421.274L187.668 417.129L187.174 417.124L187.133 421.269L187.627 421.274Z" fill="#263238"/>
<path d="M185.942 424.309L186.014 417.124L185.52 417.12L185.448 424.304L185.942 424.309Z" fill="#263238"/>
<path d="M184.383 421.264L184.424 417.118L183.93 417.114L183.889 421.259L184.383 421.264Z" fill="#263238"/>
<path d="M182.715 421.231L182.756 417.086L182.262 417.081L182.221 421.226L182.715 421.231Z" fill="#263238"/>
<path d="M181.066 421.232L181.107 417.087L180.613 417.082L180.572 421.227L181.066 421.232Z" fill="#263238"/>
<path d="M179.396 421.189L179.438 417.044L178.944 417.039L178.902 421.184L179.396 421.189Z" fill="#263238"/>
<path d="M177.702 424.235L177.773 417.051L177.279 417.046L177.208 424.23L177.702 424.235Z" fill="#263238"/>
<path d="M176.154 421.179L176.195 417.034L175.701 417.029L175.66 421.174L176.154 421.179Z" fill="#263238"/>
<path d="M174.494 421.168L174.535 417.023L174.041 417.018L174 421.163L174.494 421.168Z" fill="#263238"/>
<path d="M172.836 421.147L172.877 417.002L172.383 416.997L172.342 421.142L172.836 421.147Z" fill="#263238"/>
<path d="M171.156 421.115L171.197 416.97L170.703 416.965L170.662 421.11L171.156 421.115Z" fill="#263238"/>
<path d="M169.472 424.161L169.543 416.977L169.049 416.972L168.978 424.156L169.472 424.161Z" fill="#263238"/>
<path d="M167.912 421.083L167.953 416.938L167.459 416.933L167.418 421.079L167.912 421.083Z" fill="#263238"/>
<path d="M166.254 421.073L166.295 416.928L165.801 416.923L165.76 421.068L166.254 421.073Z" fill="#263238"/>
<path d="M164.584 421.052L164.625 416.906L164.131 416.901L164.09 421.047L164.584 421.052Z" fill="#263238"/>
<path d="M162.926 421.041L162.967 416.896L162.473 416.891L162.432 421.036L162.926 421.041Z" fill="#263238"/>
<path d="M161.241 424.065L161.312 416.881L160.819 416.876L160.747 424.06L161.241 424.065Z" fill="#263238"/>
<path d="M159.681 421.01L159.723 416.864L159.229 416.859L159.187 421.005L159.681 421.01Z" fill="#263238"/>
<path d="M158.011 420.988L158.053 416.843L157.559 416.838L157.517 420.983L158.011 420.988Z" fill="#263238"/>
<path d="M156.344 420.956L156.385 416.811L155.891 416.806L155.85 420.951L156.344 420.956Z" fill="#263238"/>
<path d="M154.695 420.978L154.736 416.833L154.242 416.828L154.201 420.973L154.695 420.978Z" fill="#263238"/>
<path d="M152.989 423.981L153.061 416.796L152.567 416.792L152.495 423.976L152.989 423.981Z" fill="#263238"/>
<path d="M151.441 420.925L151.482 416.78L150.988 416.775L150.947 420.92L151.441 420.925Z" fill="#263238"/>
<path d="M149.781 420.925L149.822 416.78L149.328 416.775L149.287 420.92L149.781 420.925Z" fill="#263238"/>
<path d="M148.123 420.893L148.164 416.748L147.67 416.743L147.629 420.888L148.123 420.893Z" fill="#263238"/>
<path d="M146.453 420.893L146.494 416.748L146 416.743L145.959 420.888L146.453 420.893Z" fill="#263238"/>
<path d="M144.759 423.907L144.83 416.723L144.336 416.718L144.265 423.902L144.759 423.907Z" fill="#263238"/>
<path d="M225.878 438.936L226.1 416.653L219.721 416.589L219.499 438.872L225.878 438.936Z" fill="#263238"/>
<path d="M233.223 435.406L233.373 420.35L226.071 420.278L225.921 435.334L233.223 435.406Z" fill="#59C6CD"/>
<path d="M242.021 429.882L242.053 426.005L233.311 425.221L233.258 430.494L242.021 429.882Z" fill="#59C6CD"/>
<path opacity="0.1" d="M233.258 430.494L233.311 425.231L235.792 425.446L235.363 430.343L233.258 430.494Z" fill="black"/>
</svg>
