<svg width="660" height="521" viewBox="0 0 660 521" fill="none" xmlns="http://www.w3.org/2000/svg">
<g clip-path="url(#clip0_155_683)">
<path d="M549.566 516.524C543.533 509.776 539.869 499.116 540.83 488.739C541.791 478.361 547.743 468.821 555.463 466.617C563.183 464.413 571.984 470.514 574.329 480.497C575.619 461.249 577.106 441.194 584.837 424.803C591.836 409.96 603.96 399.34 617.099 397.44C630.238 395.54 644.071 402.716 652.266 416.445C660.46 430.174 662.466 450.132 656.727 465.894C652.499 477.506 644.71 486.147 636.549 493.177C610.178 515.702 578.549 524.862 547.482 518.972" fill="#F2F2F2"/>
<path d="M639.271 403.114C628.43 414.804 618.484 427.879 609.578 442.148C595.639 464.404 584.36 489.356 576.133 516.136C575.531 518.09 577.928 518.94 578.523 517.009C591.984 473.485 613.472 435.124 641.024 405.434C642.261 404.1 640.498 401.792 639.271 403.114V403.114Z" fill="white"/>
<path d="M324.344 33.1547C324.344 33.39 324.273 33.6154 324.147 33.7818C324.021 33.9482 323.851 34.042 323.673 34.0427H323.351C322.855 33.4744 322.372 32.8794 321.902 32.2666H323.673C323.851 32.2673 324.021 32.3611 324.147 32.5275C324.273 32.6939 324.344 32.9194 324.344 33.1547Z" fill="#F2F2F2"/>
<path d="M340.444 0.295898H172.067C170.822 0.29773 169.628 0.953254 168.748 2.11867C167.868 3.28408 167.372 4.8642 167.371 6.51234V127.289C167.372 128.937 167.868 130.517 168.748 131.683C169.628 132.848 170.822 133.504 172.067 133.505H340.444C341.689 133.504 342.882 132.848 343.763 131.683C344.643 130.517 345.138 128.937 345.14 127.289V6.51234C345.138 4.8642 344.643 3.28408 343.763 2.11867C342.882 0.953254 341.689 0.29773 340.444 0.295898ZM343.798 127.289C343.798 128.466 343.444 129.596 342.815 130.428C342.186 131.261 341.333 131.729 340.444 131.729H172.067C171.177 131.729 170.324 131.261 169.696 130.428C169.067 129.596 168.713 128.466 168.713 127.289V6.51234C168.713 5.33484 169.067 4.20569 169.696 3.37307C170.324 2.54046 171.177 2.0725 172.067 2.07202H340.444C341.333 2.0725 342.186 2.54046 342.815 3.37307C343.444 4.20569 343.798 5.33484 343.798 6.51234V127.289Z" fill="#3F3D56"/>
<path d="M238.29 52.8333C236.284 46.457 233.164 41.1464 228.63 37.6297C223.874 33.9265 218.433 30.8449 212.959 29.7348C207.48 28.6624 201.892 29.0763 196.537 30.9515C195.84 31.1913 195.115 31.4488 194.391 31.733C192.507 32.3767 190.717 33.4268 189.091 34.8412C189.037 34.8856 188.984 34.93 188.93 34.9833C186.851 37.0081 185.429 40.3472 184.261 43.34C183.155 46.2084 182.457 49.3699 183.061 52.5758C183.715 55.5002 185.077 58.0588 186.938 59.8579C188.233 61.2078 189.93 62.9129 191.66 62.9484C192.07 62.9605 192.477 62.8701 192.861 62.682C192.981 62.626 193.096 62.5515 193.203 62.46C193.901 62.7372 194.622 62.8954 195.35 62.9307C198.295 63.1083 201.24 61.4565 204.265 60.1066C204.975 59.779 205.701 59.5208 206.439 59.334C207.76 58.9533 209.131 59.0144 210.43 59.5116C210.67 59.6013 210.905 59.711 211.135 59.8402C213.376 61.2314 215.267 63.4483 216.581 66.2254C217.863 68.7475 218.708 71.6159 220.117 74.0403C220.816 75.2897 221.706 76.3307 222.729 77.0956C223.751 77.8605 224.884 78.3324 226.054 78.4806C229.569 78.9957 233.983 78.7471 237.008 75.9496C237.829 75.2072 238.533 74.26 239.081 73.1611C239.135 73.0546 239.188 72.948 239.235 72.8414C242.019 66.7759 240.195 58.8633 238.29 52.8333ZM191.942 43.5175C192.613 43.6152 193.291 43.7218 193.962 43.8195C192.678 44.1229 191.478 44.867 190.48 45.9775C190.101 46.4036 189.749 46.8699 189.427 47.3717C189.44 47.3362 189.44 47.2918 189.453 47.2563C189.65 46.439 189.973 45.6846 190.401 45.041C190.83 44.3975 191.354 43.8787 191.942 43.5175V43.5175ZM232.386 66.0743C232.507 66.0388 232.634 66.0122 232.755 65.9855C232.948 65.9457 233.132 65.8485 233.292 65.7014C233.292 65.728 233.299 65.7635 233.299 65.7902C233.3 65.909 233.306 66.0277 233.319 66.1454C233.285 66.2164 233.258 66.2875 233.225 66.3585C232.943 66.2609 232.668 66.1632 232.386 66.0744L232.386 66.0743ZM230.515 44.4766C232 46.3335 233.264 48.4773 234.265 50.8352C233.081 48.92 231.772 47.146 230.354 45.5334C230.46 45.199 230.515 44.8396 230.515 44.4767V44.4766ZM228.885 69.671C228.827 69.801 228.784 69.9416 228.757 70.0884C228.576 70.0973 228.388 70.1062 228.2 70.1062H228.106C228.1 70.0706 228.086 70.0262 228.08 69.9907C228.039 69.8309 228.006 69.671 227.966 69.5112C228.274 69.5645 228.576 69.6177 228.885 69.671V69.671ZM214.542 49.7517C214.56 49.5722 214.565 49.3907 214.556 49.21C214.703 49.3575 214.876 49.4551 215.059 49.4942C215.079 49.5031 215.106 49.5031 215.126 49.512C215.253 49.6096 215.374 49.6985 215.502 49.7962L215.461 49.8761C215.153 49.8317 214.844 49.7962 214.542 49.7518V49.7517ZM225.168 45.3292H225.148C224.705 44.9651 224.263 44.601 223.813 44.2546C224.269 44.5921 224.725 44.9562 225.168 45.3292V45.3292ZM222.7 61.9715C222.63 62.0634 222.572 62.1681 222.525 62.2823C222.492 62.2201 222.465 62.1669 222.431 62.1047C222.516 62.0443 222.606 61.9995 222.7 61.9715V61.9715ZM216.689 44.5743C216.54 44.4176 216.375 44.2891 216.199 44.1925C215.335 43.7512 214.45 43.3862 213.549 43.1001C213.415 42.9314 213.281 42.7627 213.154 42.5851C213.915 42.7801 214.668 43.0322 215.408 43.3399C216.355 43.7423 217.285 44.2167 218.191 44.7608C217.688 44.6898 217.192 44.6276 216.689 44.5743L216.689 44.5743ZM211.577 33.438C213.507 33.7791 215.409 34.3559 217.259 35.1609C217.071 35.0987 216.884 35.0454 216.696 34.9832C214.918 34.4504 213.107 33.8821 211.282 33.3936C211.383 33.4114 211.477 33.4203 211.577 33.4381L211.577 33.438Z" fill="#CCCCCC"/>
<path d="M218.805 102.403C217.113 102.34 215.008 102.262 213.386 100.694C212.903 100.208 212.506 99.5875 212.224 98.8768C211.941 98.1662 211.779 97.3822 211.749 96.5799C211.719 96.0098 211.79 95.4384 211.955 94.9105C212.12 94.3825 212.375 93.9122 212.701 93.5364C213.184 93.0588 213.75 92.749 214.347 92.6352C214.944 92.5214 215.553 92.6074 216.118 92.8851L214.737 79.5218L215.751 79.3379L217.375 95.0481L216.528 94.5337C215.546 93.9377 214.199 93.6347 213.361 94.5711C213.156 94.8159 212.996 95.1202 212.893 95.4602C212.791 95.8003 212.749 96.1671 212.771 96.5319C212.796 97.1291 212.918 97.7122 213.128 98.2416C213.338 98.7709 213.632 99.2341 213.99 99.5996C215.252 100.82 216.93 100.978 218.834 101.048L218.805 102.403Z" fill="#3F3D56"/>
<path d="M209.721 80.6738H204.209V82.0287H209.721V80.6738Z" fill="#3F3D56"/>
<path d="M227.12 80.6738H221.607V82.0287H227.12V80.6738Z" fill="#3F3D56"/>
<path d="M194.634 61.9643C190.195 61.2942 186.757 55.6639 186.38 49.9512C185.93 43.155 188.92 36.7002 193.022 32.8865C197.311 28.8982 202.655 27.2327 207.826 26.8661C217.913 26.2016 227.826 30.5271 235.637 39.0015C239.512 43.2616 243.131 48.6882 244.502 55.2428C245.693 60.9353 244.724 67.3841 241.265 71.3709C240.41 72.3479 239.411 73.0796 238.331 73.5197C237.251 73.9598 236.114 74.0989 234.992 73.9281C232.308 73.5592 229.832 71.6913 227.689 69.6284C223.52 65.6156 220.098 60.0254 215.019 57.9285C211.294 56.3909 206.461 57.7443 204.186 62.2028C203.669 63.2234 203.334 64.3859 203.207 65.6027C203.16 65.8622 203.189 66.1357 203.289 66.3677C203.388 66.5998 203.551 66.7731 203.743 66.8527C203.939 66.9227 204.148 66.8874 204.325 66.7545C204.502 66.6217 204.632 66.4019 204.687 66.143C205.285 60.5274 210.5 58.4319 214.161 59.7144C219.497 61.5842 223.08 67.8885 227.458 71.8938C229.724 74.131 232.394 75.5419 235.202 75.9856C237.636 76.2384 240.051 75.256 241.958 73.2378C245.699 69.3277 247.129 62.6024 246.302 56.5473C245.344 49.5355 241.779 43.526 237.868 38.8733C229.938 29.5408 219.643 24.5062 209.035 24.7728C203.624 24.9373 197.979 26.416 193.317 30.2019C188.796 33.8743 185.301 40.0181 184.844 47.1597C184.442 53.4456 186.99 60.0204 191.363 62.7743C192.394 63.4209 193.5 63.834 194.634 63.9967C195.614 64.1446 195.606 62.111 194.634 61.9643H194.634Z" fill="#3F3D56"/>
<path d="M324.343 33.1547C324.343 33.39 324.272 33.6154 324.146 33.7818C324.021 33.9482 323.85 34.042 323.673 34.0427H268.665C268.487 34.0427 268.316 33.9492 268.191 33.7826C268.065 33.6161 267.994 33.3902 267.994 33.1547C267.994 32.9191 268.065 32.6933 268.191 32.5267C268.316 32.3602 268.487 32.2666 268.665 32.2666H323.673C323.85 32.2673 324.021 32.3611 324.146 32.5275C324.272 32.6939 324.343 32.9194 324.343 33.1547Z" fill="#3F3D56"/>
<path d="M323.673 47.363H268.665C268.487 47.363 268.316 47.2695 268.191 47.1029C268.065 46.9364 267.994 46.7105 267.994 46.475C267.994 46.2394 268.065 46.0136 268.191 45.847C268.316 45.6805 268.487 45.5869 268.665 45.5869H323.673C323.851 45.5869 324.021 45.6805 324.147 45.847C324.273 46.0136 324.343 46.2394 324.343 46.475C324.343 46.7105 324.273 46.9364 324.147 47.1029C324.021 47.2695 323.851 47.363 323.673 47.363Z" fill="#3F3D56"/>
<path d="M323.673 60.6843H268.665C268.487 60.6843 268.316 60.5908 268.191 60.4242C268.065 60.2577 267.994 60.0318 267.994 59.7963C267.994 59.5607 268.065 59.3349 268.191 59.1683C268.316 59.0018 268.487 58.9082 268.665 58.9082H323.673C323.851 58.9082 324.021 59.0018 324.147 59.1683C324.273 59.3349 324.343 59.5607 324.343 59.7963C324.343 60.0318 324.273 60.2577 324.147 60.4242C324.021 60.5908 323.851 60.6843 323.673 60.6843Z" fill="#3F3D56"/>
<path d="M323.673 74.0056H268.665C268.487 74.0056 268.316 73.912 268.191 73.7455C268.065 73.5789 267.994 73.3531 267.994 73.1175C267.994 72.882 268.065 72.6561 268.191 72.4896C268.316 72.3231 268.487 72.2295 268.665 72.2295H323.673C323.851 72.2295 324.021 72.3231 324.147 72.4896C324.273 72.6561 324.343 72.882 324.343 73.1175C324.343 73.3531 324.273 73.5789 324.147 73.7455C324.021 73.912 323.851 74.0056 323.673 74.0056Z" fill="#3F3D56"/>
<path d="M323.673 87.3259H268.665C268.487 87.3259 268.316 87.2323 268.191 87.0658C268.065 86.8993 267.994 86.6734 267.994 86.4379C267.994 86.2023 268.065 85.9765 268.191 85.8099C268.316 85.6434 268.487 85.5498 268.665 85.5498H323.673C323.851 85.5498 324.021 85.6434 324.147 85.8099C324.273 85.9765 324.343 86.2023 324.343 86.4379C324.343 86.6734 324.273 86.8993 324.147 87.0658C324.021 87.2323 323.851 87.3259 323.673 87.3259Z" fill="#3F3D56"/>
<path d="M323.673 100.647H268.665C268.487 100.647 268.316 100.554 268.191 100.387C268.065 100.221 267.994 99.9947 267.994 99.7592C267.994 99.5236 268.065 99.2978 268.191 99.1312C268.316 98.9647 268.487 98.8711 268.665 98.8711H323.673C323.851 98.8711 324.021 98.9647 324.147 99.1312C324.273 99.2978 324.343 99.5236 324.343 99.7592C324.343 99.9947 324.273 100.221 324.147 100.387C324.021 100.554 323.851 100.647 323.673 100.647Z" fill="#3F3D56"/>
<path d="M124.862 219.252C122.993 219.259 121.188 218.348 119.797 216.694C119.019 215.775 118.39 214.655 117.951 213.403C117.511 212.151 117.269 210.793 117.24 209.413L87.4717 180.751C86.5735 179.887 85.8276 178.774 85.2852 177.491C84.7429 176.208 84.4171 174.785 84.3302 173.319C84.2433 171.853 84.3975 170.38 84.782 169.001C85.1665 167.621 85.7724 166.369 86.5577 165.329L108.72 135.989C109.634 134.78 110.797 133.957 112.064 133.623C113.331 133.29 114.644 133.461 115.837 134.115C117.03 134.769 118.05 135.877 118.768 137.299C119.485 138.721 119.868 140.392 119.868 142.102C119.687 146.587 118.352 150.855 116.084 154.196L101.036 174.118L124.654 199.041C124.727 199.035 124.8 199.029 124.874 199.029C126.824 199.029 128.7 200.016 130.118 201.789C131.536 203.561 132.388 205.984 132.5 208.561C132.612 211.139 131.975 213.675 130.72 215.651C129.465 217.626 127.686 218.891 125.749 219.187C125.454 219.23 125.158 219.252 124.862 219.252Z" fill="#FFB8B8"/>
<path d="M160.234 388.542L168.222 384.595L160.521 341.93L148.732 347.756L160.234 388.542Z" fill="#FFB8B8"/>
<path d="M186.396 386.8L161.293 399.207L157.672 386.366L173.42 378.583C175.901 377.357 178.649 377.486 181.058 378.941C183.468 380.397 185.342 383.06 186.268 386.345L186.396 386.8Z" fill="#2F2E41"/>
<path d="M88.3744 390.478H96.9006L100.956 346.941L88.373 346.942L88.3744 390.478Z" fill="#FFB8B8"/>
<path d="M113.344 400.958L86.5475 400.96L86.547 387.254L103.357 387.253C106.005 387.253 108.546 388.645 110.418 391.125C112.291 393.604 113.344 396.966 113.344 400.473L113.344 400.958Z" fill="#2F2E41"/>
<path d="M97.577 378.598C97.4814 378.598 97.3854 378.592 97.2891 378.58L88.2512 377.44C87.5181 377.347 86.8359 376.903 86.3328 376.191C85.8298 375.48 85.5406 374.549 85.5197 373.574C84.9983 347.664 83.6845 216.894 109.104 186.927C109.545 186.414 110.091 186.087 110.673 185.988V185.988C115.278 185.152 130.812 183.103 137.387 191.859C137.804 192.41 138.093 193.108 138.219 193.87L167.003 370.051C167.092 370.593 167.094 371.154 167.01 371.697C166.926 372.24 166.758 372.755 166.515 373.207C166.273 373.659 165.962 374.04 165.603 374.325C165.243 374.61 164.843 374.792 164.427 374.861L153.391 376.687C152.993 376.754 152.588 376.714 152.201 376.571C151.814 376.428 151.453 376.184 151.138 375.853C150.824 375.522 150.562 375.112 150.369 374.645C150.176 374.179 150.056 373.666 150.014 373.137C148.916 358.975 142.318 287.039 120.206 261.54C119.907 261.192 119.546 260.949 119.157 260.833C118.769 260.718 118.364 260.733 117.981 260.878C117.606 261.016 117.263 261.278 116.986 261.64C116.708 262.001 116.505 262.45 116.395 262.945C112.302 280.676 99.064 341.113 100.585 374.363C100.611 374.906 100.552 375.451 100.412 375.963C100.272 376.476 100.055 376.945 99.773 377.341C99.4912 377.738 99.1509 378.054 98.7733 378.27C98.3956 378.486 97.9885 378.598 97.577 378.598V378.598Z" fill="#2F2E41"/>
<path d="M114.972 114.84C124.072 114.84 131.448 105.075 131.448 93.0285C131.448 80.9822 124.072 71.2168 114.972 71.2168C105.873 71.2168 98.4961 80.9822 98.4961 93.0285C98.4961 105.075 105.873 114.84 114.972 114.84Z" fill="#FFB8B8"/>
<path d="M98.793 134.106C98.793 134.106 114.093 110.169 126.611 129.503C134.666 141.943 138.925 157.913 138.558 174.29L138.086 195.33L109.225 189.346L98.793 134.106Z" fill="#6C63FF"/>
<path d="M139.001 180.49C138.881 180.49 138.761 180.486 138.641 180.48C137.408 180.412 136.2 179.991 135.102 179.246C134.004 178.5 133.041 177.448 132.28 176.162L113.554 144.553C112.757 143.208 112.279 141.58 112.181 139.875C112.083 138.17 112.369 136.465 113.003 134.975C113.637 133.486 114.59 132.278 115.742 131.506C116.894 130.733 118.194 130.43 119.476 130.635L122.112 131.057C123.796 131.449 125.328 132.591 126.453 134.294L141.225 159.229L162.75 131.178C162.754 131.082 162.759 130.986 162.768 130.889C162.948 128.915 163.563 127.055 164.537 125.541C165.512 124.028 166.801 122.928 168.245 122.38C169.689 121.832 171.223 121.859 172.655 122.459C174.087 123.059 175.354 124.205 176.296 125.752C177.239 127.3 177.816 129.182 177.956 131.161C178.095 133.141 177.791 135.132 177.08 136.883C176.369 138.635 175.285 140.071 173.961 141.011C172.637 141.95 171.134 142.353 169.638 142.167L145.252 176.883C144.454 178.021 143.486 178.929 142.411 179.55C141.335 180.17 140.175 180.49 139.001 180.49Z" fill="#FFB8B8"/>
<path d="M117.641 96.802L124.72 85.7619C126.544 82.9168 128.453 79.8178 128.711 76.1015C128.993 72.0278 127.122 68.068 124.563 65.7744C122.004 63.4809 118.862 62.6178 115.781 62.3011C110.067 61.7137 104.054 62.9638 99.3562 67.311C94.6588 71.6582 91.5856 79.5065 92.7309 86.9409C93.6328 92.7947 96.956 98.4023 95.6643 104.127C94.251 110.39 88.4552 112.312 83.7232 114.18C75.7803 117.315 68.196 123.487 64.0334 132.975C59.8708 142.463 59.889 155.547 65.4378 163.697C69.0308 168.975 74.45 171.644 79.8083 172.046C85.1667 172.447 90.5 170.777 95.5818 168.492C100.262 166.387 104.891 163.68 108.576 159.319C112.261 154.957 114.915 148.716 114.8 142.174C114.69 135.94 112.168 130.261 111.132 124.178C110.314 119.084 110.529 113.795 111.753 108.847C112.978 103.898 115.169 99.4659 118.105 96" fill="#2F2E41"/>
<path d="M461.192 317.334H292.815C291.57 317.333 290.376 316.677 289.496 315.512C288.616 314.346 288.121 312.766 288.119 311.118V190.341C288.121 188.693 288.616 187.113 289.496 185.948C290.376 184.782 291.57 184.127 292.815 184.125H461.192C462.437 184.127 463.63 184.782 464.511 185.948C465.391 187.113 465.886 188.693 465.888 190.341V311.118C465.886 312.766 465.391 314.346 464.511 315.512C463.63 316.677 462.437 317.333 461.192 317.334ZM292.815 185.901C291.926 185.902 291.073 186.371 290.444 187.203C289.816 188.036 289.462 189.164 289.461 190.341V311.118C289.462 312.295 289.816 313.424 290.444 314.256C291.073 315.089 291.926 315.557 292.815 315.558H461.192C462.081 315.557 462.934 315.089 463.562 314.256C464.191 313.424 464.545 312.295 464.546 311.118V190.341C464.545 189.164 464.191 188.036 463.562 187.203C462.934 186.371 462.081 185.902 461.192 185.901H292.815Z" fill="#3F3D56"/>
<path d="M359.042 236.66C357.032 230.29 353.911 224.978 349.38 221.456C344.62 217.757 339.186 214.676 333.711 213.565C328.231 212.493 322.643 212.907 317.287 214.781C314.706 215.667 311.859 216.695 309.682 218.814C307.601 220.84 306.175 224.173 305.014 227.168C303.902 230.036 303.208 233.195 303.81 236.408C304.465 239.333 305.828 241.892 307.69 243.689C309.275 245.347 311.491 247.541 313.611 246.514C313.731 246.455 313.846 246.379 313.953 246.285C317.614 247.76 321.254 245.615 325.012 243.936C327.295 242.916 329.592 242.4 331.885 243.673C334.126 245.062 336.017 247.276 337.333 250.051C338.615 252.579 339.459 255.449 340.866 257.872C341.566 259.119 342.456 260.158 343.478 260.922C344.5 261.686 345.632 262.158 346.8 262.307C351.341 262.98 357.367 262.36 359.983 256.669C362.771 250.604 360.947 242.696 359.042 236.66ZM312.692 227.345C313.366 227.447 314.039 227.548 314.713 227.649C313.43 227.954 312.229 228.7 311.231 229.81C310.851 230.234 310.499 230.7 310.178 231.202C310.187 231.161 310.193 231.123 310.203 231.082C310.401 230.265 310.724 229.512 311.153 228.869C311.581 228.226 312.105 227.707 312.692 227.345ZM335.302 233.039C335.451 233.187 335.626 233.286 335.81 233.326C335.832 233.33 335.853 233.336 335.875 233.34C336 233.436 336.125 233.53 336.251 233.623C336.237 233.649 336.226 233.678 336.213 233.705C335.905 233.663 335.597 233.623 335.289 233.582C335.311 233.402 335.315 233.22 335.302 233.039ZM343.452 245.797C343.384 245.893 343.324 245.997 343.273 246.11C343.243 246.052 343.213 245.994 343.182 245.936C343.266 245.871 343.357 245.824 343.452 245.797ZM348.716 253.339C349.021 253.392 349.326 253.445 349.631 253.498C349.574 253.63 349.533 253.771 349.507 253.919C349.291 253.928 349.073 253.933 348.855 253.934L348.716 253.339ZM353.136 249.9L353.505 249.816C353.698 249.775 353.882 249.678 354.043 249.533C354.044 249.562 354.046 249.59 354.047 249.619C354.049 249.716 354.056 249.838 354.065 249.976C354.035 250.046 354.005 250.115 353.973 250.184C353.694 250.089 353.415 249.995 353.136 249.9ZM337.438 228.408C337.291 228.246 337.126 228.117 336.948 228.026C336.083 227.584 335.198 227.217 334.297 226.929C334.162 226.761 334.031 226.589 333.902 226.412C334.663 226.61 335.414 226.864 336.154 227.171C337.103 227.573 338.033 228.047 338.941 228.589C338.44 228.515 337.939 228.455 337.438 228.408ZM345.895 229.158C345.453 228.793 345.009 228.434 344.562 228.083C345.02 228.425 345.472 228.783 345.917 229.157L345.895 229.158ZM355.012 234.667C353.829 232.751 352.52 230.976 351.101 229.364C351.211 229.031 351.266 228.671 351.263 228.307C352.75 230.163 354.014 232.307 355.012 234.667ZM338.008 218.986C337.821 218.929 337.634 218.871 337.447 218.815C335.669 218.284 333.858 217.712 332.031 217.226C332.129 217.241 332.227 217.254 332.325 217.27C334.255 217.609 336.158 218.183 338.008 218.986Z" fill="#6C63FF"/>
<path d="M339.553 286.231C337.861 286.168 335.756 286.09 334.134 284.522C333.651 284.036 333.254 283.416 332.972 282.705C332.689 281.994 332.527 281.21 332.497 280.408C332.467 279.838 332.538 279.267 332.703 278.739C332.868 278.211 333.123 277.74 333.449 277.365C333.932 276.887 334.498 276.577 335.095 276.463C335.692 276.35 336.301 276.436 336.866 276.713L335.485 263.35L336.499 263.166L338.123 278.876L337.276 278.362C336.294 277.766 334.947 277.463 334.109 278.399C333.904 278.644 333.744 278.948 333.641 279.288C333.539 279.629 333.497 279.995 333.52 280.36C333.544 280.957 333.666 281.54 333.876 282.07C334.087 282.599 334.38 283.062 334.738 283.428C336 284.648 337.678 284.806 339.582 284.877L339.553 286.231Z" fill="#3F3D56"/>
<path d="M330.469 264.503H324.957V265.858H330.469V264.503Z" fill="#3F3D56"/>
<path d="M347.87 264.503H342.357V265.858H347.87V264.503Z" fill="#3F3D56"/>
<path d="M315.382 245.793C310.943 245.123 307.505 239.493 307.128 233.78C306.678 226.984 309.668 220.529 313.77 216.716C318.059 212.727 323.403 211.062 328.574 210.695C338.661 210.031 348.574 214.356 356.386 222.831C360.26 227.091 363.879 232.517 365.25 239.072C366.441 244.764 365.472 251.213 362.014 255.2C361.158 256.177 360.159 256.909 359.079 257.349C357.999 257.789 356.862 257.928 355.74 257.757C353.056 257.388 350.58 255.52 348.437 253.457C344.268 249.445 340.846 243.855 335.767 241.758C332.042 240.22 327.209 241.573 324.934 246.032C324.417 247.053 324.083 248.215 323.955 249.432C323.908 249.691 323.937 249.965 324.037 250.197C324.136 250.429 324.299 250.602 324.491 250.682C324.687 250.752 324.896 250.716 325.073 250.584C325.25 250.451 325.38 250.231 325.435 249.972C326.033 244.356 331.249 242.261 334.909 243.543C340.245 245.413 343.828 251.718 348.206 255.723C350.472 257.96 353.143 259.371 355.95 259.815C358.384 260.067 360.799 259.085 362.706 257.067C366.447 253.157 367.877 246.431 367.05 240.376C366.092 233.365 362.527 227.355 358.616 222.702C350.686 213.37 340.391 208.335 329.783 208.602C324.372 208.766 318.727 210.245 314.065 214.031C309.544 217.703 306.049 223.847 305.592 230.989C305.19 237.275 307.738 243.85 312.111 246.603C313.142 247.25 314.248 247.663 315.382 247.826C316.362 247.974 316.354 245.94 315.382 245.793H315.382Z" fill="#3F3D56"/>
<path d="M444.421 217.871H389.413C389.235 217.871 389.064 217.777 388.939 217.611C388.813 217.444 388.742 217.218 388.742 216.983C388.742 216.747 388.813 216.521 388.939 216.355C389.064 216.188 389.235 216.095 389.413 216.095H444.421C444.599 216.095 444.769 216.188 444.895 216.355C445.021 216.521 445.091 216.747 445.091 216.983C445.091 217.218 445.021 217.444 444.895 217.611C444.769 217.777 444.599 217.871 444.421 217.871Z" fill="#3F3D56"/>
<path d="M444.421 231.192H389.413C389.235 231.192 389.064 231.099 388.939 230.932C388.813 230.766 388.742 230.54 388.742 230.304C388.742 230.069 388.813 229.843 388.939 229.676C389.064 229.51 389.235 229.416 389.413 229.416H444.421C444.599 229.416 444.769 229.51 444.895 229.676C445.021 229.843 445.091 230.069 445.091 230.304C445.091 230.54 445.021 230.766 444.895 230.932C444.769 231.099 444.599 231.192 444.421 231.192Z" fill="#3F3D56"/>
<path d="M444.421 244.513H389.413C389.235 244.513 389.064 244.42 388.939 244.253C388.813 244.087 388.742 243.861 388.742 243.625C388.742 243.39 388.813 243.164 388.939 242.997C389.064 242.831 389.235 242.737 389.413 242.737H444.421C444.599 242.737 444.769 242.831 444.895 242.997C445.021 243.164 445.091 243.39 445.091 243.625C445.091 243.861 445.021 244.087 444.895 244.253C444.769 244.42 444.599 244.513 444.421 244.513Z" fill="#3F3D56"/>
<path d="M444.421 257.834H389.413C389.235 257.834 389.064 257.74 388.939 257.574C388.813 257.407 388.742 257.181 388.742 256.946C388.742 256.71 388.813 256.484 388.939 256.318C389.064 256.151 389.235 256.058 389.413 256.058H444.421C444.599 256.058 444.769 256.151 444.895 256.318C445.021 256.484 445.091 256.71 445.091 256.946C445.091 257.181 445.021 257.407 444.895 257.574C444.769 257.74 444.599 257.834 444.421 257.834Z" fill="#3F3D56"/>
<path d="M444.421 271.155H389.413C389.235 271.155 389.064 271.061 388.939 270.895C388.813 270.728 388.742 270.502 388.742 270.267C388.742 270.031 388.813 269.806 388.939 269.639C389.064 269.472 389.235 269.379 389.413 269.379H444.421C444.599 269.379 444.769 269.472 444.895 269.639C445.021 269.806 445.091 270.031 445.091 270.267C445.091 270.502 445.021 270.728 444.895 270.895C444.769 271.061 444.599 271.155 444.421 271.155Z" fill="#3F3D56"/>
<path d="M444.421 284.476H389.413C389.235 284.476 389.064 284.383 388.939 284.216C388.813 284.05 388.742 283.824 388.742 283.588C388.742 283.353 388.813 283.127 388.939 282.96C389.064 282.794 389.235 282.7 389.413 282.7H444.421C444.599 282.7 444.769 282.794 444.895 282.96C445.021 283.127 445.091 283.353 445.091 283.588C445.091 283.824 445.021 284.05 444.895 284.216C444.769 284.383 444.599 284.476 444.421 284.476Z" fill="#3F3D56"/>
<path d="M547.182 188.277C556.903 188.277 564.783 177.845 564.783 164.976C564.783 152.106 556.903 141.674 547.182 141.674C537.461 141.674 529.58 152.106 529.58 164.976C529.58 177.845 537.461 188.277 547.182 188.277Z" fill="#FFB8B8"/>
<path d="M494.724 508.286L486.354 504.754L492.661 460.329L505.016 465.542L494.724 508.286Z" fill="#FFB8B8"/>
<path d="M480.757 498.9L497.282 505.873L494.042 519.329L467.733 508.228L467.854 507.725C468.263 506.024 468.922 504.446 469.792 503.082C470.662 501.718 471.727 500.594 472.925 499.775C474.123 498.955 475.432 498.456 476.776 498.306C478.119 498.156 479.472 498.358 480.757 498.9Z" fill="#2F2E41"/>
<path d="M555.628 508.057H546.841L542.66 463.193H555.628V508.057Z" fill="#FFB8B8"/>
<path d="M540.168 504.733H557.511V518.857H529.898V518.329C529.898 516.544 530.164 514.776 530.68 513.126C531.196 511.477 531.953 509.978 532.906 508.715C533.86 507.453 534.992 506.452 536.238 505.768C537.484 505.085 538.819 504.733 540.168 504.733Z" fill="#2F2E41"/>
<path d="M555.37 493.498L552.405 492.912C543.411 491.138 542.873 491.032 541.445 490.202C540.716 489.778 540.665 483.37 541.102 447.348C541.424 420.906 541.824 387.999 541.047 370.333C541.015 369.636 540.807 368.973 540.455 368.452C540.104 367.931 539.631 367.582 539.111 367.461C538.592 367.34 538.056 367.454 537.592 367.784C537.127 368.115 536.76 368.644 536.55 369.284C529.859 389.743 518.631 435.525 511.202 465.82C508.618 476.359 506.577 484.682 505.285 489.671C505.036 490.615 504.53 491.402 503.865 491.878C503.201 492.353 502.427 492.484 501.694 492.245C495.58 490.222 495.989 489.361 487.281 486.38C486.527 486.125 485.878 485.495 485.467 484.621C485.057 483.747 484.918 482.696 485.079 481.689C486.654 471.856 515.477 312.425 517.684 297.269C517.758 296.75 517.91 296.256 518.129 295.816C518.349 295.375 518.633 294.996 518.964 294.701C519.294 294.406 519.666 294.201 520.057 294.097C520.449 293.994 520.851 293.994 521.242 294.097C527.732 295.828 531.68 297.665 538.093 299.44C545.013 301.357 552.168 303.338 559.148 305.188C559.842 305.373 560.465 305.878 560.905 306.613C562.632 309.501 565.192 311.122 567.904 312.838C569.732 313.994 565.59 313.89 567.182 315.559C573.628 322.314 564.358 459.503 558.756 490.487C558.577 491.457 558.13 492.303 557.504 492.86C556.877 493.417 556.117 493.645 555.37 493.498V493.498Z" fill="#2F2E41"/>
<path d="M550.065 338.009C549.865 336.804 549.866 335.557 550.07 334.353C550.274 333.15 550.674 332.021 551.243 331.044C551.812 330.068 552.536 329.269 553.363 328.703C554.191 328.137 555.102 327.818 556.033 327.769L570.259 306.511L579.094 320.64L562.733 336.463C562.692 338.538 562.077 340.521 561.005 342.037C559.933 343.552 558.479 344.494 556.917 344.685C555.356 344.875 553.796 344.301 552.533 343.07C551.27 341.84 550.392 340.039 550.065 338.008V338.009Z" fill="#FFB8B8"/>
<path d="M554.685 185.364C553.657 179.592 558.852 167.171 557.825 161.399C557.129 157.489 550.185 160.147 548.564 156.751C546.944 153.356 544.23 150.605 541.196 150.56C537.709 150.508 534.278 153.933 530.975 152.453C527.635 150.956 526.568 144.902 528.044 140.663C529.521 136.424 532.701 133.723 535.844 131.607C541.196 128.002 547.427 125.37 553.154 127.755C556.617 129.196 559.512 132.32 562.313 135.375C564.867 138.16 567.464 141.007 569.249 144.695C572.746 151.919 572.535 161.653 569.547 169.267C566.558 176.881 561.112 182.468 555.111 185.711" fill="#2F2E41"/>
<path d="M511.465 319.699C513.365 315.498 516.249 295.812 519.806 262.771C522.228 240.215 524.338 217.297 525.385 205.59C525.466 204.643 525.728 203.738 526.145 202.961C526.563 202.184 527.123 201.56 527.773 201.148C528.452 200.714 529.127 200.304 529.798 199.916C538.468 194.924 547.253 193.27 555.91 195C564.553 196.757 572.661 201.648 579.334 209.13L579.413 209.228L579.433 209.369C579.471 209.629 583.107 235.565 575.66 253.087C568.316 270.377 568.23 316.163 568.23 316.624V317.212L567.802 317.051C556.377 312.729 512.241 320.29 511.797 320.367L511.109 320.486L511.465 319.699Z" fill="#CCCCCC"/>
<path d="M558.348 323.212L580.791 283.596L569.218 250.764L570.058 211.827L579.547 209.506L579.647 209.573C584.256 213.142 587.829 218.652 589.795 225.224C591.903 232.2 596.275 255.934 599.571 274.617C600.432 279.425 600.346 284.445 599.321 289.197C598.297 293.948 596.368 298.272 593.72 301.754L566.187 338.203L558.348 323.212Z" fill="#CCCCCC"/>
<path d="M464.129 244.701C464.666 243.693 465.363 242.853 466.171 242.24C466.979 241.627 467.879 241.257 468.807 241.154C469.735 241.052 470.669 241.22 471.543 241.647C472.417 242.074 473.209 242.749 473.865 243.626L495.316 243.188L493.396 261.353L473.537 256.038C472.352 257.398 470.831 258.135 469.263 258.11C467.695 258.084 466.189 257.299 465.029 255.901C463.869 254.504 463.137 252.592 462.971 250.527C462.806 248.463 463.218 246.39 464.129 244.701Z" fill="#FFB8B8"/>
<path d="M474.896 260.589L477.965 242.814L515.196 238.022L525.402 205.526L525.701 204.567L529.712 199.987L529.798 199.916C538.467 194.924 547.252 193.271 555.909 194.999L556.213 195.061L556.194 195.466C555.999 199.625 555.193 203.693 553.82 207.443C549.969 218.018 526.273 262.972 526.034 263.425L525.929 263.625L474.896 260.589Z" fill="#CCCCCC"/>
<path d="M653.384 520.701H397.8C397.622 520.701 397.451 520.607 397.325 520.441C397.2 520.274 397.129 520.048 397.129 519.813C397.129 519.577 397.2 519.351 397.325 519.185C397.451 519.018 397.622 518.925 397.8 518.925H653.384C653.562 518.925 653.732 519.018 653.858 519.185C653.984 519.351 654.055 519.577 654.055 519.813C654.055 520.048 653.984 520.274 653.858 520.441C653.732 520.607 653.562 520.701 653.384 520.701Z" fill="#3F3D56"/>
<path d="M256.255 400.812H0.670825C0.492911 400.812 0.322289 400.719 0.196485 400.552C0.0706806 400.386 0 400.16 0 399.924C0 399.689 0.0706806 399.463 0.196485 399.296C0.322289 399.13 0.492911 399.036 0.670825 399.036H256.255C256.433 399.036 256.604 399.13 256.729 399.296C256.855 399.463 256.926 399.689 256.926 399.924C256.926 400.16 256.855 400.386 256.729 400.552C256.604 400.719 256.433 400.812 256.255 400.812Z" fill="#3F3D56"/>
</g>
<defs>
<clipPath id="clip0_155_683">
<rect width="660" height="520.446" fill="white" transform="translate(0 0.295898)"/>
</clipPath>
</defs>
</svg>
