<svg width="660" height="545" viewBox="0 0 660 545" fill="none" xmlns="http://www.w3.org/2000/svg">
<g clip-path="url(#clip0_155_517)">
<path d="M616.269 491.951C613.136 493.437 609.772 493.809 606.501 493.032C603.23 492.254 600.162 490.353 597.594 487.512C591.053 480.103 589.002 467.901 587.334 456.599L582.398 423.171L592.731 432.772C600.163 439.677 607.761 446.803 612.906 456.804C618.05 466.805 620.295 480.458 616.162 491.279" fill="#E6E6E6"/>
<path d="M614.675 534.749C615.975 521.963 617.313 509.011 616.399 496.088C615.588 484.611 612.994 473.402 607.711 464.208C604.907 459.339 601.494 455.166 597.628 451.878C596.62 451.02 595.692 453.176 596.696 454.031C603.386 459.736 608.561 468.162 611.474 478.092C614.692 489.135 615.208 501.174 614.654 512.904C614.319 519.998 613.607 527.046 612.892 534.085C612.836 534.404 612.871 534.739 612.991 535.024C613.111 535.308 613.306 535.521 613.538 535.618C613.774 535.704 614.026 535.661 614.238 535.498C614.451 535.335 614.608 535.065 614.674 534.747L614.675 534.749Z" fill="#F2F2F2"/>
<path d="M605.313 514.233C603.97 516.989 602.123 519.233 599.95 520.746C597.777 522.26 595.352 522.993 592.909 522.875C586.628 522.473 581.394 516.559 576.682 510.944L562.744 494.337L571.969 493.741C578.602 493.312 585.407 492.91 591.726 495.674C598.045 498.437 603.872 505.079 605.027 513.904" fill="#E6E6E6"/>
<path d="M618.351 542.099C612.09 527.149 604.828 510.534 591.851 505.223C588.243 503.752 584.46 503.224 580.705 503.67C579.521 503.808 579.817 506.269 580.998 506.132C587.292 505.427 593.574 507.67 598.786 512.483C603.801 517.089 607.706 523.495 611.011 530.286C613.036 534.447 614.85 538.784 616.663 543.115C617.242 544.499 618.937 543.5 618.351 542.099Z" fill="#F2F2F2"/>
<path d="M394.714 162.543V304.894H151.074V380.477H86.6621V162.543H394.714Z" fill="white"/>
<path d="M83.8594 158.771V384.26H151.075V376.705H89.458V166.326H391.919V304.894H397.518V158.771H83.8594Z" fill="#E5E5E5"/>
<path d="M346.5 243.211H151.23V252.513H346.5V243.211Z" fill="#E5E5E5"/>
<path d="M346.5 267.396H151.23V276.699H346.5V267.396Z" fill="#E5E5E5"/>
<path d="M346.5 291.581H151.23V300.883H346.5V291.581Z" fill="#E5E5E5"/>
<path d="M139.378 254.283C141.862 254.283 143.876 251.565 143.876 248.213C143.876 244.86 141.862 242.142 139.378 242.142C136.893 242.142 134.879 244.86 134.879 248.213C134.879 251.565 136.893 254.283 139.378 254.283Z" fill="#E5E5E5"/>
<path d="M310.855 4.11182V146.463H67.2148V222.046H2.80273V4.11182H310.855Z" fill="white"/>
<path d="M0 0.339844V225.829H67.2155V218.274H5.59862V7.89497H308.06V146.463H313.659V0.339844H0Z" fill="#F1F1F1"/>
<path d="M262.64 84.7803H67.3711V94.0823H262.64V84.7803Z" fill="#F1F1F1"/>
<path d="M262.64 108.965H67.3711V118.267H262.64V108.965Z" fill="#F1F1F1"/>
<path d="M262.64 133.15H67.3711V142.452H262.64V133.15Z" fill="#F1F1F1"/>
<path d="M55.5181 95.8528C58.0026 95.8528 60.0167 93.1348 60.0167 89.7821C60.0167 86.4294 58.0026 83.7114 55.5181 83.7114C53.0336 83.7114 51.0195 86.4294 51.0195 89.7821C51.0195 93.1348 53.0336 95.8528 55.5181 95.8528Z" fill="#F1F1F1"/>
<path d="M475.599 323.037H167.541V540.971H475.599V323.037Z" fill="white"/>
<path d="M478.399 544.75H164.74V319.258H478.399V544.75ZM170.341 537.191H472.798V326.816H170.341V537.191Z" fill="#CBCBCB"/>
<path d="M427.041 404.044H231.771V413.346H427.041V404.044Z" fill="#6C63FF"/>
<path d="M427.041 428.229H231.771V437.531H427.041V428.229Z" fill="#6C63FF"/>
<path d="M427.041 452.415H231.771V461.716H427.041V452.415Z" fill="#6C63FF"/>
<path d="M219.919 415.117C222.403 415.117 224.417 412.399 224.417 409.046C224.417 405.694 222.403 402.976 219.919 402.976C217.434 402.976 215.42 405.694 215.42 409.046C215.42 412.399 217.434 415.117 219.919 415.117Z" fill="#6C63FF"/>
<path d="M430.188 319.266C429.509 317.972 429.047 316.493 428.837 314.932C428.626 313.371 428.672 311.767 428.971 310.233C429.27 308.699 429.814 307.272 430.565 306.052C431.317 304.833 432.258 303.85 433.321 303.174L455.601 209.035L471.118 219.912L444.338 309.028C445.061 311.514 445.083 314.271 444.401 316.778C443.718 319.285 442.377 321.366 440.633 322.628C438.889 323.89 436.862 324.245 434.937 323.625C433.012 323.005 431.323 321.454 430.188 319.266V319.266Z" fill="#9F616A"/>
<path d="M448.392 222.053C448.178 221.416 448.069 220.725 448.072 220.025C448.075 219.326 448.19 218.636 448.408 218.002L456.04 195.863C456.792 192.433 458.522 189.545 460.849 187.834C463.177 186.122 465.912 185.726 468.456 186.732C471 187.738 473.144 190.064 474.419 193.201C475.693 196.337 475.994 200.028 475.256 203.463L472.705 227.717C472.632 228.409 472.45 229.072 472.17 229.66C471.89 230.249 471.52 230.749 471.084 231.127C470.648 231.504 470.157 231.751 469.644 231.849C469.131 231.948 468.608 231.896 468.112 231.698L450.654 224.717C450.157 224.519 449.697 224.178 449.307 223.719C448.917 223.259 448.604 222.691 448.392 222.053Z" fill="#6C63FF"/>
<path d="M512.757 225.789L511.512 249.304L469.194 269.459L468.572 246.784L512.757 225.789Z" fill="#9F616A"/>
<path d="M458.614 191.358L472.305 177.921L494.709 169.523L513.378 174.562L516.49 214.032L512.756 239.226L464.215 254.342L459.237 242.585C459.237 242.585 448.035 227.469 456.747 210.673L458.614 191.358Z" fill="#6C63FF"/>
<path d="M453.637 156.87V134.816C453.637 125.485 456.383 116.536 461.273 109.938C466.162 103.34 472.793 99.6338 479.708 99.6338C486.622 99.6338 493.254 103.34 498.143 109.938C503.032 116.536 505.779 125.485 505.779 134.816V156.87C505.778 158.123 505.409 159.324 504.752 160.21C504.096 161.096 503.205 161.595 502.277 161.596H457.139C456.21 161.595 455.32 161.096 454.664 160.21C454.007 159.324 453.638 158.123 453.637 156.87Z" fill="#2F2E41"/>
<path d="M478.659 161.379C489.216 161.379 497.774 149.831 497.774 135.585C497.774 121.339 489.216 109.791 478.659 109.791C468.103 109.791 459.545 121.339 459.545 135.585C459.545 149.831 468.103 161.379 478.659 161.379Z" fill="#9F616A"/>
<path d="M459.02 135.486C458.838 135.201 458.702 134.867 458.624 134.506C458.545 134.145 458.525 133.765 458.565 133.393L460.829 112.116C460.874 111.683 460.998 111.272 461.19 110.92C461.382 110.568 461.637 110.286 461.93 110.1C473.487 102.801 485.207 102.792 496.764 110.073C497.07 110.269 497.334 110.569 497.529 110.944C497.724 111.319 497.843 111.755 497.876 112.211L499.387 133.516C499.413 133.88 499.382 134.248 499.297 134.595C499.211 134.942 499.073 135.261 498.89 135.532C498.708 135.803 498.486 136.019 498.238 136.167C497.99 136.315 497.722 136.392 497.45 136.392H493.617C493.247 136.39 492.885 136.247 492.573 135.979C492.261 135.711 492.011 135.329 491.854 134.877L490.2 130.093C490.093 129.784 489.914 129.529 489.69 129.369C489.467 129.208 489.211 129.15 488.96 129.203C488.71 129.256 488.48 129.418 488.303 129.663C488.127 129.909 488.015 130.225 487.984 130.564L487.657 134.091C487.597 134.726 487.369 135.31 487.013 135.733C486.658 136.157 486.2 136.391 485.726 136.392H460.491C460.212 136.392 459.936 136.311 459.682 136.154C459.429 135.998 459.203 135.77 459.02 135.486V135.486Z" fill="#2F2E41"/>
<path d="M541.996 308.282C540.851 307.924 539.778 307.23 538.853 306.252C537.928 305.273 537.173 304.032 536.642 302.617C536.111 301.202 535.816 299.647 535.778 298.062C535.741 296.476 535.961 294.899 536.424 293.441L506.783 203.074L523.739 197.311L547.543 287.951C549.307 289.163 550.68 291.205 551.402 293.692C552.124 296.178 552.145 298.936 551.461 301.442C550.778 303.948 549.436 306.028 547.692 307.289C545.947 308.55 543.92 308.903 541.996 308.282V308.282Z" fill="#9F616A"/>
<path d="M507.793 219.269C507.32 218.983 506.899 218.564 506.557 218.038C506.215 217.513 505.962 216.894 505.813 216.224L500.631 192.829C499.507 189.59 499.38 185.881 500.279 182.516C501.178 179.151 503.029 176.404 505.427 174.878C507.824 173.352 510.572 173.171 513.068 174.375C515.564 175.58 517.605 178.07 518.742 181.302L528.764 201.727C529.05 202.31 529.24 202.969 529.32 203.66C529.4 204.35 529.369 205.056 529.229 205.729C529.088 206.402 528.842 207.027 528.507 207.56C528.172 208.093 527.756 208.522 527.286 208.819L510.795 219.235C510.326 219.532 509.815 219.689 509.297 219.695C508.779 219.7 508.266 219.555 507.793 219.269V219.269Z" fill="#6C63FF"/>
<path d="M510.628 528.827L499.839 528.826L494.707 472.672L510.629 472.673L510.628 528.827Z" fill="#9F616A"/>
<path d="M513.378 542.939L478.592 542.937V542.343C478.592 537.498 480.019 532.85 482.558 529.424C485.097 525.998 488.541 524.073 492.132 524.072H492.132L513.379 524.073L513.378 542.939Z" fill="#2F2E41"/>
<path d="M502.429 410.266L495.074 420.916L461.131 387.702L471.986 371.982L502.429 410.266Z" fill="#9F616A"/>
<path d="M511.956 417.169L488.24 451.512L487.918 451.107C485.291 447.803 483.744 443.227 483.618 438.384C483.491 433.541 484.795 428.829 487.243 425.284L487.243 425.283L501.728 404.308L511.956 417.169Z" fill="#2F2E41"/>
<path d="M514.001 249.304L517.452 253.96C534.71 277.25 538.959 309.544 536.887 342.362C536.596 347.228 536.019 352.055 535.16 356.797C528.937 390.389 532.671 497.882 520.224 504.601L517.735 516.358L493.465 515.148L494.087 504.601C494.087 504.601 488.486 488.645 492.22 478.567C495.954 468.49 504.044 393.748 504.044 393.748L499.688 332.443L467.327 354.278C467.327 354.278 484.13 366.875 482.885 375.273C482.885 375.273 492.842 378.632 490.353 387.03L494.087 397.107L485.375 415.583C485.375 415.583 426.877 368.554 431.855 345.04C436.834 321.526 467.95 304.73 467.95 304.73L470.439 279.536L468.293 265.809L511.834 243.223L514.001 249.304Z" fill="#2F2E41"/>
<path d="M659.201 544.75H304.596C304.384 544.75 304.181 544.636 304.031 544.434C303.881 544.232 303.797 543.958 303.797 543.672C303.797 543.386 303.881 543.112 304.031 542.91C304.181 542.708 304.384 542.594 304.596 542.594H659.201C659.413 542.594 659.616 542.708 659.766 542.91C659.916 543.112 660 543.386 660 543.672C660 543.958 659.916 544.232 659.766 544.434C659.616 544.636 659.413 544.75 659.201 544.75Z" fill="#CBCBCB"/>
</g>
<defs>
<clipPath id="clip0_155_517">
<rect width="660" height="544.41" fill="white" transform="translate(0 0.339844)"/>
</clipPath>
</defs>
</svg>
