<svg width="660" height="549" viewBox="0 0 660 549" fill="none" xmlns="http://www.w3.org/2000/svg">
<g clip-path="url(#clip0_155_1222)">
<path d="M581.497 509.786C581.449 509.56 576.797 486.946 586.297 468.164C595.797 449.382 616.075 441.099 616.279 441.017L617.206 440.646L617.425 441.676C617.473 441.902 622.124 464.516 612.624 483.299C603.125 502.08 582.847 510.363 582.643 510.445L581.716 510.816L581.497 509.786ZM615.935 443.16C611.873 445.022 595.842 453.175 587.818 469.038C579.794 484.902 582.215 503.663 582.987 508.303C587.047 506.445 603.072 498.304 611.103 482.424C619.127 466.561 616.707 447.802 615.935 443.16Z" fill="#3F3D56"/>
<path d="M605.365 476.711C588.294 487.661 581.719 509.411 581.719 509.411C581.719 509.411 602.823 513.407 619.894 502.457C636.966 491.507 643.541 469.757 643.541 469.757C643.541 469.757 622.437 465.761 605.365 476.711Z" fill="#D0CDE1"/>
<path d="M234.453 410.823C232.423 410.823 230.372 410.788 228.359 410.721L228.405 409.163C231.295 409.259 234.245 409.285 237.149 409.243L237.169 410.803C236.265 410.816 235.36 410.822 234.453 410.823ZM245.974 410.461L245.888 408.904C248.783 408.722 251.714 408.466 254.602 408.143L254.755 409.694C251.845 410.02 248.891 410.278 245.974 410.461ZM219.562 410.218C216.643 409.979 213.693 409.667 210.794 409.288L210.973 407.74C213.85 408.115 216.777 408.426 219.674 408.662L219.562 410.218ZM263.493 408.502L263.274 406.96C266.15 406.495 269.048 405.955 271.886 405.354L272.171 406.883C269.311 407.489 266.391 408.034 263.493 408.502ZM202.077 407.932C199.194 407.41 196.283 406.812 193.426 406.15L193.737 404.625C196.572 405.282 199.46 405.876 202.322 406.393L202.077 407.932ZM280.771 404.841L280.42 403.326C283.243 402.582 286.082 401.759 288.858 400.882L289.274 402.378C286.476 403.262 283.616 404.091 280.771 404.841ZM184.862 403.947C182.033 403.144 179.187 402.262 176.401 401.323L176.842 399.836C179.607 400.768 182.431 401.643 185.238 402.438L184.862 403.947ZM297.66 399.499L297.18 398.026C299.92 397.01 302.675 395.913 305.371 394.762L305.914 396.211C303.198 397.37 300.422 398.476 297.66 399.499ZM168.042 398.277C165.295 397.201 162.53 396.039 159.826 394.825L160.395 393.386C163.078 394.592 165.821 395.744 168.547 396.813L168.042 398.277ZM313.999 392.529L313.393 391.109C316.024 389.835 318.669 388.474 321.253 387.066L321.919 388.455C319.314 389.875 316.65 391.245 313.999 392.529ZM329.656 383.996L328.932 382.642C331.455 381.107 333.974 379.493 336.417 377.846L337.198 379.164C334.737 380.824 332.199 382.451 329.656 383.996ZM344.527 373.967L343.689 372.688C346.065 370.919 348.436 369.065 350.736 367.18L351.628 368.418C349.311 370.317 346.921 372.184 344.527 373.967ZM121.484 371.77C119.122 369.94 116.762 368.025 114.47 366.074L115.383 364.855C117.658 366.79 119.999 368.692 122.343 370.506L121.484 371.77ZM358.486 362.529L357.543 361.336C359.757 359.344 361.961 357.268 364.094 355.165L365.087 356.311C362.938 358.43 360.717 360.522 358.486 362.529ZM107.709 360.044C105.509 357.99 103.324 355.854 101.214 353.694L102.227 352.568C104.321 354.712 106.49 356.832 108.673 358.871L107.709 360.044ZM371.417 349.777L370.375 348.682C372.417 346.476 374.436 344.194 376.376 341.898L377.464 342.942C375.509 345.256 373.474 347.555 371.417 349.777ZM94.9979 347.038C92.9796 344.775 90.9863 342.436 89.0734 340.087L90.1789 339.065C92.0771 341.396 94.055 343.717 96.0582 345.962L94.9979 347.038ZM383.212 335.82L382.082 334.83C383.926 332.437 385.742 329.968 387.48 327.49L388.652 328.424C386.901 330.921 385.071 333.41 383.212 335.82ZM83.4531 332.858C81.6406 330.417 79.856 327.896 78.1485 325.366L79.3361 324.455C81.0307 326.965 82.8017 329.467 84.6006 331.891L83.4531 332.858ZM393.77 320.769L392.56 319.893C394.192 317.331 395.79 314.694 397.31 312.055L398.558 312.871C397.025 315.531 395.414 318.188 393.77 320.769ZM73.1716 317.626C71.5771 315.02 70.0165 312.338 68.5327 309.654L69.7932 308.861C71.2659 311.525 72.8147 314.187 74.3971 316.773L73.1716 317.626ZM403.001 304.746L401.72 303.992C403.125 301.281 404.49 298.498 405.778 295.718L407.09 296.41C405.792 299.21 404.416 302.015 403.001 304.746H403.001ZM410.816 287.88L409.475 287.254C410.641 284.414 411.761 281.507 412.804 278.612L414.17 279.171C413.12 282.089 411.991 285.018 410.816 287.88H410.816ZM56.7407 284.513C55.6189 281.643 54.5445 278.706 53.5477 275.784L54.9232 275.251C55.9122 278.151 56.9783 281.065 58.0912 283.913L56.7407 284.513ZM417.144 270.303L415.755 269.813C416.668 266.879 417.53 263.881 418.316 260.9L419.725 261.322C418.932 264.326 418.064 267.348 417.144 270.303ZM50.7288 266.884C49.8581 263.911 49.0399 260.874 48.2972 257.856L49.7127 257.459C50.4498 260.455 51.2619 263.469 52.1258 266.42L50.7288 266.884ZM421.914 252.223L420.488 251.869C421.143 248.862 421.742 245.792 422.269 242.744L423.708 243.026C423.178 246.098 422.574 249.192 421.914 252.223ZM46.2593 248.717C45.649 245.67 45.0967 242.565 44.6179 239.488L46.0613 239.232C46.5369 242.287 47.0849 245.367 47.6905 248.391L46.2593 248.717ZM425.103 233.752L423.652 233.54C424.046 230.485 424.378 227.369 424.64 224.279L426.098 224.419C425.834 227.533 425.499 230.673 425.103 233.752ZM43.3753 230.19C43.0301 227.102 42.7468 223.956 42.5328 220.841L43.9927 220.727C44.2045 223.819 44.4861 226.94 44.8287 230.006L43.3753 230.19ZM426.694 215.049L425.232 214.979C425.362 211.888 425.428 208.752 425.428 205.66H426.892C426.892 208.776 426.825 211.935 426.694 215.049ZM42.0894 211.459C42.0394 209.547 42.014 207.595 42.0137 205.66C42.0137 204.459 42.0233 203.261 42.0426 202.065L43.506 202.092C43.4867 203.279 43.4771 204.468 43.4771 205.66C43.4774 207.58 43.5028 209.518 43.5521 211.417L42.0894 211.459ZM43.8533 192.778L42.3927 192.681C42.5753 189.563 42.8276 186.415 43.1416 183.322L44.5964 183.49C44.2845 186.56 44.0348 189.684 43.8533 192.778H43.8533ZM424.484 183.26C424.191 180.184 423.789 178.684 423.365 175.622L424.813 175.394C425.24 178.48 425.606 180.835 425.902 183.934L424.484 183.26ZM45.7358 174.249L44.2895 174.01C44.7379 170.924 45.2588 167.813 45.838 164.763L47.2721 165.072C46.6976 168.099 46.1806 171.186 45.7358 174.249H45.7358ZM421.888 166.436C421.33 163.392 420.7 160.329 420.016 157.33L421.438 156.962C422.127 159.983 422.762 163.07 423.324 166.136L421.888 166.436ZM49.2021 155.981L47.7827 155.602C48.4933 152.58 49.2804 149.534 50.1221 146.546L51.5234 146.994C50.6884 149.959 49.9074 152.983 49.2021 155.981ZM417.752 148.326C416.936 145.355 416.044 142.367 415.102 139.443L416.485 138.936C417.435 141.882 418.334 144.894 419.157 147.887L417.752 148.326ZM54.2398 138.107L52.8593 137.59C53.8318 134.64 54.8818 131.677 55.9801 128.782L57.337 129.367C56.247 132.24 55.2048 135.18 54.2398 138.107ZM412.069 130.7C411.002 127.829 409.858 124.948 408.671 122.135L410.005 121.495C411.202 124.329 412.354 127.232 413.43 130.125L412.069 130.7ZM60.808 120.791L59.4782 120.14C60.7005 117.302 62.0013 114.456 63.3447 111.682L64.6452 112.397C63.3118 115.151 62.021 117.975 60.808 120.791ZM404.907 113.743C403.597 110.988 402.21 108.228 400.783 105.54L402.056 104.772C403.494 107.481 404.892 110.261 406.212 113.037L404.907 113.743ZM68.84 104.202L67.5717 103.424C69.0315 100.721 70.571 98.0163 72.1477 95.3842L73.381 96.2237C71.8165 98.8359 70.2884 101.521 68.84 104.202ZM396.31 97.5443C394.763 94.9199 393.144 92.3054 391.497 89.7732L392.699 88.8841C394.359 91.4358 395.991 94.0701 397.549 96.7147L396.31 97.5443ZM78.2593 88.477L77.0631 87.578C78.7502 85.0271 80.5141 82.4846 82.3069 80.0209L83.4631 80.977C81.6842 83.4224 79.9332 85.9455 78.2593 88.477ZM386.355 82.2423C384.592 79.7798 382.755 77.3318 380.895 74.9664L382.017 73.9642C383.891 76.3479 385.741 78.8142 387.518 81.2954L386.355 82.2423ZM88.9813 73.7402L87.8673 72.7286C89.7605 70.3578 91.7337 67.9981 93.732 65.715L94.8017 66.7793C92.8188 69.0452 90.8605 71.3874 88.9813 73.7402ZM375.13 67.9612C373.164 65.68 371.125 63.4189 369.07 61.2417L370.102 60.1348C372.172 62.3292 374.227 64.607 376.208 66.9053L375.13 67.9612ZM100.912 60.1104L99.8883 58.9951C101.981 56.8126 104.146 54.6547 106.324 52.5819L107.299 53.7459C105.137 55.8028 102.988 57.9442 100.912 60.1104V60.1104ZM362.73 54.8216C360.575 52.7385 358.351 50.6839 356.118 48.715L357.052 47.5129C359.3 49.4966 361.542 51.5668 363.713 53.666L362.73 54.8216ZM113.949 47.698L113.025 46.4882C115.289 44.5232 117.628 42.5851 119.978 40.7279L120.85 41.981C118.517 43.8246 116.196 45.7478 113.949 47.698H113.949ZM127.985 36.6073L127.168 35.313C129.591 33.5753 132.084 31.8738 134.581 30.2546L135.341 31.5878C132.864 33.1944 130.389 34.8833 127.985 36.6073H127.985ZM142.903 26.9331L142.2 25.5642C144.763 24.0691 147.391 22.6187 150.011 21.2524L150.654 22.6541C148.054 24.0097 145.446 25.4491 142.903 26.9331ZM319.515 23.3184C316.911 21.9353 314.244 20.5991 311.587 19.3471L312.179 17.9202C314.856 19.1818 317.544 20.5283 320.168 21.922L319.515 23.3184ZM158.577 18.7594L157.996 17.3279C160.674 16.0904 163.414 14.9035 166.138 13.8L166.658 15.2589C163.954 16.3536 161.235 17.5313 158.577 18.7594ZM303.493 15.7681C300.784 14.6479 298.011 13.5791 295.25 12.5918L295.716 11.1124C298.497 12.1077 301.292 13.1845 304.022 14.3139L303.493 15.7681ZM174.901 12.1511L174.445 10.6686C177.226 9.69657 180.064 8.78126 182.878 7.94898L183.269 9.45203C180.476 10.2782 177.66 11.1863 174.901 12.1511H174.901ZM286.899 9.83141C284.107 8.98314 281.261 8.19314 278.437 7.48352L278.773 5.96526C281.619 6.68021 284.487 7.47629 287.3 8.33065L286.899 9.83141ZM191.746 7.167L191.42 5.64606C194.271 4.95167 197.176 4.31899 200.052 3.76593L200.312 5.30096C197.457 5.85022 194.575 6.47795 191.746 7.167ZM269.883 5.55464C267.034 4.9844 264.131 4.47707 261.256 4.04665L261.459 2.50171C264.356 2.93556 267.282 3.44673 270.154 4.02113L269.883 5.55464ZM208.95 3.85696L208.757 2.3105C211.653 1.89837 214.6 1.55175 217.513 1.28131L217.64 2.83538C214.749 3.1043 211.826 3.44784 208.95 3.85696ZM252.572 2.96184C249.689 2.67235 246.755 2.44915 243.851 2.29946L243.922 0.740806C246.848 0.892026 249.804 1.11676 252.709 1.40856L252.572 2.96184ZM226.366 2.23699L226.305 0.678374C228.994 0.558771 231.735 0.497835 234.453 0.49707L235.115 0.498207L235.111 2.05838L234.453 2.05724C231.756 2.05797 229.035 2.11852 226.366 2.23699Z" fill="#3F3D56"/>
<path d="M660 509.342H123.658V510.902H660V509.342Z" fill="#3F3D56"/>
<path d="M437.568 247.024L444.885 367.937C444.885 367.937 462.446 415.522 461.714 460.767C461.714 460.767 455.129 478.709 460.251 481.83C465.373 484.95 468.3 487.29 465.373 489.631C462.446 491.971 460.251 497.431 462.446 498.992C464.641 500.552 465.373 502.892 464.641 502.892H442.69C442.69 502.892 447.08 491.191 440.495 488.07C433.909 484.95 437.568 477.149 437.568 477.149L388.544 324.252L349.763 464.668C349.763 464.668 356.348 469.348 351.227 471.689C346.105 474.029 343.909 469.348 346.105 474.029C348.3 478.709 345.373 481.05 345.373 481.83C345.373 482.61 323.422 479.489 323.422 479.489C323.422 479.489 334.397 469.348 329.275 467.008C324.153 464.668 321.958 462.328 323.422 460.767C324.885 459.207 330.739 444.386 330.739 444.386C330.739 444.386 333.666 388.219 334.397 385.879C335.129 383.539 334.397 372.618 334.397 367.157C334.397 361.696 333.666 339.854 335.861 334.393C338.056 328.933 340.251 261.845 351.958 254.044C363.666 246.244 437.568 247.024 437.568 247.024Z" fill="#2F2E41"/>
<path d="M344.642 477.929C344.642 477.929 359.276 509.913 349.032 513.813C338.788 517.714 325.618 514.593 322.691 519.274C319.764 523.954 287.569 529.415 286.837 517.714C286.106 506.012 321.959 484.17 321.959 484.17L326.63 476.152L344.642 477.929Z" fill="#2F2E41"/>
<path d="M463.179 501.333C463.179 501.333 477.813 533.316 467.569 537.217C457.326 541.117 444.155 537.997 441.228 542.677C438.301 547.358 406.106 552.818 405.374 541.117C404.643 529.416 440.496 507.573 440.496 507.573L445.167 499.556L463.179 501.333Z" fill="#2F2E41"/>
<path d="M395.496 99.9779C408.832 99.9779 419.642 88.4524 419.642 74.235C419.642 60.0177 408.832 48.4922 395.496 48.4922C382.16 48.4922 371.35 60.0177 371.35 74.235C371.35 88.4524 382.16 99.9779 395.496 99.9779Z" fill="#A0616A"/>
<path d="M411.96 87.8857L409.033 110.508L387.082 128.45L381.229 119.869V90.226L411.96 87.8857Z" fill="#A0616A"/>
<path d="M377.57 116.749C377.57 116.749 400.253 119.09 411.96 110.509L435.375 257.945C435.375 257.945 352.692 264.966 349.033 260.285V214.26L363.667 139.372L377.57 116.749Z" fill="#3F3D56"/>
<path d="M409.944 103.46L417.813 110.509C417.813 110.509 450.008 115.97 447.813 125.331L439.032 236.103L441.959 273.547C441.959 273.547 417.081 266.526 398.056 273.547C379.032 280.568 394.147 122.676 394.147 122.676C394.147 122.676 411.588 105.772 409.944 103.46Z" fill="#D0CDE1"/>
<path d="M381.228 111.998C381.228 111.998 357.813 130.011 354.886 141.712C351.959 153.413 342.447 276.667 342.447 276.667C342.447 276.667 346.838 274.327 349.033 278.227C351.228 282.128 384.886 118.168 381.228 111.998Z" fill="#D0CDE1"/>
<path d="M371.36 73.113C371.36 73.113 368.746 68.9328 369.752 64.431C370.352 61.8751 370.59 59.2375 370.455 56.6064C370.455 56.6064 372.567 49.3178 374.678 45.2448C376.789 41.1717 375.784 39.4568 382.42 38.1705C389.055 36.8843 386.34 27.6664 403.834 37.6346C404.424 38.5132 405.245 39.1856 406.194 39.5671C407.142 39.9487 408.175 40.0221 409.163 39.7783C412.782 39.028 414.089 44.3873 414.089 44.3873C414.089 44.3873 416.502 42.8867 417.407 45.0304C418.312 47.1741 424.763 43.7438 424.763 58.2139C424.763 72.6839 417.421 85.6094 417.421 85.6094C417.421 85.6094 417.96 61.269 405.996 58.8038C394.032 56.3385 381.163 49.1571 378.046 58.375C376.364 63.5486 374.12 68.4948 371.36 73.113Z" fill="#2F2E41"/>
<path d="M417.684 78.9005C418.987 78.9005 420.044 77.3986 420.044 75.546C420.044 73.6933 418.987 72.1914 417.684 72.1914C416.381 72.1914 415.324 73.6933 415.324 75.546C415.324 77.3986 416.381 78.9005 417.684 78.9005Z" fill="#A0616A"/>
<path d="M318.513 316.783C312.723 313.071 305.742 313.355 303.088 313.638C304.099 316.269 307.131 322.979 312.921 326.693C318.725 330.414 325.697 330.122 328.347 329.841C327.337 327.211 324.304 320.498 318.513 316.783Z" fill="#D0CDE1"/>
<path d="M345.72 390.441H309.533C307.373 390.441 305.302 391.356 303.775 392.984C302.248 394.612 301.391 396.82 301.391 399.122C301.391 401.424 302.248 403.632 303.775 405.26C305.302 406.888 307.373 407.802 309.533 407.802H345.72C347.878 407.8 349.947 406.885 351.472 405.257C352.998 403.629 353.854 401.423 353.854 399.122C353.854 396.821 352.998 394.614 351.472 392.987C349.947 391.359 347.878 390.444 345.72 390.441Z" fill="#D0CDE1"/>
<path d="M509.588 298.814H306.697C304.337 298.814 302 299.31 299.819 300.273C297.639 301.236 295.658 302.647 293.989 304.427C292.32 306.206 290.996 308.318 290.093 310.643C289.189 312.967 288.725 315.459 288.725 317.975V423.364C288.725 428.446 290.618 433.319 293.989 436.913C297.359 440.506 301.931 442.525 306.697 442.525H509.588C511.948 442.525 514.285 442.029 516.466 441.066C518.647 440.103 520.628 438.692 522.297 436.913C523.966 435.133 525.289 433.021 526.193 430.696C527.096 428.372 527.561 425.88 527.561 423.364V317.975C527.561 315.459 527.096 312.967 526.193 310.643C525.289 308.318 523.966 306.206 522.297 304.427C520.628 302.647 518.647 301.236 516.466 300.273C514.285 299.31 511.948 298.814 509.588 298.814ZM301.677 311.885C302.078 311.808 311.578 310.084 319.445 315.131C327.312 320.177 330.334 329.934 330.459 330.346L330.777 331.398L329.756 331.591C328.3 331.834 326.827 331.949 325.353 331.936C321.78 331.936 316.603 331.306 311.987 328.345C304.121 323.3 301.099 313.543 300.974 313.13L300.656 312.078L301.677 311.885ZM345.72 409.732H309.532C306.893 409.732 304.362 408.614 302.496 406.624C300.629 404.635 299.581 401.936 299.581 399.122C299.581 396.308 300.629 393.61 302.496 391.62C304.362 389.631 306.893 388.513 309.532 388.513H345.72C348.359 388.513 350.89 389.631 352.756 391.62C354.623 393.61 355.671 396.308 355.671 399.122C355.671 401.936 354.623 404.635 352.756 406.624C350.89 408.614 348.359 409.732 345.72 409.732ZM510.372 407.803C510.363 410.87 509.217 413.808 507.183 415.977C505.149 418.145 502.392 419.368 499.516 419.377H472.375C469.499 419.368 466.742 418.145 464.708 415.977C462.674 413.808 461.527 410.87 461.519 407.803V390.442C461.527 387.375 462.674 384.436 464.708 382.268C466.742 380.099 469.499 378.877 472.375 378.868H499.516C502.392 378.877 505.149 380.099 507.183 382.268C509.217 384.436 510.363 387.375 510.372 390.442L510.372 407.803Z" fill="#D0CDE1"/>
<path d="M480.97 404.427H469.209C468.37 404.427 467.564 404.782 466.97 405.416C466.377 406.049 466.043 406.907 466.043 407.802C466.043 408.698 466.377 409.556 466.97 410.189C467.564 410.823 468.37 411.178 469.209 411.178H480.97C481.81 411.178 482.615 410.823 483.209 410.189C483.803 409.556 484.137 408.698 484.137 407.802C484.137 406.907 483.803 406.049 483.209 405.416C482.615 404.782 481.81 404.427 480.97 404.427ZM480.97 409.249H469.209C469.031 409.25 468.854 409.213 468.689 409.14C468.524 409.068 468.374 408.961 468.248 408.827C468.121 408.692 468.021 408.533 467.953 408.357C467.884 408.181 467.849 407.993 467.849 407.803C467.849 407.612 467.884 407.424 467.953 407.248C468.021 407.072 468.121 406.913 468.248 406.778C468.374 406.644 468.524 406.537 468.689 406.465C468.854 406.392 469.031 406.355 469.209 406.356H480.97C481.149 406.355 481.325 406.392 481.49 406.465C481.655 406.537 481.805 406.644 481.932 406.778C482.058 406.913 482.158 407.072 482.227 407.248C482.295 407.424 482.33 407.612 482.33 407.803C482.33 407.993 482.295 408.181 482.227 408.357C482.158 408.533 482.058 408.692 481.932 408.827C481.805 408.961 481.655 409.068 481.49 409.14C481.325 409.213 481.149 409.25 480.97 409.249Z" fill="#D0CDE1"/>
<path d="M502.682 404.427H490.921C490.505 404.426 490.093 404.513 489.708 404.682C489.323 404.852 488.974 405.1 488.679 405.414C488.385 405.727 488.151 406.1 487.992 406.509C487.832 406.919 487.75 407.359 487.75 407.802C487.75 408.246 487.832 408.686 487.992 409.096C488.151 409.505 488.385 409.878 488.679 410.191C488.974 410.505 489.323 410.753 489.708 410.923C490.093 411.092 490.505 411.179 490.921 411.178H502.682C503.522 411.178 504.327 410.823 504.921 410.189C505.515 409.556 505.849 408.698 505.849 407.802C505.849 406.907 505.515 406.049 504.921 405.416C504.327 404.782 503.522 404.427 502.682 404.427ZM502.682 409.249H490.921C490.743 409.25 490.566 409.213 490.401 409.14C490.236 409.068 490.086 408.961 489.96 408.827C489.833 408.692 489.733 408.533 489.665 408.357C489.596 408.181 489.561 407.993 489.561 407.803C489.561 407.612 489.596 407.424 489.665 407.248C489.733 407.072 489.833 406.913 489.96 406.778C490.086 406.644 490.236 406.537 490.401 406.465C490.566 406.392 490.743 406.355 490.921 406.356H502.682C503.042 406.357 503.386 406.509 503.64 406.781C503.894 407.052 504.036 407.419 504.036 407.803C504.036 408.186 503.894 408.553 503.64 408.824C503.386 409.096 503.042 409.248 502.682 409.249Z" fill="#D0CDE1"/>
<path d="M480.97 395.746H469.209C468.37 395.746 467.564 396.102 466.97 396.735C466.377 397.368 466.043 398.227 466.043 399.122C466.043 400.017 466.377 400.876 466.97 401.509C467.564 402.142 468.37 402.498 469.209 402.498H480.97C481.386 402.498 481.799 402.411 482.183 402.242C482.568 402.073 482.918 401.824 483.212 401.511C483.507 401.197 483.74 400.825 483.9 400.415C484.059 400.005 484.141 399.566 484.141 399.122C484.141 398.678 484.059 398.239 483.9 397.829C483.74 397.419 483.507 397.047 483.212 396.733C482.918 396.419 482.568 396.171 482.183 396.002C481.799 395.832 481.386 395.745 480.97 395.746ZM480.97 400.569H469.209C468.849 400.569 468.504 400.416 468.25 400.145C467.995 399.874 467.852 399.506 467.852 399.122C467.852 398.738 467.995 398.37 468.25 398.099C468.504 397.828 468.849 397.675 469.209 397.675H480.97C481.33 397.675 481.675 397.828 481.93 398.099C482.184 398.37 482.327 398.738 482.327 399.122C482.327 399.506 482.184 399.874 481.93 400.145C481.675 400.416 481.33 400.569 480.97 400.569Z" fill="#D0CDE1"/>
<path d="M502.682 395.746H490.921C490.505 395.745 490.093 395.832 489.708 396.002C489.323 396.171 488.974 396.419 488.679 396.733C488.385 397.047 488.151 397.419 487.992 397.829C487.832 398.239 487.75 398.678 487.75 399.122C487.75 399.566 487.832 400.005 487.992 400.415C488.151 400.825 488.385 401.197 488.679 401.511C488.974 401.824 489.323 402.073 489.708 402.242C490.093 402.411 490.505 402.498 490.921 402.498H502.682C503.522 402.498 504.327 402.142 504.921 401.509C505.515 400.876 505.849 400.017 505.849 399.122C505.849 398.227 505.515 397.368 504.921 396.735C504.327 396.102 503.522 395.746 502.682 395.746ZM502.682 400.569H490.921C490.561 400.569 490.216 400.416 489.962 400.145C489.707 399.874 489.564 399.506 489.564 399.122C489.564 398.738 489.707 398.37 489.962 398.099C490.216 397.828 490.561 397.675 490.921 397.675H502.682C503.042 397.675 503.387 397.828 503.642 398.099C503.896 398.37 504.039 398.738 504.039 399.122C504.039 399.506 503.896 399.874 503.642 400.145C503.387 400.416 503.042 400.569 502.682 400.569Z" fill="#D0CDE1"/>
<path d="M480.97 387.066H469.209C468.37 387.066 467.564 387.422 466.97 388.055C466.377 388.688 466.043 389.547 466.043 390.442C466.043 391.337 466.377 392.196 466.97 392.829C467.564 393.462 468.37 393.818 469.209 393.818H480.97C481.81 393.818 482.615 393.462 483.209 392.829C483.803 392.196 484.137 391.337 484.137 390.442C484.137 389.547 483.803 388.688 483.209 388.055C482.615 387.422 481.81 387.066 480.97 387.066ZM480.97 391.889H469.209C468.849 391.889 468.504 391.736 468.25 391.465C467.995 391.194 467.852 390.826 467.852 390.442C467.852 390.058 467.995 389.69 468.25 389.419C468.504 389.148 468.849 388.995 469.209 388.995H480.97C481.33 388.995 481.675 389.148 481.93 389.419C482.184 389.69 482.327 390.058 482.327 390.442C482.327 390.826 482.184 391.194 481.93 391.465C481.675 391.736 481.33 391.889 480.97 391.889Z" fill="#D0CDE1"/>
<path d="M502.682 387.066H490.921C490.505 387.066 490.093 387.153 489.708 387.322C489.323 387.491 488.974 387.74 488.679 388.053C488.385 388.367 488.151 388.739 487.992 389.149C487.832 389.559 487.75 389.998 487.75 390.442C487.75 390.886 487.832 391.325 487.992 391.735C488.151 392.145 488.385 392.517 488.679 392.831C488.974 393.144 489.323 393.393 489.708 393.562C490.093 393.732 490.505 393.819 490.921 393.818H502.682C503.521 393.817 504.325 393.46 504.918 392.827C505.511 392.194 505.844 391.337 505.844 390.442C505.844 389.548 505.511 388.69 504.918 388.057C504.325 387.424 503.521 387.068 502.682 387.066ZM502.682 391.889H490.921C490.561 391.889 490.216 391.736 489.962 391.465C489.707 391.194 489.564 390.826 489.564 390.442C489.564 390.058 489.707 389.69 489.962 389.419C490.216 389.148 490.561 388.995 490.921 388.995H502.682C503.042 388.995 503.387 389.148 503.642 389.419C503.896 389.69 504.039 390.058 504.039 390.442C504.039 390.826 503.896 391.194 503.642 391.465C503.387 391.736 503.042 391.889 502.682 391.889Z" fill="#D0CDE1"/>
<path d="M445.618 275.107L440.373 293.354C440.373 293.354 439.033 327.373 421.472 322.692C403.911 318.012 426.594 278.227 426.594 278.227L431.716 269.646L445.618 275.107Z" fill="#A0616A"/>
<path d="M346.105 275.107L340.86 293.354C340.86 293.354 339.519 327.373 321.958 322.692C304.397 318.012 327.08 278.227 327.08 278.227L332.202 269.646L346.105 275.107Z" fill="#A0616A"/>
<path d="M441.96 119.87C441.96 119.87 453.667 116.75 457.326 137.812C460.984 158.874 465.374 218.941 465.374 218.941L447.813 282.128C447.813 282.128 430.252 271.987 426.594 273.547L440.413 218.691L428.789 162.775C428.789 162.775 439.033 119.87 441.96 119.87Z" fill="#D0CDE1"/>
<path opacity="0.15" d="M424.938 163.842L440.303 218.448L424.938 273.834L433.718 218.448L424.938 163.842Z" fill="black"/>
<path d="M354.886 162.774L328.545 273.547C328.545 273.547 342.44 278.436 347.562 282.336L354.886 162.774Z" fill="#D0CDE1"/>
<path d="M78.5575 441.156C118.969 441.156 151.728 406.23 151.728 363.147C151.728 320.064 118.969 285.139 78.5575 285.139C38.1464 285.139 5.38672 320.064 5.38672 363.147C5.38672 406.23 38.1464 441.156 78.5575 441.156Z" fill="#3F3D56"/>
<path opacity="0.1" d="M78.5577 430.234C113.311 430.234 141.485 400.198 141.485 363.147C141.485 326.096 113.311 296.06 78.5577 296.06C43.8042 296.06 15.6309 326.096 15.6309 363.147C15.6309 400.198 43.8042 430.234 78.5577 430.234Z" fill="black"/>
<path d="M75.5431 402.734V392.97C70.9133 392.874 66.1238 391.133 63.3301 388.716L65.2457 382.239C68.5657 384.891 72.5919 386.347 76.7404 386.396C82.408 386.396 86.2396 382.432 86.2396 376.922C86.2396 371.604 83.1263 368.317 77.2194 365.417C69.0773 361.55 64.0484 357.102 64.0484 348.692C64.0484 340.667 68.7581 334.577 76.102 333.127V323.362H81.0509V332.74C84.7413 332.794 88.341 333.967 91.4283 336.124L89.4324 342.504C86.4714 340.344 82.9628 339.197 79.3747 339.217C73.2284 339.217 70.9133 343.664 70.9133 347.532C70.9133 352.559 73.8668 355.072 80.8117 358.553C89.0333 362.613 93.1844 367.64 93.1844 376.245C93.1844 383.882 88.794 391.037 80.572 392.679V402.734H75.5431Z" fill="#6C63FF"/>
<path d="M155.854 521.823C104.188 530.037 51.6656 530.037 0 521.823V503.101C51.7204 510.485 104.133 510.485 155.854 503.101V521.823Z" fill="#3F3D56"/>
<path d="M155.854 492.959C104.188 501.174 51.6656 501.174 0 492.959V474.237C51.7204 481.622 104.133 481.622 155.854 474.237V492.959Z" fill="#3F3D56"/>
<path d="M155.854 464.096C104.188 472.311 51.6656 472.311 0 464.096V445.374C51.7204 452.759 104.133 452.759 155.854 445.374V464.096Z" fill="#3F3D56"/>
</g>
<defs>
<clipPath id="clip0_155_1222">
<rect width="660" height="547.627" fill="white" transform="translate(0 0.49707)"/>
</clipPath>
</defs>
</svg>
