<svg width="624" height="543" viewBox="0 0 624 543" fill="none" xmlns="http://www.w3.org/2000/svg">
<g clip-path="url(#clip0_155_831)">
<path d="M415.523 542.337L415.391 542.324L208.477 521.677L20.3235 540.452C15.4109 540.942 10.5183 539.316 6.72183 535.931C2.92541 532.546 0.536232 527.68 0.0798935 522.403C0.0267795 521.789 0.000201361 521.173 0.00015521 520.555V39.8867C-0.0188361 34.9012 1.7056 30.0899 4.83206 26.4052C7.95852 22.7205 12.259 20.4312 16.8822 19.9904L208.477 0.87207L208.61 0.885573L415.523 21.532L603.676 2.7574C608.589 2.26719 613.482 3.89331 617.278 7.27801C621.075 10.6627 623.464 15.5288 623.92 20.8057C623.973 21.42 624 22.036 624 22.6537V503.322C624.019 508.308 622.295 513.119 619.168 516.804C616.042 520.488 611.741 522.778 607.118 523.219L415.523 542.337Z" fill="#3F3D56"/>
<path d="M288.433 178.695C248.38 147.362 206.237 117.65 163.186 90.3894L161.026 89.0214V181.478H291.989L288.433 178.695ZM163.888 178.403V94.4089C204.842 120.432 244.945 148.668 283.188 178.403L163.888 178.403ZM491.138 368.703C473.816 349.359 456.046 330.455 437.827 311.992C432.804 306.897 427.751 301.842 422.666 296.829C391.635 266.21 359.583 237.09 326.511 209.468L326.125 209.145H161.026V371.308H493.471L491.138 368.703ZM163.888 368.234V212.219H325.144C357.034 238.865 388.06 267.001 418.223 296.629C423.46 301.77 428.662 306.953 433.828 312.177C451.886 330.407 469.523 349.092 486.738 368.234H163.888ZM491.138 368.703C473.816 349.359 456.046 330.455 437.827 311.992C432.804 306.897 427.751 301.842 422.666 296.829C391.635 266.21 359.583 237.09 326.511 209.468L326.125 209.145H161.026V371.308H493.471L491.138 368.703ZM163.888 368.234V212.219H325.144C357.034 238.865 388.06 267.001 418.223 296.629C423.46 301.77 428.662 306.953 433.828 312.177C451.886 330.407 469.523 349.092 486.738 368.234H163.888ZM288.433 178.695C248.38 147.362 206.237 117.65 163.186 90.3894L161.026 89.0214V181.478H291.989L288.433 178.695ZM163.888 178.403V94.4089C204.842 120.432 244.945 148.668 283.188 178.403L163.888 178.403ZM288.433 178.695C248.38 147.362 206.237 117.65 163.186 90.3894L161.026 89.0214V181.478H291.989L288.433 178.695ZM163.888 178.403V94.4089C204.842 120.432 244.945 148.668 283.188 178.403L163.888 178.403ZM491.138 368.703C473.816 349.359 456.046 330.455 437.827 311.992C432.804 306.897 427.751 301.842 422.666 296.829C391.635 266.21 359.583 237.09 326.511 209.468L326.125 209.145H161.026V371.308H493.471L491.138 368.703ZM163.888 368.234V212.219H325.144C357.034 238.865 388.06 267.001 418.223 296.629C423.46 301.77 428.662 306.953 433.828 312.177C451.886 330.407 469.523 349.092 486.738 368.234H163.888ZM19.373 398.976V402.05H132.406V446.626H19.373V449.7H135.268V398.976H19.373ZM161.026 477.368V508.517L163.888 508.233V480.442H604.629V477.368L161.026 477.368ZM604.629 402.05V398.976H161.026V449.7H604.629V446.626H163.888V402.05L604.629 402.05ZM337.358 178.403C282.453 132.909 224.469 91.8701 163.888 55.6281V24.502L161.026 24.7863V56.1534L163.229 58.7561C223.564 94.8995 281.313 135.812 335.998 181.155L336.385 181.478H604.629V178.403L337.358 178.403ZM132.406 178.403H19.373V181.478H135.268V27.3533L132.406 27.6376L132.406 178.403ZM604.629 209.145H368.811L371.895 211.866C400.929 237.528 429.436 264.744 457.417 293.516C461.395 297.605 465.359 301.727 469.309 305.882C488.97 326.518 508.248 347.827 527.142 369.81L529.501 371.309H604.629V368.234H529.681C510.993 346.469 491.899 325.334 472.399 304.829C468.5 300.725 464.586 296.649 460.658 292.602C433.284 264.388 405.324 237.594 376.781 212.219H604.629V209.145ZM19.373 477.368V480.442H132.406V511.368L135.268 511.084V477.368H19.373ZM19.373 209.145V212.219H132.406V368.234H19.373V371.309H135.268V209.145H19.373ZM288.433 178.695C248.38 147.362 206.237 117.65 163.186 90.3894L161.026 89.0214V181.478H291.989L288.433 178.695ZM163.888 178.403V94.4089C204.842 120.432 244.945 148.668 283.188 178.403L163.888 178.403ZM491.138 368.703C473.816 349.359 456.046 330.455 437.827 311.992C432.804 306.897 427.751 301.842 422.666 296.829C391.635 266.21 359.583 237.09 326.511 209.468L326.125 209.145H161.026V371.308H493.471L491.138 368.703ZM163.888 368.234V212.219H325.144C357.034 238.865 388.06 267.001 418.223 296.629C423.46 301.77 428.662 306.953 433.828 312.177C451.886 330.407 469.523 349.092 486.738 368.234H163.888ZM288.433 178.695C248.38 147.362 206.237 117.65 163.186 90.3894L161.026 89.0214V181.478H291.989L288.433 178.695ZM163.888 178.403V94.4089C204.842 120.432 244.945 148.668 283.188 178.403L163.888 178.403ZM491.138 368.703C473.816 349.359 456.046 330.455 437.827 311.992C432.804 306.897 427.751 301.842 422.666 296.829C391.635 266.21 359.583 237.09 326.511 209.468L326.125 209.145H161.026V371.308H493.471L491.138 368.703ZM163.888 368.234V212.219H325.144C357.034 238.865 388.06 267.001 418.223 296.629C423.46 301.77 428.662 306.953 433.828 312.177C451.886 330.407 469.523 349.092 486.738 368.234H163.888Z" fill="white"/>
<path d="M319.598 203.173C319.598 242.101 253.978 328.822 253.978 328.822C253.978 328.822 188.357 242.101 188.357 203.173C188.357 184.479 195.271 166.55 207.577 153.331C219.883 140.113 236.574 132.687 253.978 132.687C271.381 132.687 288.072 140.113 300.378 153.331C312.684 166.55 319.598 184.479 319.598 203.173Z" fill="#6C63FF"/>
<path d="M283.976 200.108C283.976 206.481 282.217 212.711 278.921 218.01C275.624 223.309 270.939 227.439 265.458 229.878C259.977 232.316 253.945 232.955 248.126 231.711C242.307 230.468 236.962 227.399 232.767 222.893C228.571 218.386 225.714 212.645 224.557 206.394C223.399 200.144 223.993 193.665 226.264 187.777C228.534 181.889 232.379 176.857 237.312 173.316C242.246 169.776 248.045 167.886 253.978 167.886C257.918 167.884 261.82 168.716 265.46 170.335C269.1 171.953 272.408 174.327 275.194 177.319C277.98 180.312 280.19 183.865 281.696 187.775C283.203 191.685 283.978 195.876 283.976 200.108Z" fill="white"/>
<path d="M253.978 379.695C263.747 379.695 271.667 371.188 271.667 360.694C271.667 350.2 263.747 341.693 253.978 341.693C244.209 341.693 236.289 350.2 236.289 360.694C236.289 371.188 244.209 379.695 253.978 379.695Z" fill="#6C63FF"/>
<path d="M423.462 122.167C437.906 122.167 449.615 109.59 449.615 94.0749C449.615 78.5598 437.906 65.9824 423.462 65.9824C409.018 65.9824 397.309 78.5598 397.309 94.0749C397.309 109.59 409.018 122.167 423.462 122.167Z" fill="#FF6584"/>
<path d="M505.474 180.646H377.175C377.014 180.648 376.854 180.634 376.695 180.605L437.375 67.7051C437.745 67.002 438.283 66.4171 438.932 66.0101C439.582 65.6031 440.321 65.3887 441.073 65.3887C441.825 65.3887 442.563 65.6031 443.213 66.0101C443.863 66.4171 444.4 67.002 444.771 67.7051L485.494 143.47L487.445 147.095L505.474 180.646Z" fill="white"/>
<path opacity="0.2" d="M505.475 180.645H461.67L483.173 147.094L484.721 144.677L485.495 143.469L487.446 147.094L505.475 180.645Z" fill="black"/>
<path d="M576.91 180.646H465.941L487.445 147.095L488.992 144.678L517.013 100.955C518.85 98.0892 523.27 97.9108 525.429 100.414C525.575 100.585 525.709 100.766 525.833 100.955L576.91 180.646Z" fill="white"/>
<path d="M585.145 339.796C592.455 339.796 598.381 333.431 598.381 325.578C598.381 317.726 592.455 311.36 585.145 311.36C577.834 311.36 571.908 317.726 571.908 325.578C571.908 333.431 577.834 339.796 585.145 339.796Z" fill="white"/>
<path d="M586.42 368.404H583.709L584.945 323.437L586.42 368.404Z" fill="#CBCBCB"/>
<path d="M585.184 331.96L588.095 327.634L585.145 333.03L584.826 332.431L585.184 331.96Z" fill="#CBCBCB"/>
<path d="M584.866 336.327L581.955 332.002L584.906 337.398L585.224 336.798L584.866 336.327Z" fill="#CBCBCB"/>
<path d="M547.508 326.153C558.305 326.153 567.057 316.752 567.057 305.154C567.057 293.557 558.305 284.155 547.508 284.155C536.711 284.155 527.959 293.557 527.959 305.154C527.959 316.752 536.711 326.153 547.508 326.153Z" fill="white"/>
<path d="M549.393 368.404H545.389L547.214 301.991L549.393 368.404Z" fill="#CBCBCB"/>
<path d="M547.567 314.578L551.865 308.19L547.508 316.16L547.037 315.274L547.567 314.578Z" fill="#CBCBCB"/>
<path d="M547.096 321.029L542.797 314.642L547.155 322.61L547.625 321.725L547.096 321.029Z" fill="#CBCBCB"/>
<path d="M93.6369 339.796C100.947 339.796 106.873 333.431 106.873 325.578C106.873 317.726 100.947 311.36 93.6369 311.36C86.3266 311.36 80.4004 317.726 80.4004 325.578C80.4004 333.431 86.3266 339.796 93.6369 339.796Z" fill="white"/>
<path d="M94.9142 368.404H92.2031L93.4388 323.437L94.9142 368.404Z" fill="#CBCBCB"/>
<path d="M93.6766 331.96L96.5876 327.634L93.6368 333.03L93.3184 332.431L93.6766 331.96Z" fill="#CBCBCB"/>
<path d="M93.3582 336.327L90.4473 332.002L93.398 337.398L93.7165 336.798L93.3582 336.327Z" fill="#CBCBCB"/>
<path d="M56.0004 326.153C66.7971 326.153 75.5496 316.752 75.5496 305.154C75.5496 293.557 66.7971 284.155 56.0004 284.155C45.2036 284.155 36.4512 293.557 36.4512 305.154C36.4512 316.752 45.2036 326.153 56.0004 326.153Z" fill="white"/>
<path d="M57.8847 368.404H53.8809L55.7067 301.991L57.8847 368.404Z" fill="#CBCBCB"/>
<path d="M56.0589 314.578L60.357 308.19L56 316.16L55.5293 315.274L56.0589 314.578Z" fill="#CBCBCB"/>
<path d="M55.588 321.029L51.2891 314.642L55.6469 322.61L56.1176 321.725L55.588 321.029Z" fill="#CBCBCB"/>
</g>
<defs>
<clipPath id="clip0_155_831">
<rect width="624" height="541.465" fill="white" transform="translate(0 0.87207)"/>
</clipPath>
</defs>
</svg>
