<svg width="411" height="184" viewBox="0 0 411 184" fill="none" xmlns="http://www.w3.org/2000/svg">
<g clip-path="url(#clip0_576_6981)">
<path d="M370.735 75.9055H129.599C128.575 75.9055 127.593 76.3252 126.869 77.0724C126.145 77.8196 125.738 78.8329 125.738 79.8896C125.738 80.9462 126.145 81.9596 126.869 82.7068C127.593 83.4539 128.575 83.8737 129.599 83.8737H136.429V179.186C136.429 180.242 136.836 181.256 137.56 182.003C138.284 182.75 139.266 183.17 140.29 183.17C141.313 183.17 142.295 182.75 143.019 182.003C143.743 181.256 144.15 180.242 144.15 179.186L144.209 83.8737H337.745L355.589 179.186C355.589 180.242 355.996 181.256 356.72 182.003C357.444 182.75 358.426 183.17 359.45 183.17C360.474 183.17 361.456 182.75 362.18 182.003C362.904 181.256 363.311 180.242 363.311 179.186L364.434 83.8737H370.735C371.759 83.8737 372.741 83.4539 373.465 82.7068C374.189 81.9596 374.595 80.9462 374.595 79.8896C374.595 78.8329 374.189 77.8196 373.465 77.0724C372.741 76.3252 371.759 75.9055 370.735 75.9055Z" fill="#CCCCCC"/>
<path d="M171.395 58.1529V75.0245H130.436C129.363 75.063 128.292 74.883 127.286 74.4947C126.28 74.1063 125.358 73.5173 124.573 72.7612C123.787 72.0052 123.154 71.0968 122.709 70.0881C122.263 69.0794 122.015 67.99 121.978 66.8822C121.94 65.7744 122.115 64.6698 122.491 63.6316C122.867 62.5934 123.438 61.6418 124.171 60.8312C124.903 60.0206 125.783 59.3669 126.761 58.9074C127.738 58.4478 128.794 58.1914 129.867 58.1529C130.057 58.1461 130.247 58.1461 130.436 58.1529L171.395 58.1529Z" fill="#F2F2F2"/>
<path d="M172.402 74.8947C172.402 75.0668 172.336 75.2318 172.218 75.3535C172.1 75.4752 171.94 75.5436 171.774 75.5436H129.708C127.424 75.542 125.235 74.6046 123.621 72.9376C122.006 71.2706 121.1 69.0103 121.1 66.6536C121.1 64.2969 122.006 62.0366 123.621 60.3696C125.235 58.7025 127.424 57.7652 129.708 57.7636H171.774C171.856 57.7633 171.938 57.78 172.015 57.8125C172.091 57.845 172.161 57.8927 172.219 57.953C172.278 58.0133 172.324 58.0849 172.356 58.1637C172.388 58.2426 172.404 58.3271 172.404 58.4125C172.404 58.4978 172.388 58.5823 172.356 58.6612C172.324 58.74 172.278 58.8116 172.219 58.8719C172.161 58.9322 172.091 58.98 172.015 59.0125C171.938 59.045 171.856 59.0616 171.774 59.0614H129.708C127.759 59.0644 125.89 59.8656 124.513 61.2891C123.136 62.7126 122.362 64.642 122.362 66.6536C122.362 68.6652 123.136 70.5946 124.513 72.018C125.89 73.4415 127.759 74.2428 129.708 74.2458H171.774C171.94 74.2459 172.1 74.3143 172.218 74.436C172.336 74.5576 172.402 74.7226 172.402 74.8947Z" fill="#6C63FF"/>
<path d="M171.395 62.0463H127.38C127.347 62.0465 127.315 62.0331 127.291 62.009C127.268 61.9849 127.254 61.9521 127.254 61.9177C127.254 61.8834 127.266 61.8504 127.29 61.8258C127.313 61.8013 127.345 61.7872 127.378 61.7868H171.395C171.428 61.7871 171.46 61.8009 171.483 61.8252C171.507 61.8495 171.52 61.8823 171.52 61.9165C171.52 61.9507 171.507 61.9836 171.483 62.0079C171.46 62.0322 171.428 62.046 171.395 62.0463Z" fill="#CCCCCC"/>
<path d="M171.395 65.1611H127.38C127.347 65.1613 127.315 65.1479 127.291 65.1238C127.268 65.0997 127.254 65.0669 127.254 65.0325C127.254 64.9982 127.266 64.9651 127.29 64.9406C127.313 64.916 127.345 64.902 127.378 64.9016H171.395C171.428 64.9019 171.46 64.9157 171.483 64.94C171.507 64.9643 171.52 64.9971 171.52 65.0313C171.52 65.0655 171.507 65.0983 171.483 65.1226C171.46 65.1469 171.428 65.1608 171.395 65.1611Z" fill="#CCCCCC"/>
<path d="M171.395 68.2759H127.38C127.347 68.276 127.315 68.2626 127.291 68.2385C127.268 68.2144 127.254 68.1816 127.254 68.1473C127.254 68.1129 127.266 68.0799 127.29 68.0553C127.313 68.0308 127.345 68.0167 127.378 68.0163H171.395C171.428 68.0166 171.46 68.0305 171.483 68.0548C171.507 68.0791 171.52 68.1119 171.52 68.1461C171.52 68.1803 171.507 68.2131 171.483 68.2374C171.46 68.2617 171.428 68.2755 171.395 68.2759Z" fill="#CCCCCC"/>
<path d="M171.395 71.3905H127.38C127.347 71.3907 127.315 71.3773 127.291 71.3532C127.268 71.3291 127.254 71.2963 127.254 71.2619C127.254 71.2276 127.266 71.1945 127.29 71.17C127.313 71.1454 127.345 71.1314 127.378 71.131H171.395C171.428 71.1313 171.46 71.1451 171.483 71.1694C171.507 71.1937 171.52 71.2265 171.52 71.2607C171.52 71.2949 171.507 71.3277 171.483 71.352C171.46 71.3763 171.428 71.3902 171.395 71.3905Z" fill="#CCCCCC"/>
<path d="M163.674 40.3776V57.2492H122.715C120.548 57.327 118.438 56.5129 116.852 54.9859C115.266 53.459 114.332 51.3442 114.257 49.1069C114.181 46.8696 114.97 44.693 116.45 43.0559C117.93 41.4189 119.979 40.4554 122.147 40.3776C122.336 40.3708 122.526 40.3708 122.715 40.3776H163.674Z" fill="#F2F2F2"/>
<path d="M164.682 57.1195C164.682 57.2915 164.615 57.4565 164.498 57.5782C164.38 57.6999 164.22 57.7683 164.053 57.7684H121.987C119.703 57.7684 117.512 56.8317 115.896 55.1645C114.281 53.4973 113.373 51.2361 113.373 48.8783C113.373 46.5206 114.281 44.2593 115.896 42.5921C117.512 40.9249 119.703 39.9883 121.987 39.9883H164.053C164.136 39.9883 164.217 40.0051 164.294 40.0377C164.37 40.0703 164.439 40.1181 164.498 40.1784C164.556 40.2386 164.602 40.3102 164.634 40.3889C164.665 40.4676 164.682 40.552 164.682 40.6372C164.682 40.7224 164.665 40.8068 164.634 40.8855C164.602 40.9643 164.556 41.0358 164.498 41.0961C164.439 41.1563 164.37 41.2041 164.294 41.2367C164.217 41.2693 164.136 41.2861 164.053 41.2861H121.987C120.036 41.2861 118.165 42.086 116.785 43.5098C115.406 44.9337 114.631 46.8648 114.631 48.8783C114.631 50.8919 115.406 52.823 116.785 54.2469C118.165 55.6707 120.036 56.4706 121.987 56.4706H164.053C164.22 56.4706 164.38 56.539 164.498 56.6607C164.615 56.7824 164.682 56.9474 164.682 57.1195Z" fill="#3F3D56"/>
<path d="M163.674 44.271H119.66C119.626 44.2712 119.594 44.2578 119.571 44.2337C119.547 44.2096 119.534 44.1768 119.533 44.1424C119.533 44.1081 119.546 44.0751 119.569 44.0505C119.592 44.026 119.624 44.0119 119.657 44.0115H163.674C163.708 44.0118 163.739 44.0256 163.763 44.0499C163.786 44.0742 163.799 44.107 163.799 44.1412C163.799 44.1754 163.786 44.2083 163.763 44.2326C163.739 44.2569 163.708 44.2707 163.674 44.271Z" fill="#CCCCCC"/>
<path d="M163.674 47.3858H119.66C119.626 47.386 119.594 47.3725 119.571 47.3484C119.547 47.3243 119.534 47.2915 119.533 47.2572C119.533 47.2229 119.546 47.1898 119.569 47.1653C119.592 47.1407 119.624 47.1267 119.657 47.1262H163.674C163.708 47.1266 163.739 47.1404 163.763 47.1647C163.786 47.189 163.799 47.2218 163.799 47.256C163.799 47.2902 163.786 47.323 163.763 47.3473C163.739 47.3716 163.708 47.3854 163.674 47.3858Z" fill="#CCCCCC"/>
<path d="M163.674 50.5005H119.66C119.626 50.5007 119.594 50.4873 119.571 50.4632C119.547 50.4391 119.534 50.4063 119.533 50.3719C119.533 50.3376 119.546 50.3045 119.569 50.28C119.592 50.2555 119.624 50.2414 119.657 50.241H163.674C163.708 50.2413 163.739 50.2551 163.763 50.2794C163.786 50.3037 163.799 50.3366 163.799 50.3707C163.799 50.4049 163.786 50.4378 163.763 50.4621C163.739 50.4864 163.708 50.5002 163.674 50.5005Z" fill="#CCCCCC"/>
<path d="M163.674 53.6152H119.66C119.626 53.6154 119.594 53.602 119.571 53.5779C119.547 53.5538 119.534 53.521 119.533 53.4867C119.533 53.4523 119.546 53.4193 119.569 53.3947C119.592 53.3702 119.624 53.3561 119.657 53.3557H163.674C163.708 53.356 163.739 53.3698 163.763 53.3941C163.786 53.4184 163.799 53.4513 163.799 53.4855C163.799 53.5197 163.786 53.5525 163.763 53.5768C163.739 53.6011 163.708 53.6149 163.674 53.6152Z" fill="#CCCCCC"/>
<path d="M211.323 135.607V120.896C211.323 120.246 211.072 119.622 210.627 119.163C210.181 118.703 209.577 118.445 208.947 118.444H154.899C154.269 118.445 153.665 118.703 153.219 119.163C152.774 119.622 152.523 120.246 152.523 120.896V135.607H211.323Z" fill="#CCCCCC"/>
<path d="M211.323 141.123H152.523V160.124H211.323V141.123Z" fill="#CCCCCC"/>
<path d="M152.523 165.641V180.351C152.523 181.002 152.774 181.625 153.219 182.085C153.665 182.545 154.269 182.803 154.899 182.803H208.947C209.577 182.803 210.181 182.545 210.627 182.085C211.072 181.625 211.323 181.002 211.323 180.351V165.641H152.523Z" fill="#CCCCCC"/>
<path d="M181.626 129.477C182.61 129.477 183.407 128.654 183.407 127.639C183.407 126.623 182.61 125.8 181.626 125.8C180.641 125.8 179.844 126.623 179.844 127.639C179.844 128.654 180.641 129.477 181.626 129.477Z" fill="white"/>
<path d="M181.626 153.995C182.61 153.995 183.407 153.172 183.407 152.156C183.407 151.141 182.61 150.317 181.626 150.317C180.641 150.317 179.844 151.141 179.844 152.156C179.844 153.172 180.641 153.995 181.626 153.995Z" fill="white"/>
<path d="M181.721 177.993C182.705 177.993 183.503 177.17 183.503 176.155C183.503 175.139 182.705 174.316 181.721 174.316C180.737 174.316 179.939 175.139 179.939 176.155C179.939 177.17 180.737 177.993 181.721 177.993Z" fill="white"/>
<path d="M204.657 101.672V118.543H163.698C161.531 118.619 159.424 117.805 157.838 116.278C156.253 114.751 155.321 112.637 155.245 110.401C155.17 108.165 155.958 105.989 157.436 104.352C158.914 102.715 160.962 101.751 163.129 101.672C163.319 101.665 163.508 101.665 163.698 101.672H204.657Z" fill="#F2F2F2"/>
<path d="M205.662 118.413C205.662 118.585 205.596 118.75 205.478 118.872C205.36 118.994 205.2 119.062 205.034 119.062H162.968C160.684 119.063 158.493 118.127 156.877 116.461C155.261 114.795 154.353 112.535 154.352 110.178C154.35 107.82 155.256 105.559 156.87 103.891C158.484 102.223 160.674 101.284 162.958 101.282H205.034C205.116 101.282 205.198 101.299 205.275 101.331C205.351 101.364 205.421 101.411 205.479 101.472C205.538 101.532 205.584 101.603 205.616 101.682C205.648 101.761 205.664 101.846 205.664 101.931C205.664 102.016 205.648 102.101 205.616 102.18C205.584 102.259 205.538 102.33 205.479 102.39C205.421 102.451 205.351 102.499 205.275 102.531C205.198 102.564 205.116 102.58 205.034 102.58H162.968C161.019 102.583 159.15 103.384 157.772 104.807C156.395 106.231 155.621 108.16 155.621 110.172C155.621 112.184 156.395 114.114 157.772 115.537C159.15 116.961 161.019 117.762 162.968 117.764H205.034C205.2 117.764 205.36 117.833 205.478 117.955C205.596 118.076 205.662 118.241 205.662 118.413Z" fill="#3F3D56"/>
<path d="M204.657 105.565H160.642C160.609 105.565 160.577 105.552 160.553 105.528C160.529 105.504 160.516 105.471 160.516 105.436C160.515 105.402 160.528 105.369 160.551 105.344C160.575 105.32 160.606 105.306 160.64 105.305H204.657C204.69 105.306 204.722 105.32 204.745 105.344C204.768 105.368 204.781 105.401 204.781 105.435C204.781 105.469 204.768 105.502 204.745 105.527C204.722 105.551 204.69 105.565 204.657 105.565H204.657Z" fill="#CCCCCC"/>
<path d="M204.657 108.68H160.642C160.609 108.68 160.577 108.666 160.553 108.642C160.529 108.618 160.516 108.585 160.516 108.551C160.515 108.517 160.528 108.484 160.551 108.459C160.575 108.435 160.606 108.421 160.64 108.42H204.657C204.69 108.42 204.722 108.434 204.745 108.459C204.768 108.483 204.781 108.516 204.781 108.55C204.781 108.584 204.768 108.617 204.745 108.641C204.722 108.666 204.69 108.679 204.657 108.68H204.657Z" fill="#CCCCCC"/>
<path d="M204.657 111.794H160.642C160.609 111.795 160.577 111.781 160.553 111.757C160.529 111.733 160.516 111.7 160.516 111.666C160.515 111.632 160.528 111.598 160.551 111.574C160.575 111.549 160.606 111.535 160.64 111.535H204.657C204.69 111.535 204.722 111.549 204.745 111.573C204.768 111.598 204.781 111.631 204.781 111.665C204.781 111.699 204.768 111.732 204.745 111.756C204.722 111.78 204.69 111.794 204.657 111.794H204.657Z" fill="#CCCCCC"/>
<path d="M204.657 114.909H160.642C160.609 114.909 160.577 114.896 160.553 114.872C160.529 114.848 160.516 114.815 160.516 114.781C160.515 114.746 160.528 114.713 160.551 114.689C160.575 114.664 160.606 114.65 160.64 114.65H204.657C204.69 114.65 204.722 114.664 204.745 114.688C204.768 114.712 204.781 114.745 204.781 114.779C204.781 114.814 204.768 114.846 204.745 114.871C204.722 114.895 204.69 114.909 204.657 114.909H204.657Z" fill="#CCCCCC"/>
<path d="M156.553 34.7493H137.892C137.715 34.7492 137.54 34.7911 137.381 34.8719L132.671 37.3053C132.516 37.3732 132.384 37.4868 132.291 37.6317C132.198 37.7767 132.148 37.9467 132.148 38.1205C132.148 38.2943 132.198 38.4642 132.291 38.6092C132.384 38.7541 132.516 38.8677 132.671 38.9357L137.381 41.369C137.54 41.4498 137.715 41.4918 137.892 41.4916H156.553C156.81 41.507 157.063 41.4172 157.256 41.2416C157.45 41.0661 157.568 40.819 157.587 40.5538V35.6871C157.568 35.4219 157.45 35.1748 157.256 34.9993C157.063 34.8238 156.81 34.734 156.553 34.7493Z" fill="#3F3D56"/>
<path d="M157.585 35.6871V40.5538C157.567 40.819 157.449 41.0661 157.255 41.2417C157.062 41.4172 156.809 41.507 156.552 41.4916H152.834V34.7493H156.552C156.809 34.734 157.062 34.8238 157.255 34.9993C157.449 35.1748 157.567 35.4219 157.585 35.6871Z" fill="#6C63FF"/>
<path d="M44.6721 130.111C47.075 130.982 49.655 131.201 52.1634 130.745C54.6718 130.289 57.0242 129.174 58.9938 127.507C64.01 123.162 65.5828 116.004 66.8625 109.375C68.1241 102.84 69.3858 96.3054 70.6475 89.7703L62.7231 95.4014C57.0244 99.4509 51.1972 103.63 47.2515 109.496C43.3057 115.361 41.5833 123.368 44.7536 129.715" fill="#E6E6E6"/>
<path d="M45.349 153.847C44.5469 147.817 43.7222 141.711 44.2848 135.617C44.7844 130.205 46.3843 124.919 49.6415 120.585C51.3704 118.289 53.4742 116.321 55.8582 114.771C56.4799 114.366 57.0521 115.383 56.4331 115.786C52.3081 118.477 49.1175 122.45 47.3214 127.132C45.3377 132.339 45.0191 138.015 45.361 143.547C45.5677 146.892 46.0058 150.215 46.4473 153.534C46.4821 153.684 46.4604 153.842 46.3866 153.977C46.3127 154.111 46.1923 154.211 46.0496 154.257C45.9039 154.298 45.7487 154.277 45.6176 154.2C45.4864 154.123 45.3899 153.996 45.349 153.847L45.349 153.847Z" fill="#F2F2F2"/>
<path d="M53.0742 143.178C54.1048 144.794 55.5214 146.11 57.1875 146.997C58.8536 147.884 60.7131 148.314 62.5868 148.245C67.4022 148.009 71.4168 144.54 75.0306 141.247L85.7196 131.508L78.6453 131.158C73.5578 130.907 68.3391 130.673 63.4935 132.292C58.6479 133.911 54.179 137.807 53.2929 142.984" fill="#E6E6E6"/>
<path d="M43.0828 157.313C46.9432 150.263 51.4209 142.429 59.4219 139.925C61.6465 139.231 63.9792 138.982 66.2943 139.192C67.024 139.257 66.8418 140.418 66.1135 140.353C62.2328 140.021 58.3597 141.078 55.1461 143.348C52.0537 145.52 49.6459 148.54 47.608 151.743C46.3597 153.704 45.2416 155.749 44.1233 157.791C43.7659 158.444 42.7212 157.973 43.0828 157.313L43.0828 157.313Z" fill="#F2F2F2"/>
<path d="M36.8973 164.733C37.0274 163.177 37.5685 161.688 38.4617 160.428C39.355 159.168 40.5661 158.186 41.9632 157.587V153.512H48.5865V157.715C49.9148 158.343 51.058 159.324 51.8994 160.557C52.7409 161.789 53.2506 163.23 53.3765 164.733L54.9339 183.416H35.3398L36.8973 164.733Z" fill="#F2F2F2"/>
<path d="M262.144 75.5225L260.174 74.6663L258.822 64.4729H240.823L239.357 74.6246L237.595 75.5342C237.51 75.5777 237.443 75.6494 237.403 75.7375C237.363 75.8257 237.353 75.9252 237.374 76.0199C237.396 76.1146 237.448 76.199 237.522 76.2594C237.596 76.3197 237.688 76.3526 237.782 76.3526H261.982C262.078 76.3526 262.172 76.3181 262.247 76.2549C262.321 76.1918 262.373 76.1039 262.392 76.0061C262.411 75.9083 262.397 75.8068 262.352 75.7186C262.306 75.6305 262.233 75.5612 262.144 75.5225Z" fill="#E6E6E6"/>
<path d="M294.131 65.8291H205.713C205.249 65.828 204.804 65.6371 204.477 65.2982C204.149 64.9593 203.965 64.5 203.965 64.0213V51.1541H295.879V64.0213C295.879 64.5 295.695 64.9592 295.367 65.2982C295.04 65.6371 294.595 65.828 294.131 65.8291Z" fill="#CCCCCC"/>
<path d="M295.972 57.2354H203.885V2.17926C203.885 1.60147 204.108 1.04755 204.504 0.639002C204.9 0.230455 205.437 0.000646502 205.997 0H293.86C294.42 0.000646491 294.957 0.230455 295.353 0.639002C295.749 1.04755 295.971 1.60147 295.972 2.17926L295.972 57.2354Z" fill="#3F3D56"/>
<path d="M290.471 53.2394H209.384C208.952 53.2389 208.538 53.0617 208.233 52.7468C207.928 52.4318 207.756 52.0047 207.756 51.5593V5.67601C207.756 5.23057 207.928 4.8035 208.233 4.48852C208.538 4.17354 208.952 3.99636 209.384 3.99585H290.471C290.903 3.99636 291.317 4.17354 291.622 4.48852C291.927 4.8035 292.099 5.23057 292.099 5.67601V51.5593C292.099 52.0047 291.927 52.4318 291.622 52.7468C291.317 53.0617 290.903 53.2389 290.471 53.2394Z" fill="white"/>
<path d="M269.115 69.4293C269.638 68.9303 270.261 68.5558 270.94 68.3322C271.619 68.1086 272.338 68.0413 273.044 68.1351C273.751 68.229 274.43 68.4816 275.032 68.8753C275.634 69.2689 276.145 69.794 276.529 70.4135L287.497 68.4011L290.307 74.9814L274.78 77.5988C273.728 78.1957 272.502 78.3739 271.331 78.0997C270.161 77.8254 269.129 77.1178 268.431 76.1108C267.733 75.1038 267.417 73.8674 267.543 72.636C267.669 71.4046 268.228 70.2636 269.115 69.4293Z" fill="#FFB6B6"/>
<path d="M279.27 77.8314L290.704 77.6843L292.151 77.6641L315.415 77.3616C315.415 77.3616 321.732 71.1418 327.233 64.738L326.462 58.9827C325.71 53.3345 322.995 48.1606 318.823 44.424C310.944 49.857 306.375 60.6109 306.375 60.6109L291.951 64.1713L290.508 64.5274L281.545 66.7377L279.27 77.8314Z" fill="#6C63FF"/>
<path d="M337.802 113.206H316.459C316.459 114.15 293.127 114.916 293.127 114.916C292.612 115.315 292.143 115.774 291.729 116.283C290.483 117.816 289.803 119.754 289.807 121.755V123.122C289.807 125.39 290.68 127.564 292.234 129.167C293.787 130.77 295.894 131.671 298.09 131.671H337.802C339.999 131.669 342.105 130.768 343.658 129.165C345.211 127.563 346.084 125.389 346.086 123.122V121.755C346.083 119.488 345.209 117.316 343.656 115.713C342.104 114.111 339.998 113.209 337.802 113.206Z" fill="#E4E4E4"/>
<path d="M322.281 131.332H313.666V182.65H322.281V131.332Z" fill="#E4E4E4"/>
<path d="M289.146 182.338C289.146 183.299 302.201 182.71 318.306 182.71C334.41 182.71 347.465 183.299 347.465 182.338C347.465 181.377 334.41 173.76 318.306 173.76C302.201 173.76 289.146 181.377 289.146 182.338Z" fill="#E4E4E4"/>
<path d="M283.358 176.475L276.947 176.474L273.896 150.951L283.359 150.952L283.358 176.475Z" fill="#FFB6B6"/>
<path d="M284.995 182.888L264.32 182.888V182.618C264.32 180.415 265.168 178.303 266.677 176.746C268.186 175.188 270.233 174.314 272.367 174.313H272.368L284.995 174.314L284.995 182.888Z" fill="#2F2E41"/>
<path d="M264.409 176.475L257.997 176.474L254.947 150.951L264.41 150.952L264.409 176.475Z" fill="#FFB6B6"/>
<path d="M266.043 182.888L245.369 182.888V182.618C245.369 180.415 246.217 178.303 247.726 176.746C249.235 175.188 251.282 174.314 253.416 174.313H253.417L266.044 174.314L266.043 182.888Z" fill="#2F2E41"/>
<path d="M321.844 29.5381C328.001 29.5381 332.992 24.3871 332.992 18.033C332.992 11.6789 328.001 6.52792 321.844 6.52792C315.687 6.52792 310.695 11.6789 310.695 18.033C310.695 24.3871 315.687 29.5381 321.844 29.5381Z" fill="#FFB6B6"/>
<path d="M339.888 96.8614C339.888 96.8614 343.628 117.274 329.396 119.873C315.164 122.473 294.619 124.3 294.619 124.3L285.393 168.722L272.998 167.58C272.998 167.58 274.647 114.106 278.7 109.922C282.754 105.738 308.377 93.2113 308.377 93.2113L339.888 96.8614Z" fill="#2F2E41"/>
<path d="M312.091 88.3062L305.867 94.7505C305.867 94.7505 260.922 102.222 259.188 112.935C256.57 129.109 253.479 164.28 253.479 164.28L266.992 163.234L272.291 123.254L293.912 118.178L318.51 104.344L312.091 88.3062Z" fill="#2F2E41"/>
<path d="M332.572 11.1653C331.471 9.0225 330.073 4.75192 327.852 3.95988C326.618 3.53778 325.343 3.25749 324.05 3.12411L320.275 4.6227L322.329 2.97342C321.929 2.94883 321.529 2.92872 321.13 2.9131L318.582 3.9242L319.886 2.87811C317.511 2.85296 315.059 3.1078 313.219 4.5998C311.65 5.87174 310.096 10.6901 309.845 12.7325C309.576 14.6863 309.67 16.6751 310.122 18.5927L310.767 19.2257C310.993 18.6917 311.162 18.1344 311.273 17.5631C311.504 16.4957 311.949 15.4898 312.577 14.6094C313.206 13.729 314.006 12.9935 314.925 12.4497L314.961 12.4292C316.043 11.8008 317.355 11.8297 318.596 11.8758L324.489 12.0947C325.907 12.1473 327.434 12.2399 328.539 13.1577C329.241 13.8348 329.794 14.6605 330.158 15.5785C330.707 16.7225 331.781 21.0374 331.781 21.0374C331.781 21.0374 332.388 20.2229 332.679 20.8292C333.146 19.2475 333.429 17.6143 333.524 15.9638C333.617 14.306 333.289 12.6519 332.572 11.1653Z" fill="#2F2E41"/>
<path d="M371.563 23.0855C370.851 23.1338 370.159 23.3424 369.535 23.6967C368.91 24.051 368.368 24.5423 367.948 25.136C367.527 25.7297 367.238 26.4114 367.1 27.133C366.962 27.8546 366.979 28.5986 367.15 29.3126L358.186 36.1372L360.875 42.771L373.404 32.9499C374.548 32.5739 375.518 31.7782 376.13 30.7136C376.743 29.6489 376.956 28.3893 376.729 27.1734C376.502 25.9575 375.851 24.8697 374.899 24.1163C373.946 23.3629 372.759 22.9961 371.563 23.0855Z" fill="#FFB6B6"/>
<path d="M370.121 37.0179L347.647 62.7767C347.647 62.7767 336.899 59.226 328.587 55.3765L324.853 43.5406C323.986 40.7949 323.616 37.9078 323.761 35.0238C335.284 31.8595 348.686 43.6334 348.686 43.6334L365.509 30.0344L370.121 37.0179Z" fill="#6C63FF"/>
<path d="M317.679 98.7638C313.67 97.3344 309.524 95.8564 305.051 95.3016L304.859 95.2776L304.912 95.0858C309.542 78.3111 308.386 67.5806 306.118 51.4618C305.635 47.985 306.255 44.4404 307.885 41.3571C309.515 38.2737 312.067 35.817 315.161 34.3535L315.188 34.3407L327.961 33.5031L327.99 33.5013L337.279 36.3208C338.616 36.7294 339.785 37.5789 340.609 38.7391C341.433 39.8993 341.865 41.3062 341.84 42.7443C341.739 48.0452 341.953 53.9636 342.179 60.2293C342.686 74.2861 343.21 88.8215 340.236 98.2526L340.22 98.302L340.18 98.3341C337.446 100.632 334.02 101.874 330.494 101.846C326.324 101.846 322.069 100.329 317.679 98.7638Z" fill="#6C63FF"/>
<path d="M410.406 184H0.593932C0.436412 184 0.285344 183.935 0.173961 183.82C0.0625776 183.706 0 183.55 0 183.387C0 183.225 0.0625776 183.069 0.173961 182.954C0.285344 182.839 0.436412 182.774 0.593932 182.774H410.406C410.564 182.774 410.715 182.839 410.826 182.954C410.937 183.069 411 183.225 411 183.387C411 183.55 410.937 183.706 410.826 183.82C410.715 183.935 410.564 184 410.406 184Z" fill="#CCCCCC"/>
</g>
<defs>
<clipPath id="clip0_576_6981">
<rect width="411" height="184" fill="white"/>
</clipPath>
</defs>
</svg>
