<svg width="660" height="558" viewBox="0 0 660 558" fill="none" xmlns="http://www.w3.org/2000/svg">
<g clip-path="url(#clip0_155_1188)">
<path d="M64.9052 148.435C100.751 148.435 129.81 115.304 129.81 74.4342C129.81 33.5648 100.751 0.433594 64.9052 0.433594C29.0591 0.433594 0 33.5648 0 74.4342C0 115.304 29.0591 148.435 64.9052 148.435Z" fill="#F0F0F0"/>
<path d="M595.095 314.268C630.941 314.268 660 281.137 660 240.267C660 199.398 630.941 166.267 595.095 166.267C559.249 166.267 530.189 199.398 530.189 240.267C530.189 281.137 559.249 314.268 595.095 314.268Z" fill="#F0F0F0"/>
<path d="M392.338 551.311L380.927 545.833L373.099 480.613H268.856L260.371 545.567L250.162 551.386C249.674 551.665 249.282 552.123 249.051 552.687C248.819 553.251 248.762 553.888 248.887 554.494C249.013 555.1 249.314 555.64 249.742 556.026C250.17 556.412 250.7 556.623 251.247 556.623H391.398C391.957 556.623 392.5 556.402 392.933 555.998C393.366 555.594 393.663 555.031 393.774 554.406C393.885 553.78 393.802 553.13 393.541 552.566C393.279 552.002 392.854 551.559 392.338 551.311V551.311Z" fill="#E6E6E6"/>
<path d="M577.583 489.29H65.5129C62.8263 489.283 60.2517 488.061 58.354 485.893C56.4564 483.724 55.3906 480.786 55.3906 477.723V395.396H587.706V477.723C587.706 480.786 586.64 483.724 584.742 485.893C582.844 488.061 580.27 489.283 577.583 489.29V489.29Z" fill="#CCCCCC"/>
<path d="M588.241 434.306H54.9238V82.044C54.9276 78.3472 56.2173 74.803 58.5101 72.1891C60.8029 69.5751 63.9115 68.1047 67.1539 68.1006H576.011C579.254 68.1047 582.362 69.5751 584.655 72.189C586.948 74.803 588.238 78.3472 588.241 82.044V434.306Z" fill="#3F3D56"/>
<path d="M556.388 408.739H86.7761C84.2764 408.735 81.8799 407.602 80.1123 405.587C78.3447 403.571 77.3505 400.839 77.3477 397.989V104.417C77.3504 101.567 78.3447 98.8346 80.1122 96.8193C81.8798 94.8039 84.2764 93.6703 86.7761 93.667H556.388C558.887 93.6703 561.284 94.8039 563.052 96.8193C564.819 98.8346 565.813 101.567 565.816 104.417V397.989C565.813 400.839 564.819 403.571 563.052 405.587C561.284 407.602 558.887 408.735 556.388 408.739V408.739Z" fill="white"/>
<path d="M453.286 557.302H189.405C189.135 557.309 188.87 557.213 188.653 557.031C188.435 556.848 188.276 556.588 188.202 556.292C188.155 556.09 188.15 555.879 188.186 555.674C188.222 555.47 188.299 555.278 188.41 555.113C188.522 554.947 188.665 554.814 188.829 554.721C188.993 554.629 189.174 554.581 189.357 554.581H453.189C453.474 554.57 453.754 554.669 453.983 554.862C454.213 555.055 454.378 555.331 454.452 555.645C454.491 555.844 454.49 556.051 454.45 556.249C454.409 556.448 454.33 556.633 454.218 556.792C454.106 556.952 453.964 557.08 453.803 557.168C453.642 557.256 453.465 557.302 453.286 557.302Z" fill="#CCCCCC"/>
<path d="M503.158 356.478H404.216C403.97 356.502 403.725 356.414 403.535 356.234C403.344 356.055 403.223 355.797 403.197 355.517V264.524C403.223 264.243 403.344 263.986 403.535 263.806C403.725 263.626 403.97 263.539 404.216 263.562H503.158C503.405 263.539 503.649 263.626 503.84 263.806C504.03 263.986 504.152 264.243 504.177 264.524V355.517C504.152 355.797 504.03 356.055 503.84 356.235C503.649 356.414 503.405 356.502 503.158 356.478V356.478Z" fill="#F0F0F0"/>
<path d="M492.405 273.63H414.972C414.702 273.63 414.443 273.753 414.252 273.971C414.061 274.188 413.954 274.484 413.953 274.792V343.199C413.954 343.507 414.061 343.802 414.252 344.02C414.443 344.237 414.702 344.36 414.972 344.36H492.405C492.675 344.36 492.934 344.237 493.125 344.02C493.316 343.802 493.424 343.507 493.424 343.199V274.792C493.424 274.484 493.316 274.188 493.125 273.971C492.934 273.753 492.675 273.63 492.405 273.63V273.63Z" fill="white"/>
<path d="M451.775 319.984C457.212 319.984 461.62 314.958 461.62 308.759C461.62 302.56 457.212 297.534 451.775 297.534C446.338 297.534 441.93 302.56 441.93 308.759C441.93 314.958 446.338 319.984 451.775 319.984Z" fill="#FFB8B8"/>
<path d="M466.178 344.359H444.35L445.063 326.063L445.232 325.859L447.682 322.908H455.477L458.367 326.099L458.6 326.357L464.752 333.079L466.178 344.359Z" fill="#6C63FF"/>
<path d="M448.103 344.36H431.589C431.548 340.23 431.525 337.757 431.525 337.757L432.481 337.094L432.485 337.091H432.488L443.011 329.806L445.221 325.715L445.232 325.859L445.882 334.484C445.882 334.484 446.955 338.439 448.103 344.36Z" fill="#2F2E41"/>
<path d="M475.861 344.36H458.368C458.633 332.315 457.207 325.715 457.941 325.715L458.368 326.099L463.524 330.741L470.319 333.583H470.323L475.008 335.542L475.829 335.886V336.327C475.832 337.385 475.836 340.279 475.861 344.36Z" fill="#2F2E41"/>
<path d="M442.461 312.271C442.461 312.271 443.297 310.596 443.103 305.001C442.908 299.406 450.381 302.57 456.625 302.036C462.87 301.503 461.548 311.378 461.548 311.378C461.548 311.378 461.998 310.791 462.963 306.025C463.927 301.259 461.738 296.509 461.738 296.509C461.093 291.501 457.617 293.106 457.617 293.106C458.056 293.234 458.438 293.543 458.688 293.974C458.938 294.405 459.038 294.927 458.969 295.438C457.552 292.605 454.076 294.211 454.076 294.211C449.44 290.894 444.742 295.262 444.742 295.262C439.141 296.711 442.426 301.789 442.426 301.789C436.794 305.034 442.461 312.271 442.461 312.271Z" fill="#2F2E41"/>
<path d="M433.796 344.36H427.01C427.063 343.407 427.065 342.451 427.015 341.497C426.609 339.657 432.311 337.168 432.483 337.093L432.487 337.091H432.49L433.576 337.757L433.796 344.36Z" fill="#2F2E41"/>
<path d="M477.086 344.361H469.958L469.068 334.345L470.067 333.514C470.067 333.514 470.157 333.537 470.318 333.583H470.323C471.951 334.006 473.526 334.664 475.007 335.543C475.322 335.744 475.6 336.01 475.829 336.327C475.969 336.519 476.039 336.765 476.024 337.014C475.988 337.388 476.404 340.145 477.086 344.361Z" fill="#2F2E41"/>
<path d="M502.836 240.379H403.894C403.647 240.403 403.403 240.315 403.212 240.136C403.022 239.956 402.901 239.698 402.875 239.418V148.392C402.901 148.112 403.022 147.854 403.212 147.674C403.403 147.494 403.647 147.407 403.894 147.431H502.836C503.083 147.407 503.327 147.494 503.518 147.674C503.708 147.854 503.829 148.112 503.855 148.392V239.418C503.829 239.698 503.708 239.956 503.518 240.136C503.327 240.315 503.083 240.403 502.836 240.379V240.379Z" fill="#F0F0F0"/>
<path d="M492.083 157.498H414.65C414.38 157.499 414.121 157.621 413.93 157.839C413.739 158.057 413.631 158.352 413.631 158.66V227.067C413.631 227.375 413.739 227.67 413.93 227.888C414.121 228.106 414.38 228.228 414.65 228.229H492.083C492.353 228.228 492.612 228.106 492.803 227.888C492.994 227.67 493.101 227.375 493.102 227.067V158.66C493.101 158.352 492.994 158.057 492.803 157.839C492.612 157.621 492.353 157.499 492.083 157.498V157.498Z" fill="white"/>
<path d="M472.424 228.228C472.861 226.434 473.201 224.888 473.375 223.793C473.429 223.456 473.434 223.11 473.391 222.771C472.739 217.482 460.961 213.011 459.451 212.458L459.086 207.853L444.261 206.033L442.384 211.924L437.063 214.198C436.871 214.279 436.687 214.387 436.518 214.518C436.071 214.862 435.728 215.353 435.534 215.926C435.34 216.499 435.305 217.125 435.433 217.722L437.699 228.228H472.424L472.424 228.228Z" fill="#6C63FF"/>
<path d="M441.692 228.229H430.188C430.6 225.301 430.969 222.712 431.209 221.065C432.087 215.071 435.918 214.56 436.518 214.519C436.566 214.514 436.595 214.514 436.597 214.514H439.018L441.692 228.229Z" fill="#6C63FF"/>
<path d="M472.425 228.228H475.214C475.079 226.247 474.446 224.353 473.392 222.771C472.863 221.974 472.18 221.327 471.397 220.879L471.186 220.775L468.734 228.228H472.425Z" fill="#6C63FF"/>
<path d="M451.095 203.118C456.99 203.118 461.769 197.669 461.769 190.948C461.769 184.226 456.99 178.777 451.095 178.777C445.199 178.777 440.42 184.226 440.42 190.948C440.42 197.669 445.199 203.118 451.095 203.118Z" fill="#A0616A"/>
<path d="M443.93 185.019C445.035 186.51 446.905 186.93 448.63 187.101C452.663 187.355 456.708 186.979 460.652 185.982C460.897 188.683 460.23 191.594 461.625 193.816C462.278 191.126 462.659 188.36 462.758 185.572C462.862 184.376 462.725 183.168 462.357 182.041C462.161 181.477 461.829 180.986 461.4 180.626C460.971 180.265 460.462 180.049 459.931 180.002C460.726 179.314 461.658 178.86 462.644 178.68L459.254 176.738L460.125 175.72L453.988 175.291L455.766 174.004C453.09 173.585 450.383 173.488 447.689 173.715C446.43 173.715 445.196 174.106 444.118 174.846C443.105 175.673 442.519 177.314 443.148 178.527C442.361 178.674 441.619 179.049 440.994 179.614C440.369 180.18 439.881 180.918 439.576 181.759C439.191 183.095 439.098 184.519 439.305 185.906C439.536 188.131 439.99 190.318 440.657 192.426" fill="#2F2E41"/>
<path d="M138.988 353.933V148.103C139.052 147.464 139.332 146.879 139.768 146.473C140.205 146.067 140.764 145.871 141.326 145.929H368.317C368.878 145.871 369.437 146.067 369.874 146.473C370.311 146.879 370.591 147.464 370.654 148.103V353.933C370.591 354.572 370.311 355.157 369.874 355.563C369.437 355.969 368.878 356.165 368.317 356.107H141.326C140.764 356.165 140.205 355.969 139.768 355.563C139.332 355.157 139.052 354.572 138.988 353.933V353.933Z" fill="#E4E4E4"/>
<path d="M163.66 171.691V328.63C163.661 329.336 163.908 330.013 164.346 330.513C164.784 331.012 165.378 331.294 165.998 331.295H343.643C344.262 331.294 344.856 331.012 345.295 330.513C345.733 330.013 345.979 329.336 345.98 328.63V171.691C345.979 170.985 345.733 170.308 345.295 169.808C344.856 169.309 344.262 169.027 343.643 169.026H165.998C165.378 169.027 164.784 169.309 164.346 169.808C163.908 170.308 163.661 170.985 163.66 171.691V171.691Z" fill="white"/>
<path d="M237.342 331.294H273.094L270.866 293.167L257.968 296.56L245.424 291.058L245.092 290.916L245.071 290.904C245.066 290.916 245.063 290.928 245.06 290.94C244.863 291.846 240.926 309.82 237.342 331.294Z" fill="#6C63FF"/>
<path d="M215.795 299.391L219.135 331.293H249.267L245.424 291.058L245.387 290.667L245.091 290.916L245.06 290.94L237.627 297.123L215.795 299.391Z" fill="#2F2E41"/>
<path d="M267.807 331.294H294.791L295.181 306.178L275.323 298.669L270.866 293.167C270.866 293.167 269.458 309.72 267.807 331.294Z" fill="#2F2E41"/>
<path d="M202.805 331.294H225.166L223.733 308.441L215.796 299.392C215.796 299.392 209.516 314.41 202.805 331.294Z" fill="#2F2E41"/>
<path d="M288.428 331.295H300.224C300.172 323.975 300.141 318.917 300.141 317.49C300.2 315.284 299.778 313.095 298.912 311.121C298.046 309.147 296.764 307.449 295.18 306.179L289.222 308.441L288.428 331.295Z" fill="#2F2E41"/>
<path d="M290.269 281.169H227.762V251.132C227.762 240.838 234.123 228.462 241.941 223.543C252.915 216.64 264.912 216.519 274.856 223.212C279.537 226.371 283.418 230.862 286.119 236.245C288.821 241.628 290.251 247.718 290.269 253.92V281.169Z" fill="#2F2E41"/>
<path d="M280.063 267.035C286.044 254.561 282.023 238.921 271.082 232.102C260.141 225.283 246.423 229.867 240.443 242.341C234.462 254.815 238.483 270.456 249.424 277.275C260.365 284.094 274.082 279.509 280.063 267.035Z" fill="#FFB8B8"/>
<path d="M281.712 256.017H249.503L249.426 255.6C249.054 253.411 248.572 251.248 247.984 249.121C246.705 251.258 245.525 253.469 244.45 255.747L244.319 256.017H238.057C237.673 256.016 237.293 255.925 236.941 255.748C236.59 255.57 236.275 255.312 236.016 254.988C235.846 254.774 235.447 254.273 237.096 231.319C237.142 230.773 237.311 230.249 237.587 229.799C237.864 229.35 238.238 228.99 238.673 228.754C252.805 221.232 267.127 221.431 281.243 229.349H281.495L281.583 229.748C284.368 254.179 283.967 254.707 283.796 254.932C283.538 255.273 283.217 255.546 282.858 255.733C282.498 255.92 282.108 256.017 281.712 256.017V256.017Z" fill="#2F2E41"/>
</g>
<defs>
<clipPath id="clip0_155_1188">
<rect width="660" height="556.869" fill="white" transform="translate(0 0.433594)"/>
</clipPath>
</defs>
</svg>
